<?xml version="1.0" encoding="UTF-8" standalone="no"?>
<svg
   xmlns:dc="http://purl.org/dc/elements/1.1/"
   xmlns:cc="http://creativecommons.org/ns#"
   xmlns:rdf="http://www.w3.org/1999/02/22-rdf-syntax-ns#"
   xmlns:svg="http://www.w3.org/2000/svg"
   xmlns="http://www.w3.org/2000/svg"
   xmlns:sodipodi="http://sodipodi.sourceforge.net/DTD/sodipodi-0.dtd"
   xmlns:inkscape="http://www.inkscape.org/namespaces/inkscape"
   version="1.0"
   width="50pt"
   height="50pt"
   viewBox="0 0 50 50"
   preserveAspectRatio="xMidYMid meet"
   id="svg3731"
   sodipodi:docname="hummingbird.svg"
   inkscape:version="0.92.4 (5da689c313, 2019-01-14)"
   inkscape:export-filename="C:\Users\Wesley\Desktop\projects\kites\hummingbird\art\hummingbird.png"
   inkscape:export-xdpi="96"
   inkscape:export-ydpi="96">
  <defs
     id="defs3735" />
  <sodipodi:namedview
     pagecolor="#ffffff"
     bordercolor="#666666"
     borderopacity="1"
     objecttolerance="10"
     gridtolerance="10"
     guidetolerance="10"
     inkscape:pageopacity="0"
     inkscape:pageshadow="2"
     inkscape:window-width="1920"
     inkscape:window-height="1027"
     id="namedview3733"
     showgrid="false"
     inkscape:zoom="11.856147"
     inkscape:cx="26.161663"
     inkscape:cy="28.211408"
     inkscape:window-x="-8"
     inkscape:window-y="92"
     inkscape:window-maximized="1"
     inkscape:current-layer="svg3731"
     inkscape:document-units="mm" />
  <metadata
     id="metadata3725">
Created by potrace 1.15, written by Peter Selinger 2001-2017
<rdf:RDF>
  <cc:Work
     rdf:about="">
    <dc:format>image/svg+xml</dc:format>
    <dc:type
       rdf:resource="http://purl.org/dc/dcmitype/StillImage" />
    <dc:title></dc:title>
  </cc:Work>
</rdf:RDF>
</metadata>
  <path
     inkscape:connector-curvature="0"
     id="path3727"
     d="m 38.459393,10.963337 -5.1016,2.8761 -4.017432,2.9959 -3.828643,3.4309 -1.789334,0.1226 -1.237749,-1.4418 -2.178155,-1.001 -2.446534,0.4603 -2.693278,-0.02 -4.248212,-0.2608 6.408549,1.8062 2.340289,4.4235 2.584334,4.3642 -0.0095,1.5609 -1.539214,1.3706 -1.06898,2.4938 0.595734,-0.063 -0.369025,0.7599 0.24664,1.0497 0.2723,0.9303 -0.239288,0.7617 0.722512,-0.095 0.83916,-0.5897 0.04453,0.5107 -0.123602,1.2642 0.843919,-0.086 0.794257,-0.8674 0.218727,0.6634 0.198376,0.5682 0.581862,-0.408 1.466537,-2.2067 1.831699,-2.5969 0.635067,-0.9795 0.07257,-5.9639 3.478638,-2.7484 3.517116,-3.197 2.50712,-2.7102 -2.804,0.378 1.95511,-3.6236 2.04338,-3.4213 -0.50392,-0.5104 v -5e-4"
     style="fill:none;stroke:#000000;stroke-width:0.24035597;stroke-miterlimit:4;stroke-dasharray:none;stroke-opacity:1" />
</svg>
