<?xml version="1.0" encoding="UTF-8" standalone="no"?>
<svg
   xmlns:dc="http://purl.org/dc/elements/1.1/"
   xmlns:cc="http://creativecommons.org/ns#"
   xmlns:rdf="http://www.w3.org/1999/02/22-rdf-syntax-ns#"
   xmlns:svg="http://www.w3.org/2000/svg"
   xmlns="http://www.w3.org/2000/svg"
   xmlns:sodipodi="http://sodipodi.sourceforge.net/DTD/sodipodi-0.dtd"
   xmlns:inkscape="http://www.inkscape.org/namespaces/inkscape"
   version="1.0"
   width="1280.000000pt"
   height="1168.000000pt"
   viewBox="0 0 1280.000000 1168.000000"
   preserveAspectRatio="xMidYMid meet"
   id="svg3731"
   sodipodi:docname="158334.svg"
   inkscape:version="0.92.4 (5da689c313, 2019-01-14)">
  <defs
     id="defs3735" />
  <sodipodi:namedview
     pagecolor="#ffffff"
     bordercolor="#666666"
     borderopacity="1"
     objecttolerance="10"
     gridtolerance="10"
     guidetolerance="10"
     inkscape:pageopacity="0"
     inkscape:pageshadow="2"
     inkscape:window-width="1333"
     inkscape:window-height="836"
     id="namedview3733"
     showgrid="false"
     inkscape:zoom="5.9280733"
     inkscape:cx="175.53934"
     inkscape:cy="138.78783"
     inkscape:window-x="1912"
     inkscape:window-y="-8"
     inkscape:window-maximized="1"
     inkscape:current-layer="svg3731" />
  <metadata
     id="metadata3725">
Created by potrace 1.15, written by Peter Selinger 2001-2017
<rdf:RDF>
  <cc:Work
     rdf:about="">
    <dc:format>image/svg+xml</dc:format>
    <dc:type
       rdf:resource="http://purl.org/dc/dcmitype/StillImage" />
    <dc:title></dc:title>
  </cc:Work>
</rdf:RDF>
</metadata>
  <path
     style="fill:none;stroke:#000000;stroke-width:0.24035597;stroke-miterlimit:4;stroke-dasharray:none;stroke-opacity:1"
     d="m 104.95074,1039.5611 c -1.98162,0.3406 -3.40037,1.9309 -5.1016,2.8761 -1.465113,0.8303 -2.679923,1.9938 -4.017432,2.9959 -1.548704,0.8277 -2.465723,2.3844 -3.828643,3.4309 -1.336803,0.9073 -2.425727,-0.1407 -3.027083,-1.3192 -1.140823,-1.4306 -3.126028,-1.0586 -4.624689,-0.5407 -0.884063,0.4557 -1.795717,0.2029 -2.693278,-0.02 -1.389161,-0.2909 -2.838211,-0.5236 -4.248212,-0.2608 2.190979,0.3302 4.440786,0.7538 6.408549,1.8062 1.229245,1.2026 1.255164,3.1075 2.340289,4.4235 1.062161,1.3363 1.474351,3.0542 2.584334,4.3642 1.473696,1.3621 -0.98269,1.823 -1.54867,2.9315 -0.496399,0.6094 -1.27136,1.9134 -1.06898,2.4938 1.868481,-0.9588 -1.421706,2.2353 0.473349,1.7467 1.727348,-0.6976 -1.253055,2.6461 0.755524,1.5971 0.510045,-0.3048 1.433153,-1.2414 0.883689,-0.079 -0.262698,0.6775 -0.307012,2.301 0.720317,1.178 0.547149,-0.6868 1.233209,-1.5582 1.012984,-0.204 -0.138917,1.0546 0.407841,0.4071 0.780238,0.1602 0.191211,0.7316 0.901738,-1.772 1.466537,-2.2067 0.584195,-0.9977 1.222031,-1.7757 1.831699,-2.5969 0.270672,-0.7249 0.477111,-0.802 0.635067,-0.9795 0.588876,-1.923 0.645767,-4.0299 0.07257,-5.9639 0.734435,-1.4035 2.668468,-1.4056 3.478638,-2.7484 1.265428,-1.0012 2.542474,-1.9105 3.517114,-3.197 0.78939,-0.9423 2.10668,-1.4725 2.50712,-2.7102 -0.85418,0.01 -2.27358,0.5277 -2.804,0.378 0.76611,-1.1869 0.94841,-2.6279 1.95511,-3.6236 0.9837,-0.9829 1.38209,-2.2477 2.04338,-3.4213 0.25105,-0.5763 -0.0753,-0.5995 -0.50392,-0.5104 z"
     id="path3727"
     inkscape:connector-curvature="0" />
</svg>
