  0
SECTION
  2
HEADER
  9
$ACADVER
  1
AC1014
  9
$HANDSEED
  5
FFFF
  9
$MEASUREMENT
 70
     1
  0
ENDSEC
  0
SECTION
  2
TABLES
  0
TABLE
  2
VPORT
  5
8
330
0
100
AcDbSymbolTable
 70
     4
  0
VPORT
  5
2E
330
8
100
AcDbSymbolTableRecord
100
AcDbViewportTableRecord
  2
*ACTIVE
 70
     0
 10
0.0
 20
0.0
 11
1.0
 21
1.0
 12
210.0
 22
148.5
 13
0.0
 23
0.0
 14
10.0
 24
10.0
 15
10.0
 25
10.0
 16
0.0
 26
0.0
 36
1.0
 17
0.0
 27
0.0
 37
0.0
 40
341.0
 41
1.24
 42
50.0
 43
0.0
 44
0.0
 50
0.0
 51
0.0
 71
     0
 72
   100
 73
     1
 74
     3
 75
     0
 76
     0
 77
     0
 78
     0
  0
ENDTAB
  0
TABLE
  2
LTYPE
  5
5
330
0
100
AcDbSymbolTable
 70
     1
  0
LTYPE
  5
14
330
5
100
AcDbSymbolTableRecord
100
AcDbLinetypeTableRecord
  2
BYBLOCK
 70
     0
  3

 72
    65
 73
     0
 40
0.0
  0
LTYPE
  5
15
330
5
100
AcDbSymbolTableRecord
100
AcDbLinetypeTableRecord
  2
BYLAYER
 70
     0
  3

 72
    65
 73
     0
 40
0.0
  0
LTYPE
  5
16
330
5
100
AcDbSymbolTableRecord
100
AcDbLinetypeTableRecord
  2
CONTINUOUS
 70
     0
  3
Solid line
 72
    65
 73
     0
 40
0.0
  0
ENDTAB
  0
TABLE
  2
LAYER
  5
2
100
AcDbSymbolTable
 70
1
  0
LAYER
  5
50
100
AcDbSymbolTableRecord
100
AcDbLayerTableRecord
  2
0
 70
0
  6
CONTINUOUS
  0
ENDTAB
  0
TABLE
  2
STYLE
  5
3
330
0
100
AcDbSymbolTable
 70
     1
  0
STYLE
  5
11
330
3
100
AcDbSymbolTableRecord
100
AcDbTextStyleTableRecord
  2
STANDARD
 70
     0
 40
0.0
 41
1.0
 50
0.0
 71
     0
 42
2.5
  3
txt
  4

  0
ENDTAB
  0
TABLE
  2
VIEW
  5
6
330
0
100
AcDbSymbolTable
 70
     0
  0
ENDTAB
  0
TABLE
  2
UCS
  5
7
330
0
100
AcDbSymbolTable
 70
     0
  0
ENDTAB
  0
TABLE
  2
APPID
  5
9
330
0
100
AcDbSymbolTable
 70
     2
  0
APPID
  5
12
330
9
100
AcDbSymbolTableRecord
100
AcDbRegAppTableRecord
  2
ACAD
 70
     0
  0
ENDTAB
  0
TABLE
  2
DIMSTYLE
  5
A
330
0
100
AcDbSymbolTable
 70
     1
  0
DIMSTYLE
105
27
330
A
100
AcDbSymbolTableRecord
100
AcDbDimStyleTableRecord
  2
ISO-25
 70
     0
  3

  4

  5

  6

  7

 40
1.0
 41
2.5
 42
0.625
 43
3.75
 44
1.25
 45
0.0
 46
0.0
 47
0.0
 48
0.0
140
2.5
141
2.5
142
0.0
143
0.03937007874016
144
1.0
145
0.0
146
1.0
147
0.625
 71
     0
 72
     0
 73
     0
 74
     0
 75
     0
 76
     0
 77
     1
 78
     8
170
     0
171
     3
172
     1
173
     0
174
     0
175
     0
176
     0
177
     0
178
     0
270
     2
271
     2
272
     2
273
     2
274
     3
340
11
275
     0
280
     0
281
     0
282
     0
283
     0
284
     8
285
     0
286
     0
287
     3
288
     0
  0
ENDTAB
  0
TABLE
  2
BLOCK_RECORD
  5
1
330
0
100
AcDbSymbolTable
 70
     1
  0
BLOCK_RECORD
  5
1F
330
1
100
AcDbSymbolTableRecord
100
AcDbBlockTableRecord
  2
*MODEL_SPACE
  0
BLOCK_RECORD
  5
1B
330
1
100
AcDbSymbolTableRecord
100
AcDbBlockTableRecord
  2
*PAPER_SPACE
  0
ENDTAB
  0
ENDSEC
  0
SECTION
  2
BLOCKS
  0
BLOCK
  5
20
330
1F
100
AcDbEntity
  8
0
100
AcDbBlockBegin
  2
*MODEL_SPACE
 70
     0
 10
0.0
 20
0.0
 30
0.0
  3
*MODEL_SPACE
  1

  0
ENDBLK
  5
21
330
1F
100
AcDbEntity
  8
0
100
AcDbBlockEnd
  0
BLOCK
  5
1C
330
1B
100
AcDbEntity
 67
     1
  8
0
100
AcDbBlockBegin
  2
*PAPER_SPACE
  1

  0
ENDBLK
  5
1D
330
1B
100
AcDbEntity
 67
     1
  8
0
100
AcDbBlockEnd
  0
ENDSEC
  0
SECTION
  2
ENTITIES
  0
SPLINE
  5
100
100
AcDbEntity
  8
0
 62
7
100
AcDbSpline
 70
8
 71
3
 72
8
 73
4
 74
0
 40
0
 40
0
 40
0
 40
0
 40
1
 40
1
 40
1
 40
1
 10
104.950740
 20
128.438900
 30
0.0
 10
104.447120
 20
128.380900
 30
0.0
 10
103.945690
 20
128.205400
 30
0.0
 10
103.354100
 20
127.882800
 30
0.0
  0
SPLINE
  5
101
100
AcDbEntity
  8
0
 62
7
100
AcDbSpline
 70
8
 71
3
 72
8
 73
4
 74
0
 40
0
 40
0
 40
0
 40
0
 40
1
 40
1
 40
1
 40
1
 10
103.354100
 20
127.882800
 30
0.0
 10
102.993420
 20
127.687800
 30
0.0
 10
102.692130
 20
127.490300
 30
0.0
 10
101.885010
 20
126.922100
 30
0.0
  0
SPLINE
  5
102
100
AcDbEntity
  8
0
 62
7
100
AcDbSpline
 70
8
 71
3
 72
8
 73
4
 74
0
 40
0
 40
0
 40
0
 40
0
 40
1
 40
1
 40
1
 40
1
 10
101.885010
 20
126.922100
 30
0.0
 10
101.552930
 20
126.688500
 30
0.0
 10
101.047110
 20
126.344200
 30
0.0
 10
100.763400
 20
126.158800
 30
0.0
  0
SPLINE
  5
103
100
AcDbEntity
  8
0
 62
7
100
AcDbSpline
 70
8
 71
3
 72
8
 73
4
 74
0
 40
0
 40
0
 40
0
 40
0
 40
1
 40
1
 40
1
 40
1
 10
100.763400
 20
126.158800
 30
0.0
 10
98.880870
 20
124.933300
 30
0.0
 10
98.458614
 20
124.651600
 30
0.0
 10
98.078147
 20
124.374700
 30
0.0
  0
SPLINE
  5
104
100
AcDbEntity
  8
0
 62
7
100
AcDbSpline
 70
8
 71
3
 72
8
 73
4
 74
0
 40
0
 40
0
 40
0
 40
0
 40
1
 40
1
 40
1
 40
1
 10
98.078147
 20
124.374700
 30
0.0
 10
97.842831
 20
124.201400
 30
0.0
 10
97.519546
 20
123.943800
 30
0.0
 10
97.356800
 20
123.801700
 30
0.0
  0
SPLINE
  5
105
100
AcDbEntity
  8
0
 62
7
100
AcDbSpline
 70
8
 71
3
 72
8
 73
4
 74
0
 40
0
 40
0
 40
0
 40
0
 40
1
 40
1
 40
1
 40
1
 10
97.356800
 20
123.801700
 30
0.0
 10
97.196256
 20
123.657300
 30
0.0
 10
96.943350
 20
123.433300
 30
0.0
 10
96.796002
 20
123.303400
 30
0.0
  0
SPLINE
  5
106
100
AcDbEntity
  8
0
 62
7
100
AcDbSpline
 70
8
 71
3
 72
8
 73
4
 74
0
 40
0
 40
0
 40
0
 40
0
 40
1
 40
1
 40
1
 40
1
 10
96.796002
 20
123.303400
 30
0.0
 10
96.503503
 20
123.043300
 30
0.0
 10
96.076852
 20
122.727900
 30
0.0
 10
95.326918
 20
122.219900
 30
0.0
  0
SPLINE
  5
107
100
AcDbEntity
  8
0
 62
7
100
AcDbSpline
 70
8
 71
3
 72
8
 73
4
 74
0
 40
0
 40
0
 40
0
 40
0
 40
1
 40
1
 40
1
 40
1
 10
95.326918
 20
122.219900
 30
0.0
 10
94.557184
 20
121.699800
 30
0.0
 10
94.460420
 20
121.610700
 30
0.0
 10
93.505955
 20
120.577800
 30
0.0
  0
SPLINE
  5
108
100
AcDbEntity
  8
0
 62
7
100
AcDbSpline
 70
8
 71
3
 72
8
 73
4
 74
0
 40
0
 40
0
 40
0
 40
0
 40
1
 40
1
 40
1
 40
1
 10
93.505955
 20
120.577800
 30
0.0
 10
93.039717
 20
120.074600
 30
0.0
 10
92.571282
 20
119.585900
 30
0.0
 10
92.461318
 20
119.489600
 30
0.0
  0
SPLINE
  5
109
100
AcDbEntity
  8
0
 62
7
100
AcDbSpline
 70
8
 71
3
 72
8
 73
4
 74
0
 40
0
 40
0
 40
0
 40
0
 40
1
 40
1
 40
1
 40
1
 10
92.461318
 20
119.489600
 30
0.0
 10
92.023675
 20
119.111500
 30
0.0
 10
91.676196
 20
118.909300
 30
0.0
 10
91.344112
 20
118.837100
 30
0.0
  0
SPLINE
  5
10a
100
AcDbEntity
  8
0
 62
7
100
AcDbSpline
 70
8
 71
3
 72
8
 73
4
 74
0
 40
0
 40
0
 40
0
 40
0
 40
1
 40
1
 40
1
 40
1
 10
91.344112
 20
118.837100
 30
0.0
 10
91.174773
 20
118.801100
 30
0.0
 10
91.161577
 20
118.801100
 30
0.0
 10
90.798707
 20
118.868100
 30
0.0
  0
SPLINE
  5
10b
100
AcDbEntity
  8
0
 62
7
100
AcDbSpline
 70
8
 71
3
 72
8
 73
4
 74
0
 40
0
 40
0
 40
0
 40
0
 40
1
 40
1
 40
1
 40
1
 10
90.798707
 20
118.868100
 30
0.0
 10
90.442428
 20
118.931100
 30
0.0
 10
90.200514
 20
118.940100
 30
0.0
 10
90.097148
 20
118.894100
 30
0.0
  0
SPLINE
  5
10c
100
AcDbEntity
  8
0
 62
7
100
AcDbSpline
 70
8
 71
3
 72
8
 73
4
 74
0
 40
0
 40
0
 40
0
 40
0
 40
1
 40
1
 40
1
 40
1
 10
90.097148
 20
118.894100
 30
0.0
 10
90.075168
 20
118.884100
 30
0.0
 10
90.050958
 20
118.904100
 30
0.0
 10
90.026778
 20
118.944100
 30
0.0
  0
SPLINE
  5
10d
100
AcDbEntity
  8
0
 62
7
100
AcDbSpline
 70
8
 71
3
 72
8
 73
4
 74
0
 40
0
 40
0
 40
0
 40
0
 40
1
 40
1
 40
1
 40
1
 10
90.026778
 20
118.944100
 30
0.0
 10
89.927818
 20
119.127100
 30
0.0
 10
89.496767
 20
119.789200
 30
0.0
 10
89.316425
 20
120.037200
 30
0.0
  0
SPLINE
  5
10e
100
AcDbEntity
  8
0
 62
7
100
AcDbSpline
 70
8
 71
3
 72
8
 73
4
 74
0
 40
0
 40
0
 40
0
 40
0
 40
1
 40
1
 40
1
 40
1
 10
89.316425
 20
120.037200
 30
0.0
 10
88.716040
 20
120.851000
 30
0.0
 10
88.098054
 20
121.282000
 30
0.0
 10
87.330523
 20
121.421700
 30
0.0
  0
SPLINE
  5
10f
100
AcDbEntity
  8
0
 62
7
100
AcDbSpline
 70
8
 71
3
 72
8
 73
4
 74
0
 40
0
 40
0
 40
0
 40
0
 40
1
 40
1
 40
1
 40
1
 10
87.330523
 20
121.421700
 30
0.0
 10
87.071014
 20
121.469700
 30
0.0
 10
86.442035
 20
121.476700
 30
0.0
 10
86.138544
 20
121.433700
 30
0.0
  0
SPLINE
  5
110
100
AcDbEntity
  8
0
 62
7
100
AcDbSpline
 70
8
 71
3
 72
8
 73
4
 74
0
 40
0
 40
0
 40
0
 40
0
 40
1
 40
1
 40
1
 40
1
 10
86.138544
 20
121.433700
 30
0.0
 10
85.843848
 20
121.392700
 30
0.0
 10
85.434788
 20
121.303700
 30
0.0
 10
85.049926
 20
121.192900
 30
0.0
  0
SPLINE
  5
111
100
AcDbEntity
  8
0
 62
7
100
AcDbSpline
 70
8
 71
3
 72
8
 73
4
 74
0
 40
0
 40
0
 40
0
 40
0
 40
1
 40
1
 40
1
 40
1
 10
85.049926
 20
121.192900
 30
0.0
 10
83.948113
 20
120.879900
 30
0.0
 10
83.574244
 20
120.781200
 30
0.0
 10
83.367516
 20
120.742700
 30
0.0
  0
SPLINE
  5
112
100
AcDbEntity
  8
0
 62
7
100
AcDbSpline
 70
8
 71
3
 72
8
 73
4
 74
0
 40
0
 40
0
 40
0
 40
0
 40
1
 40
1
 40
1
 40
1
 10
82.564799
 20
120.824500
 30
0.0
 10
80.768030
 20
121.212200
 30
0.0
 10
80.031285
 20
121.334900
 30
0.0
 10
79.155992
 20
121.380700
 30
0.0
  0
SPLINE
  5
113
100
AcDbEntity
  8
0
 62
7
100
AcDbSpline
 70
8
 71
3
 72
8
 73
4
 74
0
 40
0
 40
0
 40
0
 40
0
 40
1
 40
1
 40
1
 40
1
 10
79.155992
 20
121.380700
 30
0.0
 10
78.669962
 20
121.406700
 30
0.0
 10
78.076169
 20
121.380700
 30
0.0
 10
77.684710
 20
121.322700
 30
0.0
  0
SPLINE
  5
114
100
AcDbEntity
  8
0
 62
7
100
AcDbSpline
 70
8
 71
3
 72
8
 73
4
 74
0
 40
0
 40
0
 40
0
 40
0
 40
1
 40
1
 40
1
 40
1
 10
77.684710
 20
121.322700
 30
0.0
 10
77.552756
 20
121.303700
 30
0.0
 10
77.433996
 20
121.286700
 30
0.0
 10
77.423003
 20
121.286700
 30
0.0
  0
SPLINE
  5
115
100
AcDbEntity
  8
0
 62
7
100
AcDbSpline
 70
8
 71
3
 72
8
 73
4
 74
0
 40
0
 40
0
 40
0
 40
0
 40
1
 40
1
 40
1
 40
1
 10
77.423003
 20
121.286700
 30
0.0
 10
77.409803
 20
121.286700
 30
0.0
 10
77.405393
 20
121.286700
 30
0.0
 10
77.409803
 20
121.276700
 30
0.0
  0
SPLINE
  5
116
100
AcDbEntity
  8
0
 62
7
100
AcDbSpline
 70
8
 71
3
 72
8
 73
4
 74
0
 40
0
 40
0
 40
0
 40
0
 40
1
 40
1
 40
1
 40
1
 10
77.409803
 20
121.276700
 30
0.0
 10
77.414203
 20
121.266700
 30
0.0
 10
77.508763
 20
121.252700
 30
0.0
 10
77.616531
 20
121.237700
 30
0.0
  0
SPLINE
  5
117
100
AcDbEntity
  8
0
 62
7
100
AcDbSpline
 70
8
 71
3
 72
8
 73
4
 74
0
 40
0
 40
0
 40
0
 40
0
 40
1
 40
1
 40
1
 40
1
 10
77.616531
 20
121.237700
 30
0.0
 10
79.461682
 20
120.985000
 30
0.0
 10
80.684453
 20
120.700900
 30
0.0
 10
82.190926
 20
120.176000
 30
0.0
  0
SPLINE
  5
118
100
AcDbEntity
  8
0
 62
7
100
AcDbSpline
 70
8
 71
3
 72
8
 73
4
 74
0
 40
0
 40
0
 40
0
 40
0
 40
1
 40
1
 40
1
 40
1
 10
82.190926
 20
120.176000
 30
0.0
 10
83.268546
 20
119.800400
 30
0.0
 10
83.550046
 20
119.677500
 30
0.0
 10
83.818352
 20
119.470500
 30
0.0
  0
SPLINE
  5
119
100
AcDbEntity
  8
0
 62
7
100
AcDbSpline
 70
8
 71
3
 72
8
 73
4
 74
0
 40
0
 40
0
 40
0
 40
0
 40
1
 40
1
 40
1
 40
1
 10
83.818352
 20
119.470500
 30
0.0
 10
84.218611
 20
119.155100
 30
0.0
 10
84.579285
 20
118.546000
 30
0.0
 10
84.904772
 20
117.638200
 30
0.0
  0
SPLINE
  5
11a
100
AcDbEntity
  8
0
 62
7
100
AcDbSpline
 70
8
 71
3
 72
8
 73
4
 74
0
 40
0
 40
0
 40
0
 40
0
 40
1
 40
1
 40
1
 40
1
 10
84.904772
 20
117.638200
 30
0.0
 10
84.979552
 20
117.426400
 30
0.0
 10
85.082911
 20
117.139900
 30
0.0
 10
85.131293
 20
117.000300
 30
0.0
  0
SPLINE
  5
11b
100
AcDbEntity
  8
0
 62
7
100
AcDbSpline
 70
8
 71
3
 72
8
 73
4
 74
0
 40
0
 40
0
 40
0
 40
0
 40
1
 40
1
 40
1
 40
1
 10
85.131293
 20
117.000300
 30
0.0
 10
85.388600
 20
116.282700
 30
0.0
 10
85.804257
 20
115.524300
 30
0.0
 10
86.360661
 20
114.761100
 30
0.0
  0
SPLINE
  5
11c
100
AcDbEntity
  8
0
 62
7
100
AcDbSpline
 70
8
 71
3
 72
8
 73
4
 74
0
 40
0
 40
0
 40
0
 40
0
 40
1
 40
1
 40
1
 40
1
 10
86.360661
 20
114.761100
 30
0.0
 10
86.798310
 20
114.161600
 30
0.0
 10
86.903868
 20
113.976200
 30
0.0
 10
87.310726
 20
113.087700
 30
0.0
  0
SPLINE
  5
11d
100
AcDbEntity
  8
0
 62
7
100
AcDbSpline
 70
8
 71
3
 72
8
 73
4
 74
0
 40
0
 40
0
 40
0
 40
0
 40
1
 40
1
 40
1
 40
1
 10
87.310726
 20
113.087700
 30
0.0
 10
87.757170
 20
112.119800
 30
0.0
 10
87.838541
 20
111.977800
 30
0.0
 10
88.449928
 20
111.108700
 30
0.0
  0
SPLINE
  5
11e
100
AcDbEntity
  8
0
 62
7
100
AcDbSpline
 70
8
 71
3
 72
8
 73
4
 74
0
 40
0
 40
0
 40
0
 40
0
 40
1
 40
1
 40
1
 40
1
 10
88.449928
 20
111.108700
 30
0.0
 10
88.643460
 20
110.834200
 30
0.0
 10
88.869981
 20
110.497100
 30
0.0
 10
88.953549
 20
110.359800
 30
0.0
  0
SPLINE
  5
11f
100
AcDbEntity
  8
0
 62
7
100
AcDbSpline
 70
8
 71
3
 72
8
 73
4
 74
0
 40
0
 40
0
 40
0
 40
0
 40
1
 40
1
 40
1
 40
1
 10
88.953549
 20
110.359800
 30
0.0
 10
89.111895
 20
110.099800
 30
0.0
 10
89.327418
 20
109.661600
 30
0.0
 10
89.327418
 20
109.601400
 30
0.0
  0
SPLINE
  5
120
100
AcDbEntity
  8
0
 62
7
100
AcDbSpline
 70
8
 71
3
 72
8
 73
4
 74
0
 40
0
 40
0
 40
0
 40
0
 40
1
 40
1
 40
1
 40
1
 10
89.327418
 20
109.601400
 30
0.0
 10
89.327418
 20
109.582400
 30
0.0
 10
89.230648
 20
109.502400
 30
0.0
 10
89.114093
 20
109.425700
 30
0.0
  0
SPLINE
  5
121
100
AcDbEntity
  8
0
 62
7
100
AcDbSpline
 70
8
 71
3
 72
8
 73
4
 74
0
 40
0
 40
0
 40
0
 40
0
 40
1
 40
1
 40
1
 40
1
 10
89.114093
 20
109.425700
 30
0.0
 10
88.804004
 20
109.225800
 30
0.0
 10
88.324571
 20
108.869500
 30
0.0
 10
88.054069
 20
108.638400
 30
0.0
  0
SPLINE
  5
122
100
AcDbEntity
  8
0
 62
7
100
AcDbSpline
 70
8
 71
3
 72
8
 73
4
 74
0
 40
0
 40
0
 40
0
 40
0
 40
1
 40
1
 40
1
 40
1
 10
88.054069
 20
108.638400
 30
0.0
 10
87.785759
 20
108.412000
 30
0.0
 10
87.172174
 20
107.752300
 30
0.0
 10
86.987441
 20
107.497100
 30
0.0
  0
SPLINE
  5
123
100
AcDbEntity
  8
0
 62
7
100
AcDbSpline
 70
8
 71
3
 72
8
 73
4
 74
0
 40
0
 40
0
 40
0
 40
0
 40
1
 40
1
 40
1
 40
1
 10
86.987441
 20
107.497100
 30
0.0
 10
86.549793
 20
106.885600
 30
0.0
 10
86.250697
 20
106.223400
 30
0.0
 10
86.052769
 20
105.421700
 30
0.0
  0
LWPOLYLINE
  5
124
100
AcDbEntity
  8
0
 62
7
100
AcDbPolyline
 90
3
 70
0
 10
83.367516
 20
120.742700
 30
0.0
 10
83.136596
 20
120.701700
 30
0.0
 10
82.564799
 20
120.824500
 30
0.0
  0
SPLINE
  5
125
100
AcDbEntity
  8
0
 62
7
100
AcDbSpline
 70
8
 71
3
 72
8
 73
4
 74
0
 40
0
 40
0
 40
0
 40
0
 40
1
 40
1
 40
1
 40
1
 10
86.125325
 20
105.257500
 30
0.0
 10
86.189105
 20
105.267500
 30
0.0
 10
86.334256
 20
105.312500
 30
0.0
 10
86.448615
 20
105.365800
 30
0.0
  0
SPLINE
  5
126
100
AcDbEntity
  8
0
 62
7
100
AcDbSpline
 70
8
 71
3
 72
8
 73
4
 74
0
 40
0
 40
0
 40
0
 40
0
 40
1
 40
1
 40
1
 40
1
 10
86.448615
 20
105.365800
 30
0.0
 10
86.670736
 20
105.469400
 30
0.0
 10
86.785095
 20
105.503000
 30
0.0
 10
86.820282
 20
105.479000
 30
0.0
  0
SPLINE
  5
127
100
AcDbEntity
  8
0
 62
7
100
AcDbSpline
 70
8
 71
3
 72
8
 73
4
 74
0
 40
0
 40
0
 40
0
 40
0
 40
1
 40
1
 40
1
 40
1
 10
86.820282
 20
105.479000
 30
0.0
 10
86.833482
 20
105.469000
 30
0.0
 10
86.798302
 20
105.392000
 30
0.0
 10
86.734512
 20
105.291200
 30
0.0
  0
SPLINE
  5
128
100
AcDbEntity
  8
0
 62
7
100
AcDbSpline
 70
8
 71
3
 72
8
 73
4
 74
0
 40
0
 40
0
 40
0
 40
0
 40
1
 40
1
 40
1
 40
1
 10
86.734512
 20
105.291200
 30
0.0
 10
86.560773
 20
105.007100
 30
0.0
 10
86.340850
 20
104.568900
 30
0.0
 10
86.149515
 20
104.118700
 30
0.0
  0
SPLINE
  5
129
100
AcDbEntity
  8
0
 62
7
100
AcDbSpline
 70
8
 71
3
 72
8
 73
4
 74
0
 40
0
 40
0
 40
0
 40
0
 40
1
 40
1
 40
1
 40
1
 10
86.149515
 20
104.118700
 30
0.0
 10
85.944985
 20
103.634700
 30
0.0
 10
85.909799
 20
103.543200
 30
0.0
 10
85.922994
 20
103.528800
 30
0.0
  0
SPLINE
  5
12a
100
AcDbEntity
  8
0
 62
7
100
AcDbSpline
 70
8
 71
3
 72
8
 73
4
 74
0
 40
0
 40
0
 40
0
 40
0
 40
1
 40
1
 40
1
 40
1
 10
85.922994
 20
103.528800
 30
0.0
 10
85.927394
 20
103.518800
 30
0.0
 10
85.997774
 20
103.506800
 30
0.0
 10
86.076940
 20
103.494800
 30
0.0
  0
SPLINE
  5
12b
100
AcDbEntity
  8
0
 62
7
100
AcDbSpline
 70
8
 71
3
 72
8
 73
4
 74
0
 40
0
 40
0
 40
0
 40
0
 40
1
 40
1
 40
1
 40
1
 10
86.076940
 20
103.494800
 30
0.0
 10
86.230886
 20
103.470800
 30
0.0
 10
86.455209
 20
103.484800
 30
0.0
 10
86.884058
 20
103.550800
 30
0.0
  0
SPLINE
  5
12c
100
AcDbEntity
  8
0
 62
7
100
AcDbSpline
 70
8
 71
3
 72
8
 73
4
 74
0
 40
0
 40
0
 40
0
 40
0
 40
1
 40
1
 40
1
 40
1
 10
86.884058
 20
103.550800
 30
0.0
 10
87.022610
 20
103.572800
 30
0.0
 10
87.163360
 20
103.589800
 30
0.0
 10
87.196349
 20
103.589800
 30
0.0
  0
SPLINE
  5
12d
100
AcDbEntity
  8
0
 62
7
100
AcDbSpline
 70
8
 71
3
 72
8
 73
4
 74
0
 40
0
 40
0
 40
0
 40
0
 40
1
 40
1
 40
1
 40
1
 10
87.196349
 20
103.589800
 30
0.0
 10
87.255729
 20
103.589800
 30
0.0
 10
87.257929
 20
103.589800
 30
0.0
 10
87.233749
 20
103.514800
 30
0.0
  0
SPLINE
  5
12e
100
AcDbEntity
  8
0
 62
7
100
AcDbSpline
 70
8
 71
3
 72
8
 73
4
 74
0
 40
0
 40
0
 40
0
 40
0
 40
1
 40
1
 40
1
 40
1
 10
87.233749
 20
103.514800
 30
0.0
 10
87.220549
 20
103.473800
 30
0.0
 10
87.112792
 20
103.223500
 30
0.0
 10
86.994032
 20
102.961000
 30
0.0
  0
SPLINE
  5
12f
100
AcDbEntity
  8
0
 62
7
100
AcDbSpline
 70
8
 71
3
 72
8
 73
4
 74
0
 40
0
 40
0
 40
0
 40
0
 40
1
 40
1
 40
1
 40
1
 10
86.994032
 20
102.961000
 30
0.0
 10
86.767512
 20
102.457800
 30
0.0
 10
86.668545
 20
102.183400
 30
0.0
 10
86.624564
 20
101.940200
 30
0.0
  0
SPLINE
  5
130
100
AcDbEntity
  8
0
 62
7
100
AcDbSpline
 70
8
 71
3
 72
8
 73
4
 74
0
 40
0
 40
0
 40
0
 40
0
 40
1
 40
1
 40
1
 40
1
 10
86.624564
 20
101.940200
 30
0.0
 10
86.609194
 20
101.860200
 30
0.0
 10
86.591574
 20
101.776500
 30
0.0
 10
86.587164
 20
101.754800
 30
0.0
  0
SPLINE
  5
131
100
AcDbEntity
  8
0
 62
7
100
AcDbSpline
 70
8
 71
3
 72
8
 73
4
 74
0
 40
0
 40
0
 40
0
 40
0
 40
1
 40
1
 40
1
 40
1
 10
86.587164
 20
101.754800
 30
0.0
 10
86.576154
 20
101.715800
 30
0.0
 10
86.593764
 20
101.711800
 30
0.0
 10
86.727914
 20
101.711800
 30
0.0
  0
SPLINE
  5
132
100
AcDbEntity
  8
0
 62
7
100
AcDbSpline
 70
8
 71
3
 72
8
 73
4
 74
0
 40
0
 40
0
 40
0
 40
0
 40
1
 40
1
 40
1
 40
1
 10
86.727914
 20
101.711800
 30
0.0
 10
87.031406
 20
101.711800
 30
0.0
 10
87.339297
 20
101.863500
 30
0.0
 10
87.864914
 20
102.265600
 30
0.0
  0
SPLINE
  5
133
100
AcDbEntity
  8
0
 62
7
100
AcDbSpline
 70
8
 71
3
 72
8
 73
4
 74
0
 40
0
 40
0
 40
0
 40
0
 40
1
 40
1
 40
1
 40
1
 10
87.864914
 20
102.265600
 30
0.0
 10
88.186000
 20
102.511200
 30
0.0
 10
88.427915
 20
102.679700
 30
0.0
 10
88.441111
 20
102.667700
 30
0.0
  0
SPLINE
  5
134
100
AcDbEntity
  8
0
 62
7
100
AcDbSpline
 70
8
 71
3
 72
8
 73
4
 74
0
 40
0
 40
0
 40
0
 40
0
 40
1
 40
1
 40
1
 40
1
 10
88.441111
 20
102.667700
 30
0.0
 10
88.443111
 20
102.657700
 30
0.0
 10
88.416901
 20
102.568700
 30
0.0
 10
88.379531
 20
102.455800
 30
0.0
  0
SPLINE
  5
135
100
AcDbEntity
  8
0
 62
7
100
AcDbSpline
 70
8
 71
3
 72
8
 73
4
 74
0
 40
0
 40
0
 40
0
 40
0
 40
1
 40
1
 40
1
 40
1
 10
88.379531
 20
102.455800
 30
0.0
 10
88.153011
 20
101.781600
 30
0.0
 10
88.082634
 20
101.367500
 30
0.0
 10
88.102427
 20
100.847500
 30
0.0
  0
SPLINE
  5
136
100
AcDbEntity
  8
0
 62
7
100
AcDbSpline
 70
8
 71
3
 72
8
 73
4
 74
0
 40
0
 40
0
 40
0
 40
0
 40
1
 40
1
 40
1
 40
1
 10
88.102427
 20
100.847500
 30
0.0
 10
88.117807
 20
100.445300
 30
0.0
 10
88.126637
 20
100.411600
 30
0.0
 10
88.205793
 20
100.411600
 30
0.0
  0
SPLINE
  5
137
100
AcDbEntity
  8
0
 62
7
100
AcDbSpline
 70
8
 71
3
 72
8
 73
4
 74
0
 40
0
 40
0
 40
0
 40
0
 40
1
 40
1
 40
1
 40
1
 10
88.205793
 20
100.411600
 30
0.0
 10
88.291563
 20
100.411600
 30
0.0
 10
88.529077
 20
100.500600
 30
0.0
 10
88.665433
 20
100.585000
 30
0.0
  0
SPLINE
  5
138
100
AcDbEntity
  8
0
 62
7
100
AcDbSpline
 70
8
 71
3
 72
8
 73
4
 74
0
 40
0
 40
0
 40
0
 40
0
 40
1
 40
1
 40
1
 40
1
 10
88.665433
 20
100.585000
 30
0.0
 10
88.841369
 20
100.695800
 30
0.0
 10
89.078887
 20
100.912400
 30
0.0
 10
89.239432
 20
101.112300
 30
0.0
  0
SPLINE
  5
139
100
AcDbEntity
  8
0
 62
7
100
AcDbSpline
 70
8
 71
3
 72
8
 73
4
 74
0
 40
0
 40
0
 40
0
 40
0
 40
1
 40
1
 40
1
 40
1
 10
89.239432
 20
101.112300
 30
0.0
 10
89.490141
 20
101.422900
 30
0.0
 10
89.776041
 20
101.738300
 30
0.0
 10
89.872804
 20
101.812900
 30
0.0
  0
LWPOLYLINE
  5
13a
100
AcDbEntity
  8
0
 62
7
100
AcDbPolyline
 90
3
 70
0
 10
86.052769
 20
105.421700
 30
0.0
 10
86.008769
 20
105.243500
 30
0.0
 10
86.125325
 20
105.257500
 30
0.0
  0
SPLINE
  5
13b
100
AcDbEntity
  8
0
 62
7
100
AcDbSpline
 70
8
 71
3
 72
8
 73
4
 74
0
 40
0
 40
0
 40
0
 40
0
 40
1
 40
1
 40
1
 40
1
 10
89.965174
 20
101.367700
 30
0.0
 10
89.965174
 20
100.866900
 30
0.0
 10
89.998164
 20
100.501000
 30
0.0
 10
90.053134
 20
100.387800
 30
0.0
  0
SPLINE
  5
13c
100
AcDbEntity
  8
0
 62
7
100
AcDbSpline
 70
8
 71
3
 72
8
 73
4
 74
0
 40
0
 40
0
 40
0
 40
0
 40
1
 40
1
 40
1
 40
1
 10
90.053134
 20
100.387800
 30
0.0
 10
90.090534
 20
100.310800
 30
0.0
 10
90.165296
 20
100.361800
 30
0.0
 10
90.407216
 20
100.628500
 30
0.0
  0
SPLINE
  5
13d
100
AcDbEntity
  8
0
 62
7
100
AcDbSpline
 70
8
 71
3
 72
8
 73
4
 74
0
 40
0
 40
0
 40
0
 40
0
 40
1
 40
1
 40
1
 40
1
 10
90.407216
 20
100.628500
 30
0.0
 10
90.723902
 20
100.975200
 30
0.0
 10
90.776684
 20
100.987300
 30
0.0
 10
90.748091
 20
100.700500
 30
0.0
  0
SPLINE
  5
13e
100
AcDbEntity
  8
0
 62
7
100
AcDbSpline
 70
8
 71
3
 72
8
 73
4
 74
0
 40
0
 40
0
 40
0
 40
0
 40
1
 40
1
 40
1
 40
1
 10
90.748091
 20
100.700500
 30
0.0
 10
90.730481
 20
100.541600
 30
0.0
 10
90.756791
 20
100.459700
 30
0.0
 10
90.820671
 20
100.459700
 30
0.0
  0
SPLINE
  5
13f
100
AcDbEntity
  8
0
 62
7
100
AcDbSpline
 70
8
 71
3
 72
8
 73
4
 74
0
 40
0
 40
0
 40
0
 40
0
 40
1
 40
1
 40
1
 40
1
 10
90.820671
 20
100.459700
 30
0.0
 10
90.849241
 20
100.459700
 30
0.0
 10
90.877861
 20
100.507700
 30
0.0
 10
90.921840
 20
100.635500
 30
0.0
  0
SPLINE
  5
140
100
AcDbEntity
  8
0
 62
7
100
AcDbSpline
 70
8
 71
3
 72
8
 73
4
 74
0
 40
0
 40
0
 40
0
 40
0
 40
1
 40
1
 40
1
 40
1
 10
90.921840
 20
100.635500
 30
0.0
 10
91.194540
 20
101.403500
 30
0.0
 10
91.625592
 20
102.181200
 30
0.0
 10
92.538273
 20
103.553600
 30
0.0
  0
SPLINE
  5
141
100
AcDbEntity
  8
0
 62
7
100
AcDbSpline
 70
8
 71
3
 72
8
 73
4
 74
0
 40
0
 40
0
 40
0
 40
0
 40
1
 40
1
 40
1
 40
1
 10
92.538273
 20
103.553600
 30
0.0
 10
92.786785
 20
103.924400
 30
0.0
 10
93.101274
 20
104.413200
 30
0.0
 10
93.239826
 20
104.637000
 30
0.0
  0
SPLINE
  5
142
100
AcDbEntity
  8
0
 62
7
100
AcDbSpline
 70
8
 71
3
 72
8
 73
4
 74
0
 40
0
 40
0
 40
0
 40
0
 40
1
 40
1
 40
1
 40
1
 10
93.239826
 20
104.637000
 30
0.0
 10
93.378375
 20
104.863400
 30
0.0
 10
93.494936
 20
105.051100
 30
0.0
 10
93.499336
 20
105.056000
 30
0.0
  0
SPLINE
  5
143
100
AcDbEntity
  8
0
 62
7
100
AcDbSpline
 70
8
 71
3
 72
8
 73
4
 74
0
 40
0
 40
0
 40
0
 40
0
 40
1
 40
1
 40
1
 40
1
 10
93.499336
 20
105.056000
 30
0.0
 10
93.501336
 20
105.066000
 30
0.0
 10
93.525726
 20
105.046000
 30
0.0
 10
93.549916
 20
105.022000
 30
0.0
  0
SPLINE
  5
144
100
AcDbEntity
  8
0
 62
7
100
AcDbSpline
 70
8
 71
3
 72
8
 73
4
 74
0
 40
0
 40
0
 40
0
 40
0
 40
1
 40
1
 40
1
 40
1
 10
93.549916
 20
105.022000
 30
0.0
 10
93.589506
 20
104.983000
 30
0.0
 10
93.596096
 20
104.983000
 30
0.0
 10
93.646686
 20
105.022000
 30
0.0
  0
SPLINE
  5
145
100
AcDbEntity
  8
0
 62
7
100
AcDbSpline
 70
8
 71
3
 72
8
 73
4
 74
0
 40
0
 40
0
 40
0
 40
0
 40
1
 40
1
 40
1
 40
1
 10
93.646686
 20
105.022000
 30
0.0
 10
93.754452
 20
105.099000
 30
0.0
 10
93.925989
 20
105.400000
 30
0.0
 10
94.286663
 20
106.136800
 30
0.0
  0
SPLINE
  5
146
100
AcDbEntity
  8
0
 62
7
100
AcDbSpline
 70
8
 71
3
 72
8
 73
4
 74
0
 40
0
 40
0
 40
0
 40
0
 40
1
 40
1
 40
1
 40
1
 10
94.286663
 20
106.136800
 30
0.0
 10
94.416420
 20
106.399200
 30
0.0
 10
94.530779
 20
106.627900
 30
0.0
 10
94.543975
 20
106.640000
 30
0.0
  0
SPLINE
  5
147
100
AcDbEntity
  8
0
 62
7
100
AcDbSpline
 70
8
 71
3
 72
8
 73
4
 74
0
 40
0
 40
0
 40
0
 40
0
 40
1
 40
1
 40
1
 40
1
 10
94.543975
 20
106.640000
 30
0.0
 10
94.557175
 20
106.654000
 30
0.0
 10
94.559345
 20
106.618000
 30
0.0
 10
94.548375
 20
106.541000
 30
0.0
  0
SPLINE
  5
148
100
AcDbEntity
  8
0
 62
7
100
AcDbSpline
 70
8
 71
3
 72
8
 73
4
 74
0
 40
0
 40
0
 40
0
 40
0
 40
1
 40
1
 40
1
 40
1
 10
94.548375
 20
106.541000
 30
0.0
 10
94.539675
 20
106.457000
 30
0.0
 10
94.541775
 20
106.411100
 30
0.0
 10
94.561575
 20
106.399000
 30
0.0
  0
SPLINE
  5
149
100
AcDbEntity
  8
0
 62
7
100
AcDbSpline
 70
8
 71
3
 72
8
 73
4
 74
0
 40
0
 40
0
 40
0
 40
0
 40
1
 40
1
 40
1
 40
1
 10
94.561575
 20
106.399000
 30
0.0
 10
94.596745
 20
106.375000
 30
0.0
 10
94.598975
 20
106.380000
 30
0.0
 10
94.684729
 20
106.642100
 30
0.0
  0
SPLINE
  5
14a
100
AcDbEntity
  8
0
 62
7
100
AcDbSpline
 70
8
 71
3
 72
8
 73
4
 74
0
 40
0
 40
0
 40
0
 40
0
 40
1
 40
1
 40
1
 40
1
 10
94.684729
 20
106.642100
 30
0.0
 10
95.144369
 20
108.050600
 30
0.0
 10
95.278521
 20
109.863600
 30
0.0
 10
95.034410
 20
111.407000
 30
0.0
  0
SPLINE
  5
14b
100
AcDbEntity
  8
0
 62
7
100
AcDbSpline
 70
8
 71
3
 72
8
 73
4
 74
0
 40
0
 40
0
 40
0
 40
0
 40
1
 40
1
 40
1
 40
1
 10
95.034410
 20
111.407000
 30
0.0
 10
94.990410
 20
111.681400
 30
0.0
 10
94.884859
 20
112.167800
 30
0.0
 10
94.812288
 20
112.415800
 30
0.0
  0
LWPOLYLINE
  5
14c
100
AcDbEntity
  8
0
 62
7
100
AcDbPolyline
 90
3
 70
0
 10
89.872804
 20
101.812900
 30
0.0
 10
89.965174
 20
101.882900
 30
0.0
 10
89.965174
 20
101.367700
 30
0.0
  0
SPLINE
  5
14d
100
AcDbEntity
  8
0
 62
7
100
AcDbSpline
 70
8
 71
3
 72
8
 73
4
 74
0
 40
0
 40
0
 40
0
 40
0
 40
1
 40
1
 40
1
 40
1
 10
94.829878
 20
112.740800
 30
0.0
 10
94.939842
 20
112.943100
 30
0.0
 10
95.243334
 20
113.265700
 30
0.0
 10
95.496245
 20
113.446300
 30
0.0
  0
SPLINE
  5
14e
100
AcDbEntity
  8
0
 62
7
100
AcDbSpline
 70
8
 71
3
 72
8
 73
4
 74
0
 40
0
 40
0
 40
0
 40
0
 40
1
 40
1
 40
1
 40
1
 10
95.496245
 20
113.446300
 30
0.0
 10
95.746955
 20
113.626800
 30
0.0
 10
95.951485
 20
113.740000
 30
0.0
 10
96.560670
 20
114.045800
 30
0.0
  0
SPLINE
  5
14f
100
AcDbEntity
  8
0
 62
7
100
AcDbSpline
 70
8
 71
3
 72
8
 73
4
 74
0
 40
0
 40
0
 40
0
 40
0
 40
1
 40
1
 40
1
 40
1
 10
96.560670
 20
114.045800
 30
0.0
 10
97.062094
 20
114.298600
 30
0.0
 10
97.301810
 20
114.435800
 30
0.0
 10
97.530534
 20
114.604400
 30
0.0
  0
SPLINE
  5
150
100
AcDbEntity
  8
0
 62
7
100
AcDbSpline
 70
8
 71
3
 72
8
 73
4
 74
0
 40
0
 40
0
 40
0
 40
0
 40
1
 40
1
 40
1
 40
1
 10
97.530534
 20
114.604400
 30
0.0
 10
97.728461
 20
114.748800
 30
0.0
 10
98.005567
 20
115.037800
 30
0.0
 10
98.115526
 20
115.213500
 30
0.0
  0
SPLINE
  5
151
100
AcDbEntity
  8
0
 62
7
100
AcDbSpline
 70
8
 71
3
 72
8
 73
4
 74
0
 40
0
 40
0
 40
0
 40
0
 40
1
 40
1
 40
1
 40
1
 10
98.115526
 20
115.213500
 30
0.0
 10
98.181506
 20
115.319500
 30
0.0
 10
98.247481
 20
115.374800
 30
0.0
 10
98.484999
 20
115.538600
 30
0.0
  0
SPLINE
  5
152
100
AcDbEntity
  8
0
 62
7
100
AcDbSpline
 70
8
 71
3
 72
8
 73
4
 74
0
 40
0
 40
0
 40
0
 40
0
 40
1
 40
1
 40
1
 40
1
 10
98.484999
 20
115.538600
 30
0.0
 10
99.080988
 20
115.945500
 30
0.0
 10
99.531827
 20
116.330700
 30
0.0
 10
99.945283
 20
116.785700
 30
0.0
  0
SPLINE
  5
153
100
AcDbEntity
  8
0
 62
7
100
AcDbSpline
 70
8
 71
3
 72
8
 73
4
 74
0
 40
0
 40
0
 40
0
 40
0
 40
1
 40
1
 40
1
 40
1
 10
99.945283
 20
116.785700
 30
0.0
 10
100.152010
 20
117.014500
 30
0.0
 10
100.191600
 20
117.048200
 30
0.0
 10
100.268570
 20
117.060200
 30
0.0
  0
SPLINE
  5
154
100
AcDbEntity
  8
0
 62
7
100
AcDbSpline
 70
8
 71
3
 72
8
 73
4
 74
0
 40
0
 40
0
 40
0
 40
0
 40
1
 40
1
 40
1
 40
1
 10
100.268570
 20
117.060200
 30
0.0
 10
100.402720
 20
117.077200
 30
0.0
 10
100.602860
 20
117.180600
 30
0.0
 10
100.701810
 20
117.284100
 30
0.0
  0
SPLINE
  5
155
100
AcDbEntity
  8
0
 62
7
100
AcDbSpline
 70
8
 71
3
 72
8
 73
4
 74
0
 40
0
 40
0
 40
0
 40
0
 40
1
 40
1
 40
1
 40
1
 10
100.701810
 20
117.284100
 30
0.0
 10
100.750210
 20
117.337100
 30
0.0
 10
100.989920
 20
117.628400
 30
0.0
 10
101.236220
 20
117.931800
 30
0.0
  0
SPLINE
  5
156
100
AcDbEntity
  8
0
 62
7
100
AcDbSpline
 70
8
 71
3
 72
8
 73
4
 74
0
 40
0
 40
0
 40
0
 40
0
 40
1
 40
1
 40
1
 40
1
 10
101.236220
 20
117.931800
 30
0.0
 10
101.779440
 20
118.608400
 30
0.0
 10
102.049940
 20
118.897200
 30
0.0
 10
102.441400
 20
119.215100
 30
0.0
  0
SPLINE
  5
157
100
AcDbEntity
  8
0
 62
7
100
AcDbSpline
 70
8
 71
3
 72
8
 73
4
 74
0
 40
0
 40
0
 40
0
 40
0
 40
1
 40
1
 40
1
 40
1
 10
102.441400
 20
119.215100
 30
0.0
 10
102.606350
 20
119.349900
 30
0.0
 10
102.874650
 20
119.566600
 30
0.0
 10
103.035200
 20
119.699000
 30
0.0
  0
SPLINE
  5
158
100
AcDbEntity
  8
0
 62
7
100
AcDbSpline
 70
8
 71
3
 72
8
 73
4
 74
0
 40
0
 40
0
 40
0
 40
0
 40
1
 40
1
 40
1
 40
1
 10
103.035200
 20
119.699000
 30
0.0
 10
103.554220
 20
120.122800
 30
0.0
 10
103.818130
 20
120.409300
 30
0.0
 10
104.053440
 20
120.801800
 30
0.0
  0
SPLINE
  5
159
100
AcDbEntity
  8
0
 62
7
100
AcDbSpline
 70
8
 71
3
 72
8
 73
4
 74
0
 40
0
 40
0
 40
0
 40
0
 40
1
 40
1
 40
1
 40
1
 10
104.053440
 20
120.801800
 30
0.0
 10
104.191990
 20
121.028000
 30
0.0
 10
104.290960
 20
121.252000
 30
0.0
 10
104.260170
 20
121.261600
 30
0.0
  0
SPLINE
  5
15a
100
AcDbEntity
  8
0
 62
7
100
AcDbSpline
 70
8
 71
3
 72
8
 73
4
 74
0
 40
0
 40
0
 40
0
 40
0
 40
1
 40
1
 40
1
 40
1
 10
104.260170
 20
121.261600
 30
0.0
 10
104.187570
 20
121.290600
 30
0.0
 10
101.667280
 20
120.852300
 30
0.0
 10
101.414370
 20
120.768100
 30
0.0
  0
SPLINE
  5
15b
100
AcDbEntity
  8
0
 62
7
100
AcDbSpline
 70
8
 71
3
 72
8
 73
4
 74
0
 40
0
 40
0
 40
0
 40
0
 40
1
 40
1
 40
1
 40
1
 10
101.414370
 20
120.768100
 30
0.0
 10
101.381370
 20
120.758100
 30
0.0
 10
101.390170
 20
120.782100
 30
0.0
 10
101.456170
 20
120.883600
 30
0.0
  0
SPLINE
  5
15c
100
AcDbEntity
  8
0
 62
7
100
AcDbSpline
 70
8
 71
3
 72
8
 73
4
 74
0
 40
0
 40
0
 40
0
 40
0
 40
1
 40
1
 40
1
 40
1
 10
101.456170
 20
120.883600
 30
0.0
 10
101.880620
 20
121.521600
 30
0.0
 10
102.025770
 20
121.849100
 30
0.0
 10
102.192910
 20
122.549700
 30
0.0
  0
SPLINE
  5
15d
100
AcDbEntity
  8
0
 62
7
100
AcDbSpline
 70
8
 71
3
 72
8
 73
4
 74
0
 40
0
 40
0
 40
0
 40
0
 40
1
 40
1
 40
1
 40
1
 10
102.192910
 20
122.549700
 30
0.0
 10
102.252310
 20
122.797700
 30
0.0
 10
102.263210
 20
122.817000
 30
0.0
 10
102.351250
 20
122.898900
 30
0.0
  0
SPLINE
  5
15e
100
AcDbEntity
  8
0
 62
7
100
AcDbSpline
 70
8
 71
3
 72
8
 73
4
 74
0
 40
0
 40
0
 40
0
 40
0
 40
1
 40
1
 40
1
 40
1
 10
102.351250
 20
122.898900
 30
0.0
 10
102.672340
 20
123.190200
 30
0.0
 10
102.826280
 20
123.481500
 30
0.0
 10
102.830690
 20
123.806500
 30
0.0
  0
SPLINE
  5
15f
100
AcDbEntity
  8
0
 62
7
100
AcDbSpline
 70
8
 71
3
 72
8
 73
4
 74
0
 40
0
 40
0
 40
0
 40
0
 40
1
 40
1
 40
1
 40
1
 10
102.830690
 20
123.806500
 30
0.0
 10
102.832690
 20
123.895500
 30
0.0
 10
102.843890
 20
123.912500
 30
0.0
 10
103.006630
 20
124.064100
 30
0.0
  0
SPLINE
  5
160
100
AcDbEntity
  8
0
 62
7
100
AcDbSpline
 70
8
 71
3
 72
8
 73
4
 74
0
 40
0
 40
0
 40
0
 40
0
 40
1
 40
1
 40
1
 40
1
 10
103.006630
 20
124.064100
 30
0.0
 10
103.101130
 20
124.153100
 30
0.0
 10
103.283730
 20
124.353100
 30
0.0
 10
103.411280
 20
124.507200
 30
0.0
  0
SPLINE
  5
161
100
AcDbEntity
  8
0
 62
7
100
AcDbSpline
 70
8
 71
3
 72
8
 73
4
 74
0
 40
0
 40
0
 40
0
 40
0
 40
1
 40
1
 40
1
 40
1
 10
103.411280
 20
124.507200
 30
0.0
 10
103.677390
 20
124.825000
 30
0.0
 10
104.592270
 20
126.040800
 30
0.0
 10
104.658240
 20
126.166100
 30
0.0
  0
SPLINE
  5
162
100
AcDbEntity
  8
0
 62
7
100
AcDbSpline
 70
8
 71
3
 72
8
 73
4
 74
0
 40
0
 40
0
 40
0
 40
0
 40
1
 40
1
 40
1
 40
1
 10
104.658240
 20
126.166100
 30
0.0
 10
104.682440
 20
126.211100
 30
0.0
 10
104.717640
 20
126.349000
 30
0.0
 10
104.735240
 20
126.471800
 30
0.0
  0
SPLINE
  5
163
100
AcDbEntity
  8
0
 62
7
100
AcDbSpline
 70
8
 71
3
 72
8
 73
4
 74
0
 40
0
 40
0
 40
0
 40
0
 40
1
 40
1
 40
1
 40
1
 10
104.735240
 20
126.471800
 30
0.0
 10
104.776940
 20
126.760800
 30
0.0
 10
104.845200
 20
126.914900
 30
0.0
 10
105.093710
 20
127.285700
 30
0.0
  0
SPLINE
  5
164
100
AcDbEntity
  8
0
 62
7
100
AcDbSpline
 70
8
 71
3
 72
8
 73
4
 74
0
 40
0
 40
0
 40
0
 40
0
 40
1
 40
1
 40
1
 40
1
 10
105.093710
 20
127.285700
 30
0.0
 10
105.458780
 20
127.829800
 30
0.0
 10
105.555550
 20
128.087400
 30
0.0
 10
105.500570
 20
128.390700
 30
0.0
  0
LWPOLYLINE
  5
165
100
AcDbEntity
  8
0
 62
7
100
AcDbPolyline
 90
3
 70
0
 10
94.812288
 20
112.415800
 30
0.0
 10
94.757298
 20
112.606000
 30
0.0
 10
94.829878
 20
112.740800
 30
0.0
  0
SPLINE
  5
166
100
AcDbEntity
  8
0
 62
7
100
AcDbSpline
 70
8
 71
3
 72
8
 73
4
 74
0
 40
0
 40
0
 40
0
 40
0
 40
1
 40
1
 40
1
 40
1
 10
105.296030
 20
128.465700
 30
0.0
 10
105.192660
 20
128.465700
 30
0.0
 10
105.036520
 20
128.453700
 30
0.0
 10
104.950750
 20
128.443700
 30
0.0
  0
LWPOLYLINE
  5
167
100
AcDbEntity
  8
0
 62
7
100
AcDbPolyline
 90
3
 70
0
 10
105.500570
 20
128.390700
 30
0.0
 10
105.487370
 20
128.465700
 30
0.0
 10
105.296030
 20
128.465700
 30
0.0
  0
LWPOLYLINE
  5
168
100
AcDbEntity
  8
0
 62
7
100
AcDbPolyline
 90
2
 70
0
 10
104.950750
 20
128.443700
 30
0.0
 10
104.950740
 20
128.438900
 30
0.0
  0
ENDSEC
  0
SECTION
  2
OBJECTS
  0
DICTIONARY
  5
C
330
0
100
AcDbDictionary
  3
ACAD_GROUP
350
D
  3
ACAD_MLINESTYLE
350
17
  0
DICTIONARY
  5
D
330
C
100
AcDbDictionary
  0
DICTIONARY
  5
1A
330
C
100
AcDbDictionary
  0
DICTIONARY
  5
17
330
C
100
AcDbDictionary
  3
STANDARD
350
18
  0
DICTIONARY
  5
19
330
C
100
AcDbDictionary
  0
ENDSEC
  0
EOF
