%TF.GenerationSoftware,KiCad,Pcbnew,(6.0.0-rc1-dev-1248-ged6c68a1e)*%
%TF.CreationDate,2019-07-02T22:08:16-04:00*%
%TF.ProjectId,hummingbird,68756d6d-696e-4676-9269-72642e6b6963,rev?*%
%TF.SameCoordinates,Original*%
%TF.FileFunction,Soldermask,Bot*%
%TF.FilePolarity,Negative*%
%FSLAX46Y46*%
G04 Gerber Fmt 4.6, Leading zero omitted, Abs format (unit mm)*
G04 Created by KiCad (PCBNEW (6.0.0-rc1-dev-1248-ged6c68a1e)) date 07/02/19 22:08:16*
%MOMM*%
%LPD*%
G01*
G04 APERTURE LIST*
%ADD10C,0.100000*%
G04 APERTURE END LIST*
D10*
G36*
X131151000Y-165901000D02*
X129349000Y-165901000D01*
X129349000Y-164099000D01*
X131151000Y-164099000D01*
X131151000Y-165901000D01*
X131151000Y-165901000D01*
G37*
G36*
X170083015Y-151956973D02*
X170186879Y-151988479D01*
X170282600Y-152039644D01*
X170366501Y-152108499D01*
X170435356Y-152192400D01*
X170486521Y-152288121D01*
X170518027Y-152391985D01*
X170528666Y-152500000D01*
X170518027Y-152608015D01*
X170486521Y-152711879D01*
X170435356Y-152807600D01*
X170366501Y-152891501D01*
X170282600Y-152960356D01*
X170186879Y-153011521D01*
X170083015Y-153043027D01*
X170002067Y-153051000D01*
X169397933Y-153051000D01*
X169316985Y-153043027D01*
X169213121Y-153011521D01*
X169117400Y-152960356D01*
X169033499Y-152891501D01*
X168964644Y-152807600D01*
X168913479Y-152711879D01*
X168881973Y-152608015D01*
X168871334Y-152500000D01*
X168881973Y-152391985D01*
X168913479Y-152288121D01*
X168964644Y-152192400D01*
X169033499Y-152108499D01*
X169117400Y-152039644D01*
X169213121Y-151988479D01*
X169316985Y-151956973D01*
X169397933Y-151949000D01*
X170002067Y-151949000D01*
X170083015Y-151956973D01*
X170083015Y-151956973D01*
G37*
G36*
X167103113Y-150831611D02*
X167202264Y-150861688D01*
X167293644Y-150910531D01*
X167373738Y-150976262D01*
X167439469Y-151056356D01*
X167488312Y-151147735D01*
X167518389Y-151246886D01*
X167526000Y-151324161D01*
X167526000Y-151675838D01*
X167518389Y-151753113D01*
X167488312Y-151852264D01*
X167439469Y-151943644D01*
X167373738Y-152023738D01*
X167293644Y-152089469D01*
X167202265Y-152138312D01*
X167103114Y-152168389D01*
X167000000Y-152178545D01*
X166896887Y-152168389D01*
X166797736Y-152138312D01*
X166706357Y-152089469D01*
X166626263Y-152023738D01*
X166560532Y-151943644D01*
X166511689Y-151852265D01*
X166481611Y-151753114D01*
X166474000Y-151675839D01*
X166474000Y-151324162D01*
X166481611Y-151246887D01*
X166511688Y-151147736D01*
X166560531Y-151056356D01*
X166626262Y-150976262D01*
X166706356Y-150910531D01*
X166797735Y-150861688D01*
X166896886Y-150831611D01*
X167000000Y-150821455D01*
X167103113Y-150831611D01*
X167103113Y-150831611D01*
G37*
G36*
X148160721Y-147220174D02*
X148260995Y-147261709D01*
X148351245Y-147322012D01*
X148427988Y-147398755D01*
X148488291Y-147489005D01*
X148529826Y-147589279D01*
X148551000Y-147695730D01*
X148551000Y-147804270D01*
X148529826Y-147910721D01*
X148488291Y-148010995D01*
X148427988Y-148101245D01*
X148351245Y-148177988D01*
X148260995Y-148238291D01*
X148160721Y-148279826D01*
X148054270Y-148301000D01*
X147945730Y-148301000D01*
X147839279Y-148279826D01*
X147739005Y-148238291D01*
X147648755Y-148177988D01*
X147572012Y-148101245D01*
X147511709Y-148010995D01*
X147470174Y-147910721D01*
X147449000Y-147804270D01*
X147449000Y-147695730D01*
X147470174Y-147589279D01*
X147511709Y-147489005D01*
X147572012Y-147398755D01*
X147648755Y-147322012D01*
X147739005Y-147261709D01*
X147839279Y-147220174D01*
X147945730Y-147199000D01*
X148054270Y-147199000D01*
X148160721Y-147220174D01*
X148160721Y-147220174D01*
G37*
G36*
X167103113Y-145831611D02*
X167202264Y-145861688D01*
X167293644Y-145910531D01*
X167373738Y-145976262D01*
X167439469Y-146056356D01*
X167488312Y-146147735D01*
X167518389Y-146246886D01*
X167526000Y-146324161D01*
X167526000Y-146675838D01*
X167518389Y-146753113D01*
X167488312Y-146852264D01*
X167439469Y-146943644D01*
X167373738Y-147023738D01*
X167293644Y-147089469D01*
X167202265Y-147138312D01*
X167103114Y-147168389D01*
X167000000Y-147178545D01*
X166896887Y-147168389D01*
X166797736Y-147138312D01*
X166706357Y-147089469D01*
X166626263Y-147023738D01*
X166560532Y-146943644D01*
X166511689Y-146852265D01*
X166481611Y-146753114D01*
X166474000Y-146675839D01*
X166474000Y-146324162D01*
X166481611Y-146246887D01*
X166511688Y-146147736D01*
X166560531Y-146056356D01*
X166626262Y-145976262D01*
X166706356Y-145910531D01*
X166797735Y-145861688D01*
X166896886Y-145831611D01*
X167000000Y-145821455D01*
X167103113Y-145831611D01*
X167103113Y-145831611D01*
G37*
G36*
X170083015Y-144956973D02*
X170186879Y-144988479D01*
X170282600Y-145039644D01*
X170366501Y-145108499D01*
X170435356Y-145192400D01*
X170486521Y-145288121D01*
X170518027Y-145391985D01*
X170528666Y-145500000D01*
X170518027Y-145608015D01*
X170486521Y-145711879D01*
X170435356Y-145807600D01*
X170366501Y-145891501D01*
X170282600Y-145960356D01*
X170186879Y-146011521D01*
X170083015Y-146043027D01*
X170002067Y-146051000D01*
X169397933Y-146051000D01*
X169316985Y-146043027D01*
X169213121Y-146011521D01*
X169117400Y-145960356D01*
X169033499Y-145891501D01*
X168964644Y-145807600D01*
X168913479Y-145711879D01*
X168881973Y-145608015D01*
X168871334Y-145500000D01*
X168881973Y-145391985D01*
X168913479Y-145288121D01*
X168964644Y-145192400D01*
X169033499Y-145108499D01*
X169117400Y-145039644D01*
X169213121Y-144988479D01*
X169316985Y-144956973D01*
X169397933Y-144949000D01*
X170002067Y-144949000D01*
X170083015Y-144956973D01*
X170083015Y-144956973D01*
G37*
G36*
X148160721Y-144720174D02*
X148260995Y-144761709D01*
X148351245Y-144822012D01*
X148427988Y-144898755D01*
X148488291Y-144989005D01*
X148529826Y-145089279D01*
X148551000Y-145195730D01*
X148551000Y-145304270D01*
X148529826Y-145410721D01*
X148488291Y-145510995D01*
X148427988Y-145601245D01*
X148351245Y-145677988D01*
X148260995Y-145738291D01*
X148160721Y-145779826D01*
X148054270Y-145801000D01*
X147945730Y-145801000D01*
X147839279Y-145779826D01*
X147739005Y-145738291D01*
X147648755Y-145677988D01*
X147572012Y-145601245D01*
X147511709Y-145510995D01*
X147470174Y-145410721D01*
X147449000Y-145304270D01*
X147449000Y-145195730D01*
X147470174Y-145089279D01*
X147511709Y-144989005D01*
X147572012Y-144898755D01*
X147648755Y-144822012D01*
X147739005Y-144761709D01*
X147839279Y-144720174D01*
X147945730Y-144699000D01*
X148054270Y-144699000D01*
X148160721Y-144720174D01*
X148160721Y-144720174D01*
G37*
G36*
X138151000Y-139401000D02*
X136349000Y-139401000D01*
X136349000Y-137599000D01*
X138151000Y-137599000D01*
X138151000Y-139401000D01*
X138151000Y-139401000D01*
G37*
G36*
X134820443Y-137605519D02*
X134886627Y-137612037D01*
X134999853Y-137646384D01*
X135056467Y-137663557D01*
X135195087Y-137737652D01*
X135212991Y-137747222D01*
X135248729Y-137776552D01*
X135350186Y-137859814D01*
X135433448Y-137961271D01*
X135462778Y-137997009D01*
X135462779Y-137997011D01*
X135546443Y-138153533D01*
X135546443Y-138153534D01*
X135597963Y-138323373D01*
X135615359Y-138500000D01*
X135597963Y-138676627D01*
X135563616Y-138789853D01*
X135546443Y-138846467D01*
X135472348Y-138985087D01*
X135462778Y-139002991D01*
X135433448Y-139038729D01*
X135350186Y-139140186D01*
X135248729Y-139223448D01*
X135212991Y-139252778D01*
X135212989Y-139252779D01*
X135056467Y-139336443D01*
X134999853Y-139353616D01*
X134886627Y-139387963D01*
X134820442Y-139394482D01*
X134754260Y-139401000D01*
X134665740Y-139401000D01*
X134599558Y-139394482D01*
X134533373Y-139387963D01*
X134420147Y-139353616D01*
X134363533Y-139336443D01*
X134207011Y-139252779D01*
X134207009Y-139252778D01*
X134171271Y-139223448D01*
X134069814Y-139140186D01*
X133986552Y-139038729D01*
X133957222Y-139002991D01*
X133947652Y-138985087D01*
X133873557Y-138846467D01*
X133856384Y-138789853D01*
X133822037Y-138676627D01*
X133804641Y-138500000D01*
X133822037Y-138323373D01*
X133873557Y-138153534D01*
X133873557Y-138153533D01*
X133957221Y-137997011D01*
X133957222Y-137997009D01*
X133986552Y-137961271D01*
X134069814Y-137859814D01*
X134171271Y-137776552D01*
X134207009Y-137747222D01*
X134224913Y-137737652D01*
X134363533Y-137663557D01*
X134420147Y-137646384D01*
X134533373Y-137612037D01*
X134599557Y-137605519D01*
X134665740Y-137599000D01*
X134754260Y-137599000D01*
X134820443Y-137605519D01*
X134820443Y-137605519D01*
G37*
G36*
X132280443Y-137605519D02*
X132346627Y-137612037D01*
X132459853Y-137646384D01*
X132516467Y-137663557D01*
X132655087Y-137737652D01*
X132672991Y-137747222D01*
X132708729Y-137776552D01*
X132810186Y-137859814D01*
X132893448Y-137961271D01*
X132922778Y-137997009D01*
X132922779Y-137997011D01*
X133006443Y-138153533D01*
X133006443Y-138153534D01*
X133057963Y-138323373D01*
X133075359Y-138500000D01*
X133057963Y-138676627D01*
X133023616Y-138789853D01*
X133006443Y-138846467D01*
X132932348Y-138985087D01*
X132922778Y-139002991D01*
X132893448Y-139038729D01*
X132810186Y-139140186D01*
X132708729Y-139223448D01*
X132672991Y-139252778D01*
X132672989Y-139252779D01*
X132516467Y-139336443D01*
X132459853Y-139353616D01*
X132346627Y-139387963D01*
X132280442Y-139394482D01*
X132214260Y-139401000D01*
X132125740Y-139401000D01*
X132059558Y-139394482D01*
X131993373Y-139387963D01*
X131880147Y-139353616D01*
X131823533Y-139336443D01*
X131667011Y-139252779D01*
X131667009Y-139252778D01*
X131631271Y-139223448D01*
X131529814Y-139140186D01*
X131446552Y-139038729D01*
X131417222Y-139002991D01*
X131407652Y-138985087D01*
X131333557Y-138846467D01*
X131316384Y-138789853D01*
X131282037Y-138676627D01*
X131264641Y-138500000D01*
X131282037Y-138323373D01*
X131333557Y-138153534D01*
X131333557Y-138153533D01*
X131417221Y-137997011D01*
X131417222Y-137997009D01*
X131446552Y-137961271D01*
X131529814Y-137859814D01*
X131631271Y-137776552D01*
X131667009Y-137747222D01*
X131684913Y-137737652D01*
X131823533Y-137663557D01*
X131880147Y-137646384D01*
X131993373Y-137612037D01*
X132059557Y-137605519D01*
X132125740Y-137599000D01*
X132214260Y-137599000D01*
X132280443Y-137605519D01*
X132280443Y-137605519D01*
G37*
G36*
X156151000Y-139401000D02*
X154349000Y-139401000D01*
X154349000Y-137599000D01*
X156151000Y-137599000D01*
X156151000Y-139401000D01*
X156151000Y-139401000D01*
G37*
G36*
X152820443Y-137605519D02*
X152886627Y-137612037D01*
X152999853Y-137646384D01*
X153056467Y-137663557D01*
X153195087Y-137737652D01*
X153212991Y-137747222D01*
X153248729Y-137776552D01*
X153350186Y-137859814D01*
X153433448Y-137961271D01*
X153462778Y-137997009D01*
X153462779Y-137997011D01*
X153546443Y-138153533D01*
X153546443Y-138153534D01*
X153597963Y-138323373D01*
X153615359Y-138500000D01*
X153597963Y-138676627D01*
X153563616Y-138789853D01*
X153546443Y-138846467D01*
X153472348Y-138985087D01*
X153462778Y-139002991D01*
X153433448Y-139038729D01*
X153350186Y-139140186D01*
X153248729Y-139223448D01*
X153212991Y-139252778D01*
X153212989Y-139252779D01*
X153056467Y-139336443D01*
X152999853Y-139353616D01*
X152886627Y-139387963D01*
X152820442Y-139394482D01*
X152754260Y-139401000D01*
X152665740Y-139401000D01*
X152599558Y-139394482D01*
X152533373Y-139387963D01*
X152420147Y-139353616D01*
X152363533Y-139336443D01*
X152207011Y-139252779D01*
X152207009Y-139252778D01*
X152171271Y-139223448D01*
X152069814Y-139140186D01*
X151986552Y-139038729D01*
X151957222Y-139002991D01*
X151947652Y-138985087D01*
X151873557Y-138846467D01*
X151856384Y-138789853D01*
X151822037Y-138676627D01*
X151804641Y-138500000D01*
X151822037Y-138323373D01*
X151873557Y-138153534D01*
X151873557Y-138153533D01*
X151957221Y-137997011D01*
X151957222Y-137997009D01*
X151986552Y-137961271D01*
X152069814Y-137859814D01*
X152171271Y-137776552D01*
X152207009Y-137747222D01*
X152224913Y-137737652D01*
X152363533Y-137663557D01*
X152420147Y-137646384D01*
X152533373Y-137612037D01*
X152599557Y-137605519D01*
X152665740Y-137599000D01*
X152754260Y-137599000D01*
X152820443Y-137605519D01*
X152820443Y-137605519D01*
G37*
G36*
X150280443Y-137605519D02*
X150346627Y-137612037D01*
X150459853Y-137646384D01*
X150516467Y-137663557D01*
X150655087Y-137737652D01*
X150672991Y-137747222D01*
X150708729Y-137776552D01*
X150810186Y-137859814D01*
X150893448Y-137961271D01*
X150922778Y-137997009D01*
X150922779Y-137997011D01*
X151006443Y-138153533D01*
X151006443Y-138153534D01*
X151057963Y-138323373D01*
X151075359Y-138500000D01*
X151057963Y-138676627D01*
X151023616Y-138789853D01*
X151006443Y-138846467D01*
X150932348Y-138985087D01*
X150922778Y-139002991D01*
X150893448Y-139038729D01*
X150810186Y-139140186D01*
X150708729Y-139223448D01*
X150672991Y-139252778D01*
X150672989Y-139252779D01*
X150516467Y-139336443D01*
X150459853Y-139353616D01*
X150346627Y-139387963D01*
X150280442Y-139394482D01*
X150214260Y-139401000D01*
X150125740Y-139401000D01*
X150059558Y-139394482D01*
X149993373Y-139387963D01*
X149880147Y-139353616D01*
X149823533Y-139336443D01*
X149667011Y-139252779D01*
X149667009Y-139252778D01*
X149631271Y-139223448D01*
X149529814Y-139140186D01*
X149446552Y-139038729D01*
X149417222Y-139002991D01*
X149407652Y-138985087D01*
X149333557Y-138846467D01*
X149316384Y-138789853D01*
X149282037Y-138676627D01*
X149264641Y-138500000D01*
X149282037Y-138323373D01*
X149333557Y-138153534D01*
X149333557Y-138153533D01*
X149417221Y-137997011D01*
X149417222Y-137997009D01*
X149446552Y-137961271D01*
X149529814Y-137859814D01*
X149631271Y-137776552D01*
X149667009Y-137747222D01*
X149684913Y-137737652D01*
X149823533Y-137663557D01*
X149880147Y-137646384D01*
X149993373Y-137612037D01*
X150059557Y-137605519D01*
X150125740Y-137599000D01*
X150214260Y-137599000D01*
X150280443Y-137605519D01*
X150280443Y-137605519D01*
G37*
G36*
X147740443Y-137605519D02*
X147806627Y-137612037D01*
X147919853Y-137646384D01*
X147976467Y-137663557D01*
X148115087Y-137737652D01*
X148132991Y-137747222D01*
X148168729Y-137776552D01*
X148270186Y-137859814D01*
X148353448Y-137961271D01*
X148382778Y-137997009D01*
X148382779Y-137997011D01*
X148466443Y-138153533D01*
X148466443Y-138153534D01*
X148517963Y-138323373D01*
X148535359Y-138500000D01*
X148517963Y-138676627D01*
X148483616Y-138789853D01*
X148466443Y-138846467D01*
X148392348Y-138985087D01*
X148382778Y-139002991D01*
X148353448Y-139038729D01*
X148270186Y-139140186D01*
X148168729Y-139223448D01*
X148132991Y-139252778D01*
X148132989Y-139252779D01*
X147976467Y-139336443D01*
X147919853Y-139353616D01*
X147806627Y-139387963D01*
X147740442Y-139394482D01*
X147674260Y-139401000D01*
X147585740Y-139401000D01*
X147519558Y-139394482D01*
X147453373Y-139387963D01*
X147340147Y-139353616D01*
X147283533Y-139336443D01*
X147127011Y-139252779D01*
X147127009Y-139252778D01*
X147091271Y-139223448D01*
X146989814Y-139140186D01*
X146906552Y-139038729D01*
X146877222Y-139002991D01*
X146867652Y-138985087D01*
X146793557Y-138846467D01*
X146776384Y-138789853D01*
X146742037Y-138676627D01*
X146724641Y-138500000D01*
X146742037Y-138323373D01*
X146793557Y-138153534D01*
X146793557Y-138153533D01*
X146877221Y-137997011D01*
X146877222Y-137997009D01*
X146906552Y-137961271D01*
X146989814Y-137859814D01*
X147091271Y-137776552D01*
X147127009Y-137747222D01*
X147144913Y-137737652D01*
X147283533Y-137663557D01*
X147340147Y-137646384D01*
X147453373Y-137612037D01*
X147519557Y-137605519D01*
X147585740Y-137599000D01*
X147674260Y-137599000D01*
X147740443Y-137605519D01*
X147740443Y-137605519D01*
G37*
G36*
X145200443Y-137605519D02*
X145266627Y-137612037D01*
X145379853Y-137646384D01*
X145436467Y-137663557D01*
X145575087Y-137737652D01*
X145592991Y-137747222D01*
X145628729Y-137776552D01*
X145730186Y-137859814D01*
X145813448Y-137961271D01*
X145842778Y-137997009D01*
X145842779Y-137997011D01*
X145926443Y-138153533D01*
X145926443Y-138153534D01*
X145977963Y-138323373D01*
X145995359Y-138500000D01*
X145977963Y-138676627D01*
X145943616Y-138789853D01*
X145926443Y-138846467D01*
X145852348Y-138985087D01*
X145842778Y-139002991D01*
X145813448Y-139038729D01*
X145730186Y-139140186D01*
X145628729Y-139223448D01*
X145592991Y-139252778D01*
X145592989Y-139252779D01*
X145436467Y-139336443D01*
X145379853Y-139353616D01*
X145266627Y-139387963D01*
X145200442Y-139394482D01*
X145134260Y-139401000D01*
X145045740Y-139401000D01*
X144979558Y-139394482D01*
X144913373Y-139387963D01*
X144800147Y-139353616D01*
X144743533Y-139336443D01*
X144587011Y-139252779D01*
X144587009Y-139252778D01*
X144551271Y-139223448D01*
X144449814Y-139140186D01*
X144366552Y-139038729D01*
X144337222Y-139002991D01*
X144327652Y-138985087D01*
X144253557Y-138846467D01*
X144236384Y-138789853D01*
X144202037Y-138676627D01*
X144184641Y-138500000D01*
X144202037Y-138323373D01*
X144253557Y-138153534D01*
X144253557Y-138153533D01*
X144337221Y-137997011D01*
X144337222Y-137997009D01*
X144366552Y-137961271D01*
X144449814Y-137859814D01*
X144551271Y-137776552D01*
X144587009Y-137747222D01*
X144604913Y-137737652D01*
X144743533Y-137663557D01*
X144800147Y-137646384D01*
X144913373Y-137612037D01*
X144979557Y-137605519D01*
X145045740Y-137599000D01*
X145134260Y-137599000D01*
X145200443Y-137605519D01*
X145200443Y-137605519D01*
G37*
G36*
X142660443Y-137605519D02*
X142726627Y-137612037D01*
X142839853Y-137646384D01*
X142896467Y-137663557D01*
X143035087Y-137737652D01*
X143052991Y-137747222D01*
X143088729Y-137776552D01*
X143190186Y-137859814D01*
X143273448Y-137961271D01*
X143302778Y-137997009D01*
X143302779Y-137997011D01*
X143386443Y-138153533D01*
X143386443Y-138153534D01*
X143437963Y-138323373D01*
X143455359Y-138500000D01*
X143437963Y-138676627D01*
X143403616Y-138789853D01*
X143386443Y-138846467D01*
X143312348Y-138985087D01*
X143302778Y-139002991D01*
X143273448Y-139038729D01*
X143190186Y-139140186D01*
X143088729Y-139223448D01*
X143052991Y-139252778D01*
X143052989Y-139252779D01*
X142896467Y-139336443D01*
X142839853Y-139353616D01*
X142726627Y-139387963D01*
X142660442Y-139394482D01*
X142594260Y-139401000D01*
X142505740Y-139401000D01*
X142439558Y-139394482D01*
X142373373Y-139387963D01*
X142260147Y-139353616D01*
X142203533Y-139336443D01*
X142047011Y-139252779D01*
X142047009Y-139252778D01*
X142011271Y-139223448D01*
X141909814Y-139140186D01*
X141826552Y-139038729D01*
X141797222Y-139002991D01*
X141787652Y-138985087D01*
X141713557Y-138846467D01*
X141696384Y-138789853D01*
X141662037Y-138676627D01*
X141644641Y-138500000D01*
X141662037Y-138323373D01*
X141713557Y-138153534D01*
X141713557Y-138153533D01*
X141797221Y-137997011D01*
X141797222Y-137997009D01*
X141826552Y-137961271D01*
X141909814Y-137859814D01*
X142011271Y-137776552D01*
X142047009Y-137747222D01*
X142064913Y-137737652D01*
X142203533Y-137663557D01*
X142260147Y-137646384D01*
X142373373Y-137612037D01*
X142439557Y-137605519D01*
X142505740Y-137599000D01*
X142594260Y-137599000D01*
X142660443Y-137605519D01*
X142660443Y-137605519D01*
G37*
G36*
X163240443Y-137605519D02*
X163306627Y-137612037D01*
X163419853Y-137646384D01*
X163476467Y-137663557D01*
X163615087Y-137737652D01*
X163632991Y-137747222D01*
X163668729Y-137776552D01*
X163770186Y-137859814D01*
X163853448Y-137961271D01*
X163882778Y-137997009D01*
X163882779Y-137997011D01*
X163966443Y-138153533D01*
X163966443Y-138153534D01*
X164017963Y-138323373D01*
X164035359Y-138500000D01*
X164017963Y-138676627D01*
X163983616Y-138789853D01*
X163966443Y-138846467D01*
X163892348Y-138985087D01*
X163882778Y-139002991D01*
X163853448Y-139038729D01*
X163770186Y-139140186D01*
X163668729Y-139223448D01*
X163632991Y-139252778D01*
X163632989Y-139252779D01*
X163476467Y-139336443D01*
X163419853Y-139353616D01*
X163306627Y-139387963D01*
X163240442Y-139394482D01*
X163174260Y-139401000D01*
X163085740Y-139401000D01*
X163019558Y-139394482D01*
X162953373Y-139387963D01*
X162840147Y-139353616D01*
X162783533Y-139336443D01*
X162627011Y-139252779D01*
X162627009Y-139252778D01*
X162591271Y-139223448D01*
X162489814Y-139140186D01*
X162406552Y-139038729D01*
X162377222Y-139002991D01*
X162367652Y-138985087D01*
X162293557Y-138846467D01*
X162276384Y-138789853D01*
X162242037Y-138676627D01*
X162224641Y-138500000D01*
X162242037Y-138323373D01*
X162293557Y-138153534D01*
X162293557Y-138153533D01*
X162377221Y-137997011D01*
X162377222Y-137997009D01*
X162406552Y-137961271D01*
X162489814Y-137859814D01*
X162591271Y-137776552D01*
X162627009Y-137747222D01*
X162644913Y-137737652D01*
X162783533Y-137663557D01*
X162840147Y-137646384D01*
X162953373Y-137612037D01*
X163019557Y-137605519D01*
X163085740Y-137599000D01*
X163174260Y-137599000D01*
X163240443Y-137605519D01*
X163240443Y-137605519D01*
G37*
G36*
X160700443Y-137605519D02*
X160766627Y-137612037D01*
X160879853Y-137646384D01*
X160936467Y-137663557D01*
X161075087Y-137737652D01*
X161092991Y-137747222D01*
X161128729Y-137776552D01*
X161230186Y-137859814D01*
X161313448Y-137961271D01*
X161342778Y-137997009D01*
X161342779Y-137997011D01*
X161426443Y-138153533D01*
X161426443Y-138153534D01*
X161477963Y-138323373D01*
X161495359Y-138500000D01*
X161477963Y-138676627D01*
X161443616Y-138789853D01*
X161426443Y-138846467D01*
X161352348Y-138985087D01*
X161342778Y-139002991D01*
X161313448Y-139038729D01*
X161230186Y-139140186D01*
X161128729Y-139223448D01*
X161092991Y-139252778D01*
X161092989Y-139252779D01*
X160936467Y-139336443D01*
X160879853Y-139353616D01*
X160766627Y-139387963D01*
X160700442Y-139394482D01*
X160634260Y-139401000D01*
X160545740Y-139401000D01*
X160479558Y-139394482D01*
X160413373Y-139387963D01*
X160300147Y-139353616D01*
X160243533Y-139336443D01*
X160087011Y-139252779D01*
X160087009Y-139252778D01*
X160051271Y-139223448D01*
X159949814Y-139140186D01*
X159866552Y-139038729D01*
X159837222Y-139002991D01*
X159827652Y-138985087D01*
X159753557Y-138846467D01*
X159736384Y-138789853D01*
X159702037Y-138676627D01*
X159684641Y-138500000D01*
X159702037Y-138323373D01*
X159753557Y-138153534D01*
X159753557Y-138153533D01*
X159837221Y-137997011D01*
X159837222Y-137997009D01*
X159866552Y-137961271D01*
X159949814Y-137859814D01*
X160051271Y-137776552D01*
X160087009Y-137747222D01*
X160104913Y-137737652D01*
X160243533Y-137663557D01*
X160300147Y-137646384D01*
X160413373Y-137612037D01*
X160479557Y-137605519D01*
X160545740Y-137599000D01*
X160634260Y-137599000D01*
X160700443Y-137605519D01*
X160700443Y-137605519D01*
G37*
G36*
X168320443Y-137605519D02*
X168386627Y-137612037D01*
X168499853Y-137646384D01*
X168556467Y-137663557D01*
X168695087Y-137737652D01*
X168712991Y-137747222D01*
X168748729Y-137776552D01*
X168850186Y-137859814D01*
X168933448Y-137961271D01*
X168962778Y-137997009D01*
X168962779Y-137997011D01*
X169046443Y-138153533D01*
X169046443Y-138153534D01*
X169097963Y-138323373D01*
X169115359Y-138500000D01*
X169097963Y-138676627D01*
X169063616Y-138789853D01*
X169046443Y-138846467D01*
X168972348Y-138985087D01*
X168962778Y-139002991D01*
X168933448Y-139038729D01*
X168850186Y-139140186D01*
X168748729Y-139223448D01*
X168712991Y-139252778D01*
X168712989Y-139252779D01*
X168556467Y-139336443D01*
X168499853Y-139353616D01*
X168386627Y-139387963D01*
X168320442Y-139394482D01*
X168254260Y-139401000D01*
X168165740Y-139401000D01*
X168099558Y-139394482D01*
X168033373Y-139387963D01*
X167920147Y-139353616D01*
X167863533Y-139336443D01*
X167707011Y-139252779D01*
X167707009Y-139252778D01*
X167671271Y-139223448D01*
X167569814Y-139140186D01*
X167486552Y-139038729D01*
X167457222Y-139002991D01*
X167447652Y-138985087D01*
X167373557Y-138846467D01*
X167356384Y-138789853D01*
X167322037Y-138676627D01*
X167304641Y-138500000D01*
X167322037Y-138323373D01*
X167373557Y-138153534D01*
X167373557Y-138153533D01*
X167457221Y-137997011D01*
X167457222Y-137997009D01*
X167486552Y-137961271D01*
X167569814Y-137859814D01*
X167671271Y-137776552D01*
X167707009Y-137747222D01*
X167724913Y-137737652D01*
X167863533Y-137663557D01*
X167920147Y-137646384D01*
X168033373Y-137612037D01*
X168099557Y-137605519D01*
X168165740Y-137599000D01*
X168254260Y-137599000D01*
X168320443Y-137605519D01*
X168320443Y-137605519D01*
G37*
G36*
X171651000Y-139401000D02*
X169849000Y-139401000D01*
X169849000Y-137599000D01*
X171651000Y-137599000D01*
X171651000Y-139401000D01*
X171651000Y-139401000D01*
G37*
G36*
X165780443Y-137605519D02*
X165846627Y-137612037D01*
X165959853Y-137646384D01*
X166016467Y-137663557D01*
X166155087Y-137737652D01*
X166172991Y-137747222D01*
X166208729Y-137776552D01*
X166310186Y-137859814D01*
X166393448Y-137961271D01*
X166422778Y-137997009D01*
X166422779Y-137997011D01*
X166506443Y-138153533D01*
X166506443Y-138153534D01*
X166557963Y-138323373D01*
X166575359Y-138500000D01*
X166557963Y-138676627D01*
X166523616Y-138789853D01*
X166506443Y-138846467D01*
X166432348Y-138985087D01*
X166422778Y-139002991D01*
X166393448Y-139038729D01*
X166310186Y-139140186D01*
X166208729Y-139223448D01*
X166172991Y-139252778D01*
X166172989Y-139252779D01*
X166016467Y-139336443D01*
X165959853Y-139353616D01*
X165846627Y-139387963D01*
X165780442Y-139394482D01*
X165714260Y-139401000D01*
X165625740Y-139401000D01*
X165559558Y-139394482D01*
X165493373Y-139387963D01*
X165380147Y-139353616D01*
X165323533Y-139336443D01*
X165167011Y-139252779D01*
X165167009Y-139252778D01*
X165131271Y-139223448D01*
X165029814Y-139140186D01*
X164946552Y-139038729D01*
X164917222Y-139002991D01*
X164907652Y-138985087D01*
X164833557Y-138846467D01*
X164816384Y-138789853D01*
X164782037Y-138676627D01*
X164764641Y-138500000D01*
X164782037Y-138323373D01*
X164833557Y-138153534D01*
X164833557Y-138153533D01*
X164917221Y-137997011D01*
X164917222Y-137997009D01*
X164946552Y-137961271D01*
X165029814Y-137859814D01*
X165131271Y-137776552D01*
X165167009Y-137747222D01*
X165184913Y-137737652D01*
X165323533Y-137663557D01*
X165380147Y-137646384D01*
X165493373Y-137612037D01*
X165559557Y-137605519D01*
X165625740Y-137599000D01*
X165714260Y-137599000D01*
X165780443Y-137605519D01*
X165780443Y-137605519D01*
G37*
M02*
