%TF.GenerationSoftware,KiCad,Pcbnew,(6.0.0-rc1-dev-1248-ged6c68a1e)*%
%TF.CreationDate,2019-07-02T22:08:16-04:00*%
%TF.ProjectId,hummingbird,68756d6d-696e-4676-9269-72642e6b6963,rev?*%
%TF.SameCoordinates,Original*%
%TF.FileFunction,Paste,Top*%
%TF.FilePolarity,Positive*%
%FSLAX46Y46*%
G04 Gerber Fmt 4.6, Leading zero omitted, Abs format (unit mm)*
G04 Created by KiCad (PCBNEW (6.0.0-rc1-dev-1248-ged6c68a1e)) date 07/02/19 22:08:16*
%MOMM*%
%LPD*%
G01*
G04 APERTURE LIST*
%ADD10R,0.800000X1.240000*%
%ADD11R,0.950000X2.500000*%
%ADD12R,1.150000X2.200000*%
%ADD13R,1.160000X1.250000*%
%ADD14R,1.160000X1.200000*%
%ADD15R,1.500000X1.150000*%
%ADD16R,1.198880X2.999740*%
%ADD17C,0.100000*%
%ADD18C,0.875000*%
%ADD19R,1.000000X3.500000*%
%ADD20R,1.500000X3.400000*%
%ADD21R,1.350000X0.400000*%
%ADD22R,2.500000X1.200000*%
%ADD23R,0.650000X1.060000*%
%ADD24C,0.600000*%
%ADD25R,1.300000X0.250000*%
%ADD26R,0.250000X1.300000*%
%ADD27R,0.380000X0.350000*%
%ADD28R,1.800000X1.000000*%
G04 APERTURE END LIST*
D10*
X137850000Y-164395000D03*
X138950000Y-164395000D03*
X140050000Y-164395000D03*
X141150000Y-164395000D03*
X142250000Y-164395000D03*
X143350000Y-164395000D03*
X144450000Y-164395000D03*
X145550000Y-164395000D03*
D11*
X133505000Y-165025000D03*
D12*
X147895000Y-164875000D03*
D13*
X147490000Y-167025000D03*
D14*
X147490000Y-176025000D03*
D12*
X133605000Y-176355000D03*
D15*
X137910000Y-177150000D03*
X145690000Y-177150000D03*
D16*
X143747700Y-158998080D03*
X141748720Y-158998080D03*
X139749740Y-158998080D03*
X137748220Y-158998080D03*
X135751780Y-158998080D03*
X133750260Y-158998080D03*
X131751280Y-158998080D03*
X129752300Y-158998080D03*
X129752300Y-144001920D03*
X131751280Y-144001920D03*
X133750260Y-144001920D03*
X135751780Y-144001920D03*
X137748220Y-144001920D03*
X139749740Y-144001920D03*
X141748720Y-144001920D03*
X143747700Y-144001920D03*
D17*
G36*
X160490191Y-160776053D02*
X160511426Y-160779203D01*
X160532250Y-160784419D01*
X160552462Y-160791651D01*
X160571868Y-160800830D01*
X160590281Y-160811866D01*
X160607524Y-160824654D01*
X160623430Y-160839070D01*
X160637846Y-160854976D01*
X160650634Y-160872219D01*
X160661670Y-160890632D01*
X160670849Y-160910038D01*
X160678081Y-160930250D01*
X160683297Y-160951074D01*
X160686447Y-160972309D01*
X160687500Y-160993750D01*
X160687500Y-161506250D01*
X160686447Y-161527691D01*
X160683297Y-161548926D01*
X160678081Y-161569750D01*
X160670849Y-161589962D01*
X160661670Y-161609368D01*
X160650634Y-161627781D01*
X160637846Y-161645024D01*
X160623430Y-161660930D01*
X160607524Y-161675346D01*
X160590281Y-161688134D01*
X160571868Y-161699170D01*
X160552462Y-161708349D01*
X160532250Y-161715581D01*
X160511426Y-161720797D01*
X160490191Y-161723947D01*
X160468750Y-161725000D01*
X160031250Y-161725000D01*
X160009809Y-161723947D01*
X159988574Y-161720797D01*
X159967750Y-161715581D01*
X159947538Y-161708349D01*
X159928132Y-161699170D01*
X159909719Y-161688134D01*
X159892476Y-161675346D01*
X159876570Y-161660930D01*
X159862154Y-161645024D01*
X159849366Y-161627781D01*
X159838330Y-161609368D01*
X159829151Y-161589962D01*
X159821919Y-161569750D01*
X159816703Y-161548926D01*
X159813553Y-161527691D01*
X159812500Y-161506250D01*
X159812500Y-160993750D01*
X159813553Y-160972309D01*
X159816703Y-160951074D01*
X159821919Y-160930250D01*
X159829151Y-160910038D01*
X159838330Y-160890632D01*
X159849366Y-160872219D01*
X159862154Y-160854976D01*
X159876570Y-160839070D01*
X159892476Y-160824654D01*
X159909719Y-160811866D01*
X159928132Y-160800830D01*
X159947538Y-160791651D01*
X159967750Y-160784419D01*
X159988574Y-160779203D01*
X160009809Y-160776053D01*
X160031250Y-160775000D01*
X160468750Y-160775000D01*
X160490191Y-160776053D01*
X160490191Y-160776053D01*
G37*
D18*
X160250000Y-161250000D03*
D17*
G36*
X158915191Y-160776053D02*
X158936426Y-160779203D01*
X158957250Y-160784419D01*
X158977462Y-160791651D01*
X158996868Y-160800830D01*
X159015281Y-160811866D01*
X159032524Y-160824654D01*
X159048430Y-160839070D01*
X159062846Y-160854976D01*
X159075634Y-160872219D01*
X159086670Y-160890632D01*
X159095849Y-160910038D01*
X159103081Y-160930250D01*
X159108297Y-160951074D01*
X159111447Y-160972309D01*
X159112500Y-160993750D01*
X159112500Y-161506250D01*
X159111447Y-161527691D01*
X159108297Y-161548926D01*
X159103081Y-161569750D01*
X159095849Y-161589962D01*
X159086670Y-161609368D01*
X159075634Y-161627781D01*
X159062846Y-161645024D01*
X159048430Y-161660930D01*
X159032524Y-161675346D01*
X159015281Y-161688134D01*
X158996868Y-161699170D01*
X158977462Y-161708349D01*
X158957250Y-161715581D01*
X158936426Y-161720797D01*
X158915191Y-161723947D01*
X158893750Y-161725000D01*
X158456250Y-161725000D01*
X158434809Y-161723947D01*
X158413574Y-161720797D01*
X158392750Y-161715581D01*
X158372538Y-161708349D01*
X158353132Y-161699170D01*
X158334719Y-161688134D01*
X158317476Y-161675346D01*
X158301570Y-161660930D01*
X158287154Y-161645024D01*
X158274366Y-161627781D01*
X158263330Y-161609368D01*
X158254151Y-161589962D01*
X158246919Y-161569750D01*
X158241703Y-161548926D01*
X158238553Y-161527691D01*
X158237500Y-161506250D01*
X158237500Y-160993750D01*
X158238553Y-160972309D01*
X158241703Y-160951074D01*
X158246919Y-160930250D01*
X158254151Y-160910038D01*
X158263330Y-160890632D01*
X158274366Y-160872219D01*
X158287154Y-160854976D01*
X158301570Y-160839070D01*
X158317476Y-160824654D01*
X158334719Y-160811866D01*
X158353132Y-160800830D01*
X158372538Y-160791651D01*
X158392750Y-160784419D01*
X158413574Y-160779203D01*
X158434809Y-160776053D01*
X158456250Y-160775000D01*
X158893750Y-160775000D01*
X158915191Y-160776053D01*
X158915191Y-160776053D01*
G37*
D18*
X158675000Y-161250000D03*
D17*
G36*
X155240191Y-160776053D02*
X155261426Y-160779203D01*
X155282250Y-160784419D01*
X155302462Y-160791651D01*
X155321868Y-160800830D01*
X155340281Y-160811866D01*
X155357524Y-160824654D01*
X155373430Y-160839070D01*
X155387846Y-160854976D01*
X155400634Y-160872219D01*
X155411670Y-160890632D01*
X155420849Y-160910038D01*
X155428081Y-160930250D01*
X155433297Y-160951074D01*
X155436447Y-160972309D01*
X155437500Y-160993750D01*
X155437500Y-161506250D01*
X155436447Y-161527691D01*
X155433297Y-161548926D01*
X155428081Y-161569750D01*
X155420849Y-161589962D01*
X155411670Y-161609368D01*
X155400634Y-161627781D01*
X155387846Y-161645024D01*
X155373430Y-161660930D01*
X155357524Y-161675346D01*
X155340281Y-161688134D01*
X155321868Y-161699170D01*
X155302462Y-161708349D01*
X155282250Y-161715581D01*
X155261426Y-161720797D01*
X155240191Y-161723947D01*
X155218750Y-161725000D01*
X154781250Y-161725000D01*
X154759809Y-161723947D01*
X154738574Y-161720797D01*
X154717750Y-161715581D01*
X154697538Y-161708349D01*
X154678132Y-161699170D01*
X154659719Y-161688134D01*
X154642476Y-161675346D01*
X154626570Y-161660930D01*
X154612154Y-161645024D01*
X154599366Y-161627781D01*
X154588330Y-161609368D01*
X154579151Y-161589962D01*
X154571919Y-161569750D01*
X154566703Y-161548926D01*
X154563553Y-161527691D01*
X154562500Y-161506250D01*
X154562500Y-160993750D01*
X154563553Y-160972309D01*
X154566703Y-160951074D01*
X154571919Y-160930250D01*
X154579151Y-160910038D01*
X154588330Y-160890632D01*
X154599366Y-160872219D01*
X154612154Y-160854976D01*
X154626570Y-160839070D01*
X154642476Y-160824654D01*
X154659719Y-160811866D01*
X154678132Y-160800830D01*
X154697538Y-160791651D01*
X154717750Y-160784419D01*
X154738574Y-160779203D01*
X154759809Y-160776053D01*
X154781250Y-160775000D01*
X155218750Y-160775000D01*
X155240191Y-160776053D01*
X155240191Y-160776053D01*
G37*
D18*
X155000000Y-161250000D03*
D17*
G36*
X156815191Y-160776053D02*
X156836426Y-160779203D01*
X156857250Y-160784419D01*
X156877462Y-160791651D01*
X156896868Y-160800830D01*
X156915281Y-160811866D01*
X156932524Y-160824654D01*
X156948430Y-160839070D01*
X156962846Y-160854976D01*
X156975634Y-160872219D01*
X156986670Y-160890632D01*
X156995849Y-160910038D01*
X157003081Y-160930250D01*
X157008297Y-160951074D01*
X157011447Y-160972309D01*
X157012500Y-160993750D01*
X157012500Y-161506250D01*
X157011447Y-161527691D01*
X157008297Y-161548926D01*
X157003081Y-161569750D01*
X156995849Y-161589962D01*
X156986670Y-161609368D01*
X156975634Y-161627781D01*
X156962846Y-161645024D01*
X156948430Y-161660930D01*
X156932524Y-161675346D01*
X156915281Y-161688134D01*
X156896868Y-161699170D01*
X156877462Y-161708349D01*
X156857250Y-161715581D01*
X156836426Y-161720797D01*
X156815191Y-161723947D01*
X156793750Y-161725000D01*
X156356250Y-161725000D01*
X156334809Y-161723947D01*
X156313574Y-161720797D01*
X156292750Y-161715581D01*
X156272538Y-161708349D01*
X156253132Y-161699170D01*
X156234719Y-161688134D01*
X156217476Y-161675346D01*
X156201570Y-161660930D01*
X156187154Y-161645024D01*
X156174366Y-161627781D01*
X156163330Y-161609368D01*
X156154151Y-161589962D01*
X156146919Y-161569750D01*
X156141703Y-161548926D01*
X156138553Y-161527691D01*
X156137500Y-161506250D01*
X156137500Y-160993750D01*
X156138553Y-160972309D01*
X156141703Y-160951074D01*
X156146919Y-160930250D01*
X156154151Y-160910038D01*
X156163330Y-160890632D01*
X156174366Y-160872219D01*
X156187154Y-160854976D01*
X156201570Y-160839070D01*
X156217476Y-160824654D01*
X156234719Y-160811866D01*
X156253132Y-160800830D01*
X156272538Y-160791651D01*
X156292750Y-160784419D01*
X156313574Y-160779203D01*
X156334809Y-160776053D01*
X156356250Y-160775000D01*
X156793750Y-160775000D01*
X156815191Y-160776053D01*
X156815191Y-160776053D01*
G37*
D18*
X156575000Y-161250000D03*
D17*
G36*
X162990191Y-160776053D02*
X163011426Y-160779203D01*
X163032250Y-160784419D01*
X163052462Y-160791651D01*
X163071868Y-160800830D01*
X163090281Y-160811866D01*
X163107524Y-160824654D01*
X163123430Y-160839070D01*
X163137846Y-160854976D01*
X163150634Y-160872219D01*
X163161670Y-160890632D01*
X163170849Y-160910038D01*
X163178081Y-160930250D01*
X163183297Y-160951074D01*
X163186447Y-160972309D01*
X163187500Y-160993750D01*
X163187500Y-161506250D01*
X163186447Y-161527691D01*
X163183297Y-161548926D01*
X163178081Y-161569750D01*
X163170849Y-161589962D01*
X163161670Y-161609368D01*
X163150634Y-161627781D01*
X163137846Y-161645024D01*
X163123430Y-161660930D01*
X163107524Y-161675346D01*
X163090281Y-161688134D01*
X163071868Y-161699170D01*
X163052462Y-161708349D01*
X163032250Y-161715581D01*
X163011426Y-161720797D01*
X162990191Y-161723947D01*
X162968750Y-161725000D01*
X162531250Y-161725000D01*
X162509809Y-161723947D01*
X162488574Y-161720797D01*
X162467750Y-161715581D01*
X162447538Y-161708349D01*
X162428132Y-161699170D01*
X162409719Y-161688134D01*
X162392476Y-161675346D01*
X162376570Y-161660930D01*
X162362154Y-161645024D01*
X162349366Y-161627781D01*
X162338330Y-161609368D01*
X162329151Y-161589962D01*
X162321919Y-161569750D01*
X162316703Y-161548926D01*
X162313553Y-161527691D01*
X162312500Y-161506250D01*
X162312500Y-160993750D01*
X162313553Y-160972309D01*
X162316703Y-160951074D01*
X162321919Y-160930250D01*
X162329151Y-160910038D01*
X162338330Y-160890632D01*
X162349366Y-160872219D01*
X162362154Y-160854976D01*
X162376570Y-160839070D01*
X162392476Y-160824654D01*
X162409719Y-160811866D01*
X162428132Y-160800830D01*
X162447538Y-160791651D01*
X162467750Y-160784419D01*
X162488574Y-160779203D01*
X162509809Y-160776053D01*
X162531250Y-160775000D01*
X162968750Y-160775000D01*
X162990191Y-160776053D01*
X162990191Y-160776053D01*
G37*
D18*
X162750000Y-161250000D03*
D17*
G36*
X164565191Y-160776053D02*
X164586426Y-160779203D01*
X164607250Y-160784419D01*
X164627462Y-160791651D01*
X164646868Y-160800830D01*
X164665281Y-160811866D01*
X164682524Y-160824654D01*
X164698430Y-160839070D01*
X164712846Y-160854976D01*
X164725634Y-160872219D01*
X164736670Y-160890632D01*
X164745849Y-160910038D01*
X164753081Y-160930250D01*
X164758297Y-160951074D01*
X164761447Y-160972309D01*
X164762500Y-160993750D01*
X164762500Y-161506250D01*
X164761447Y-161527691D01*
X164758297Y-161548926D01*
X164753081Y-161569750D01*
X164745849Y-161589962D01*
X164736670Y-161609368D01*
X164725634Y-161627781D01*
X164712846Y-161645024D01*
X164698430Y-161660930D01*
X164682524Y-161675346D01*
X164665281Y-161688134D01*
X164646868Y-161699170D01*
X164627462Y-161708349D01*
X164607250Y-161715581D01*
X164586426Y-161720797D01*
X164565191Y-161723947D01*
X164543750Y-161725000D01*
X164106250Y-161725000D01*
X164084809Y-161723947D01*
X164063574Y-161720797D01*
X164042750Y-161715581D01*
X164022538Y-161708349D01*
X164003132Y-161699170D01*
X163984719Y-161688134D01*
X163967476Y-161675346D01*
X163951570Y-161660930D01*
X163937154Y-161645024D01*
X163924366Y-161627781D01*
X163913330Y-161609368D01*
X163904151Y-161589962D01*
X163896919Y-161569750D01*
X163891703Y-161548926D01*
X163888553Y-161527691D01*
X163887500Y-161506250D01*
X163887500Y-160993750D01*
X163888553Y-160972309D01*
X163891703Y-160951074D01*
X163896919Y-160930250D01*
X163904151Y-160910038D01*
X163913330Y-160890632D01*
X163924366Y-160872219D01*
X163937154Y-160854976D01*
X163951570Y-160839070D01*
X163967476Y-160824654D01*
X163984719Y-160811866D01*
X164003132Y-160800830D01*
X164022538Y-160791651D01*
X164042750Y-160784419D01*
X164063574Y-160779203D01*
X164084809Y-160776053D01*
X164106250Y-160775000D01*
X164543750Y-160775000D01*
X164565191Y-160776053D01*
X164565191Y-160776053D01*
G37*
D18*
X164325000Y-161250000D03*
D17*
G36*
X147452691Y-149526053D02*
X147473926Y-149529203D01*
X147494750Y-149534419D01*
X147514962Y-149541651D01*
X147534368Y-149550830D01*
X147552781Y-149561866D01*
X147570024Y-149574654D01*
X147585930Y-149589070D01*
X147600346Y-149604976D01*
X147613134Y-149622219D01*
X147624170Y-149640632D01*
X147633349Y-149660038D01*
X147640581Y-149680250D01*
X147645797Y-149701074D01*
X147648947Y-149722309D01*
X147650000Y-149743750D01*
X147650000Y-150256250D01*
X147648947Y-150277691D01*
X147645797Y-150298926D01*
X147640581Y-150319750D01*
X147633349Y-150339962D01*
X147624170Y-150359368D01*
X147613134Y-150377781D01*
X147600346Y-150395024D01*
X147585930Y-150410930D01*
X147570024Y-150425346D01*
X147552781Y-150438134D01*
X147534368Y-150449170D01*
X147514962Y-150458349D01*
X147494750Y-150465581D01*
X147473926Y-150470797D01*
X147452691Y-150473947D01*
X147431250Y-150475000D01*
X146993750Y-150475000D01*
X146972309Y-150473947D01*
X146951074Y-150470797D01*
X146930250Y-150465581D01*
X146910038Y-150458349D01*
X146890632Y-150449170D01*
X146872219Y-150438134D01*
X146854976Y-150425346D01*
X146839070Y-150410930D01*
X146824654Y-150395024D01*
X146811866Y-150377781D01*
X146800830Y-150359368D01*
X146791651Y-150339962D01*
X146784419Y-150319750D01*
X146779203Y-150298926D01*
X146776053Y-150277691D01*
X146775000Y-150256250D01*
X146775000Y-149743750D01*
X146776053Y-149722309D01*
X146779203Y-149701074D01*
X146784419Y-149680250D01*
X146791651Y-149660038D01*
X146800830Y-149640632D01*
X146811866Y-149622219D01*
X146824654Y-149604976D01*
X146839070Y-149589070D01*
X146854976Y-149574654D01*
X146872219Y-149561866D01*
X146890632Y-149550830D01*
X146910038Y-149541651D01*
X146930250Y-149534419D01*
X146951074Y-149529203D01*
X146972309Y-149526053D01*
X146993750Y-149525000D01*
X147431250Y-149525000D01*
X147452691Y-149526053D01*
X147452691Y-149526053D01*
G37*
D18*
X147212500Y-150000000D03*
D17*
G36*
X149027691Y-149526053D02*
X149048926Y-149529203D01*
X149069750Y-149534419D01*
X149089962Y-149541651D01*
X149109368Y-149550830D01*
X149127781Y-149561866D01*
X149145024Y-149574654D01*
X149160930Y-149589070D01*
X149175346Y-149604976D01*
X149188134Y-149622219D01*
X149199170Y-149640632D01*
X149208349Y-149660038D01*
X149215581Y-149680250D01*
X149220797Y-149701074D01*
X149223947Y-149722309D01*
X149225000Y-149743750D01*
X149225000Y-150256250D01*
X149223947Y-150277691D01*
X149220797Y-150298926D01*
X149215581Y-150319750D01*
X149208349Y-150339962D01*
X149199170Y-150359368D01*
X149188134Y-150377781D01*
X149175346Y-150395024D01*
X149160930Y-150410930D01*
X149145024Y-150425346D01*
X149127781Y-150438134D01*
X149109368Y-150449170D01*
X149089962Y-150458349D01*
X149069750Y-150465581D01*
X149048926Y-150470797D01*
X149027691Y-150473947D01*
X149006250Y-150475000D01*
X148568750Y-150475000D01*
X148547309Y-150473947D01*
X148526074Y-150470797D01*
X148505250Y-150465581D01*
X148485038Y-150458349D01*
X148465632Y-150449170D01*
X148447219Y-150438134D01*
X148429976Y-150425346D01*
X148414070Y-150410930D01*
X148399654Y-150395024D01*
X148386866Y-150377781D01*
X148375830Y-150359368D01*
X148366651Y-150339962D01*
X148359419Y-150319750D01*
X148354203Y-150298926D01*
X148351053Y-150277691D01*
X148350000Y-150256250D01*
X148350000Y-149743750D01*
X148351053Y-149722309D01*
X148354203Y-149701074D01*
X148359419Y-149680250D01*
X148366651Y-149660038D01*
X148375830Y-149640632D01*
X148386866Y-149622219D01*
X148399654Y-149604976D01*
X148414070Y-149589070D01*
X148429976Y-149574654D01*
X148447219Y-149561866D01*
X148465632Y-149550830D01*
X148485038Y-149541651D01*
X148505250Y-149534419D01*
X148526074Y-149529203D01*
X148547309Y-149526053D01*
X148568750Y-149525000D01*
X149006250Y-149525000D01*
X149027691Y-149526053D01*
X149027691Y-149526053D01*
G37*
D18*
X148787500Y-150000000D03*
D17*
G36*
X149027691Y-142776053D02*
X149048926Y-142779203D01*
X149069750Y-142784419D01*
X149089962Y-142791651D01*
X149109368Y-142800830D01*
X149127781Y-142811866D01*
X149145024Y-142824654D01*
X149160930Y-142839070D01*
X149175346Y-142854976D01*
X149188134Y-142872219D01*
X149199170Y-142890632D01*
X149208349Y-142910038D01*
X149215581Y-142930250D01*
X149220797Y-142951074D01*
X149223947Y-142972309D01*
X149225000Y-142993750D01*
X149225000Y-143506250D01*
X149223947Y-143527691D01*
X149220797Y-143548926D01*
X149215581Y-143569750D01*
X149208349Y-143589962D01*
X149199170Y-143609368D01*
X149188134Y-143627781D01*
X149175346Y-143645024D01*
X149160930Y-143660930D01*
X149145024Y-143675346D01*
X149127781Y-143688134D01*
X149109368Y-143699170D01*
X149089962Y-143708349D01*
X149069750Y-143715581D01*
X149048926Y-143720797D01*
X149027691Y-143723947D01*
X149006250Y-143725000D01*
X148568750Y-143725000D01*
X148547309Y-143723947D01*
X148526074Y-143720797D01*
X148505250Y-143715581D01*
X148485038Y-143708349D01*
X148465632Y-143699170D01*
X148447219Y-143688134D01*
X148429976Y-143675346D01*
X148414070Y-143660930D01*
X148399654Y-143645024D01*
X148386866Y-143627781D01*
X148375830Y-143609368D01*
X148366651Y-143589962D01*
X148359419Y-143569750D01*
X148354203Y-143548926D01*
X148351053Y-143527691D01*
X148350000Y-143506250D01*
X148350000Y-142993750D01*
X148351053Y-142972309D01*
X148354203Y-142951074D01*
X148359419Y-142930250D01*
X148366651Y-142910038D01*
X148375830Y-142890632D01*
X148386866Y-142872219D01*
X148399654Y-142854976D01*
X148414070Y-142839070D01*
X148429976Y-142824654D01*
X148447219Y-142811866D01*
X148465632Y-142800830D01*
X148485038Y-142791651D01*
X148505250Y-142784419D01*
X148526074Y-142779203D01*
X148547309Y-142776053D01*
X148568750Y-142775000D01*
X149006250Y-142775000D01*
X149027691Y-142776053D01*
X149027691Y-142776053D01*
G37*
D18*
X148787500Y-143250000D03*
D17*
G36*
X147452691Y-142776053D02*
X147473926Y-142779203D01*
X147494750Y-142784419D01*
X147514962Y-142791651D01*
X147534368Y-142800830D01*
X147552781Y-142811866D01*
X147570024Y-142824654D01*
X147585930Y-142839070D01*
X147600346Y-142854976D01*
X147613134Y-142872219D01*
X147624170Y-142890632D01*
X147633349Y-142910038D01*
X147640581Y-142930250D01*
X147645797Y-142951074D01*
X147648947Y-142972309D01*
X147650000Y-142993750D01*
X147650000Y-143506250D01*
X147648947Y-143527691D01*
X147645797Y-143548926D01*
X147640581Y-143569750D01*
X147633349Y-143589962D01*
X147624170Y-143609368D01*
X147613134Y-143627781D01*
X147600346Y-143645024D01*
X147585930Y-143660930D01*
X147570024Y-143675346D01*
X147552781Y-143688134D01*
X147534368Y-143699170D01*
X147514962Y-143708349D01*
X147494750Y-143715581D01*
X147473926Y-143720797D01*
X147452691Y-143723947D01*
X147431250Y-143725000D01*
X146993750Y-143725000D01*
X146972309Y-143723947D01*
X146951074Y-143720797D01*
X146930250Y-143715581D01*
X146910038Y-143708349D01*
X146890632Y-143699170D01*
X146872219Y-143688134D01*
X146854976Y-143675346D01*
X146839070Y-143660930D01*
X146824654Y-143645024D01*
X146811866Y-143627781D01*
X146800830Y-143609368D01*
X146791651Y-143589962D01*
X146784419Y-143569750D01*
X146779203Y-143548926D01*
X146776053Y-143527691D01*
X146775000Y-143506250D01*
X146775000Y-142993750D01*
X146776053Y-142972309D01*
X146779203Y-142951074D01*
X146784419Y-142930250D01*
X146791651Y-142910038D01*
X146800830Y-142890632D01*
X146811866Y-142872219D01*
X146824654Y-142854976D01*
X146839070Y-142839070D01*
X146854976Y-142824654D01*
X146872219Y-142811866D01*
X146890632Y-142800830D01*
X146910038Y-142791651D01*
X146930250Y-142784419D01*
X146951074Y-142779203D01*
X146972309Y-142776053D01*
X146993750Y-142775000D01*
X147431250Y-142775000D01*
X147452691Y-142776053D01*
X147452691Y-142776053D01*
G37*
D18*
X147212500Y-143250000D03*
D17*
G36*
X159777691Y-156026053D02*
X159798926Y-156029203D01*
X159819750Y-156034419D01*
X159839962Y-156041651D01*
X159859368Y-156050830D01*
X159877781Y-156061866D01*
X159895024Y-156074654D01*
X159910930Y-156089070D01*
X159925346Y-156104976D01*
X159938134Y-156122219D01*
X159949170Y-156140632D01*
X159958349Y-156160038D01*
X159965581Y-156180250D01*
X159970797Y-156201074D01*
X159973947Y-156222309D01*
X159975000Y-156243750D01*
X159975000Y-156756250D01*
X159973947Y-156777691D01*
X159970797Y-156798926D01*
X159965581Y-156819750D01*
X159958349Y-156839962D01*
X159949170Y-156859368D01*
X159938134Y-156877781D01*
X159925346Y-156895024D01*
X159910930Y-156910930D01*
X159895024Y-156925346D01*
X159877781Y-156938134D01*
X159859368Y-156949170D01*
X159839962Y-156958349D01*
X159819750Y-156965581D01*
X159798926Y-156970797D01*
X159777691Y-156973947D01*
X159756250Y-156975000D01*
X159318750Y-156975000D01*
X159297309Y-156973947D01*
X159276074Y-156970797D01*
X159255250Y-156965581D01*
X159235038Y-156958349D01*
X159215632Y-156949170D01*
X159197219Y-156938134D01*
X159179976Y-156925346D01*
X159164070Y-156910930D01*
X159149654Y-156895024D01*
X159136866Y-156877781D01*
X159125830Y-156859368D01*
X159116651Y-156839962D01*
X159109419Y-156819750D01*
X159104203Y-156798926D01*
X159101053Y-156777691D01*
X159100000Y-156756250D01*
X159100000Y-156243750D01*
X159101053Y-156222309D01*
X159104203Y-156201074D01*
X159109419Y-156180250D01*
X159116651Y-156160038D01*
X159125830Y-156140632D01*
X159136866Y-156122219D01*
X159149654Y-156104976D01*
X159164070Y-156089070D01*
X159179976Y-156074654D01*
X159197219Y-156061866D01*
X159215632Y-156050830D01*
X159235038Y-156041651D01*
X159255250Y-156034419D01*
X159276074Y-156029203D01*
X159297309Y-156026053D01*
X159318750Y-156025000D01*
X159756250Y-156025000D01*
X159777691Y-156026053D01*
X159777691Y-156026053D01*
G37*
D18*
X159537500Y-156500000D03*
D17*
G36*
X158202691Y-156026053D02*
X158223926Y-156029203D01*
X158244750Y-156034419D01*
X158264962Y-156041651D01*
X158284368Y-156050830D01*
X158302781Y-156061866D01*
X158320024Y-156074654D01*
X158335930Y-156089070D01*
X158350346Y-156104976D01*
X158363134Y-156122219D01*
X158374170Y-156140632D01*
X158383349Y-156160038D01*
X158390581Y-156180250D01*
X158395797Y-156201074D01*
X158398947Y-156222309D01*
X158400000Y-156243750D01*
X158400000Y-156756250D01*
X158398947Y-156777691D01*
X158395797Y-156798926D01*
X158390581Y-156819750D01*
X158383349Y-156839962D01*
X158374170Y-156859368D01*
X158363134Y-156877781D01*
X158350346Y-156895024D01*
X158335930Y-156910930D01*
X158320024Y-156925346D01*
X158302781Y-156938134D01*
X158284368Y-156949170D01*
X158264962Y-156958349D01*
X158244750Y-156965581D01*
X158223926Y-156970797D01*
X158202691Y-156973947D01*
X158181250Y-156975000D01*
X157743750Y-156975000D01*
X157722309Y-156973947D01*
X157701074Y-156970797D01*
X157680250Y-156965581D01*
X157660038Y-156958349D01*
X157640632Y-156949170D01*
X157622219Y-156938134D01*
X157604976Y-156925346D01*
X157589070Y-156910930D01*
X157574654Y-156895024D01*
X157561866Y-156877781D01*
X157550830Y-156859368D01*
X157541651Y-156839962D01*
X157534419Y-156819750D01*
X157529203Y-156798926D01*
X157526053Y-156777691D01*
X157525000Y-156756250D01*
X157525000Y-156243750D01*
X157526053Y-156222309D01*
X157529203Y-156201074D01*
X157534419Y-156180250D01*
X157541651Y-156160038D01*
X157550830Y-156140632D01*
X157561866Y-156122219D01*
X157574654Y-156104976D01*
X157589070Y-156089070D01*
X157604976Y-156074654D01*
X157622219Y-156061866D01*
X157640632Y-156050830D01*
X157660038Y-156041651D01*
X157680250Y-156034419D01*
X157701074Y-156029203D01*
X157722309Y-156026053D01*
X157743750Y-156025000D01*
X158181250Y-156025000D01*
X158202691Y-156026053D01*
X158202691Y-156026053D01*
G37*
D18*
X157962500Y-156500000D03*
D17*
G36*
X160027691Y-141276053D02*
X160048926Y-141279203D01*
X160069750Y-141284419D01*
X160089962Y-141291651D01*
X160109368Y-141300830D01*
X160127781Y-141311866D01*
X160145024Y-141324654D01*
X160160930Y-141339070D01*
X160175346Y-141354976D01*
X160188134Y-141372219D01*
X160199170Y-141390632D01*
X160208349Y-141410038D01*
X160215581Y-141430250D01*
X160220797Y-141451074D01*
X160223947Y-141472309D01*
X160225000Y-141493750D01*
X160225000Y-142006250D01*
X160223947Y-142027691D01*
X160220797Y-142048926D01*
X160215581Y-142069750D01*
X160208349Y-142089962D01*
X160199170Y-142109368D01*
X160188134Y-142127781D01*
X160175346Y-142145024D01*
X160160930Y-142160930D01*
X160145024Y-142175346D01*
X160127781Y-142188134D01*
X160109368Y-142199170D01*
X160089962Y-142208349D01*
X160069750Y-142215581D01*
X160048926Y-142220797D01*
X160027691Y-142223947D01*
X160006250Y-142225000D01*
X159568750Y-142225000D01*
X159547309Y-142223947D01*
X159526074Y-142220797D01*
X159505250Y-142215581D01*
X159485038Y-142208349D01*
X159465632Y-142199170D01*
X159447219Y-142188134D01*
X159429976Y-142175346D01*
X159414070Y-142160930D01*
X159399654Y-142145024D01*
X159386866Y-142127781D01*
X159375830Y-142109368D01*
X159366651Y-142089962D01*
X159359419Y-142069750D01*
X159354203Y-142048926D01*
X159351053Y-142027691D01*
X159350000Y-142006250D01*
X159350000Y-141493750D01*
X159351053Y-141472309D01*
X159354203Y-141451074D01*
X159359419Y-141430250D01*
X159366651Y-141410038D01*
X159375830Y-141390632D01*
X159386866Y-141372219D01*
X159399654Y-141354976D01*
X159414070Y-141339070D01*
X159429976Y-141324654D01*
X159447219Y-141311866D01*
X159465632Y-141300830D01*
X159485038Y-141291651D01*
X159505250Y-141284419D01*
X159526074Y-141279203D01*
X159547309Y-141276053D01*
X159568750Y-141275000D01*
X160006250Y-141275000D01*
X160027691Y-141276053D01*
X160027691Y-141276053D01*
G37*
D18*
X159787500Y-141750000D03*
D17*
G36*
X158452691Y-141276053D02*
X158473926Y-141279203D01*
X158494750Y-141284419D01*
X158514962Y-141291651D01*
X158534368Y-141300830D01*
X158552781Y-141311866D01*
X158570024Y-141324654D01*
X158585930Y-141339070D01*
X158600346Y-141354976D01*
X158613134Y-141372219D01*
X158624170Y-141390632D01*
X158633349Y-141410038D01*
X158640581Y-141430250D01*
X158645797Y-141451074D01*
X158648947Y-141472309D01*
X158650000Y-141493750D01*
X158650000Y-142006250D01*
X158648947Y-142027691D01*
X158645797Y-142048926D01*
X158640581Y-142069750D01*
X158633349Y-142089962D01*
X158624170Y-142109368D01*
X158613134Y-142127781D01*
X158600346Y-142145024D01*
X158585930Y-142160930D01*
X158570024Y-142175346D01*
X158552781Y-142188134D01*
X158534368Y-142199170D01*
X158514962Y-142208349D01*
X158494750Y-142215581D01*
X158473926Y-142220797D01*
X158452691Y-142223947D01*
X158431250Y-142225000D01*
X157993750Y-142225000D01*
X157972309Y-142223947D01*
X157951074Y-142220797D01*
X157930250Y-142215581D01*
X157910038Y-142208349D01*
X157890632Y-142199170D01*
X157872219Y-142188134D01*
X157854976Y-142175346D01*
X157839070Y-142160930D01*
X157824654Y-142145024D01*
X157811866Y-142127781D01*
X157800830Y-142109368D01*
X157791651Y-142089962D01*
X157784419Y-142069750D01*
X157779203Y-142048926D01*
X157776053Y-142027691D01*
X157775000Y-142006250D01*
X157775000Y-141493750D01*
X157776053Y-141472309D01*
X157779203Y-141451074D01*
X157784419Y-141430250D01*
X157791651Y-141410038D01*
X157800830Y-141390632D01*
X157811866Y-141372219D01*
X157824654Y-141354976D01*
X157839070Y-141339070D01*
X157854976Y-141324654D01*
X157872219Y-141311866D01*
X157890632Y-141300830D01*
X157910038Y-141291651D01*
X157930250Y-141284419D01*
X157951074Y-141279203D01*
X157972309Y-141276053D01*
X157993750Y-141275000D01*
X158431250Y-141275000D01*
X158452691Y-141276053D01*
X158452691Y-141276053D01*
G37*
D18*
X158212500Y-141750000D03*
D17*
G36*
X150990191Y-149526053D02*
X151011426Y-149529203D01*
X151032250Y-149534419D01*
X151052462Y-149541651D01*
X151071868Y-149550830D01*
X151090281Y-149561866D01*
X151107524Y-149574654D01*
X151123430Y-149589070D01*
X151137846Y-149604976D01*
X151150634Y-149622219D01*
X151161670Y-149640632D01*
X151170849Y-149660038D01*
X151178081Y-149680250D01*
X151183297Y-149701074D01*
X151186447Y-149722309D01*
X151187500Y-149743750D01*
X151187500Y-150256250D01*
X151186447Y-150277691D01*
X151183297Y-150298926D01*
X151178081Y-150319750D01*
X151170849Y-150339962D01*
X151161670Y-150359368D01*
X151150634Y-150377781D01*
X151137846Y-150395024D01*
X151123430Y-150410930D01*
X151107524Y-150425346D01*
X151090281Y-150438134D01*
X151071868Y-150449170D01*
X151052462Y-150458349D01*
X151032250Y-150465581D01*
X151011426Y-150470797D01*
X150990191Y-150473947D01*
X150968750Y-150475000D01*
X150531250Y-150475000D01*
X150509809Y-150473947D01*
X150488574Y-150470797D01*
X150467750Y-150465581D01*
X150447538Y-150458349D01*
X150428132Y-150449170D01*
X150409719Y-150438134D01*
X150392476Y-150425346D01*
X150376570Y-150410930D01*
X150362154Y-150395024D01*
X150349366Y-150377781D01*
X150338330Y-150359368D01*
X150329151Y-150339962D01*
X150321919Y-150319750D01*
X150316703Y-150298926D01*
X150313553Y-150277691D01*
X150312500Y-150256250D01*
X150312500Y-149743750D01*
X150313553Y-149722309D01*
X150316703Y-149701074D01*
X150321919Y-149680250D01*
X150329151Y-149660038D01*
X150338330Y-149640632D01*
X150349366Y-149622219D01*
X150362154Y-149604976D01*
X150376570Y-149589070D01*
X150392476Y-149574654D01*
X150409719Y-149561866D01*
X150428132Y-149550830D01*
X150447538Y-149541651D01*
X150467750Y-149534419D01*
X150488574Y-149529203D01*
X150509809Y-149526053D01*
X150531250Y-149525000D01*
X150968750Y-149525000D01*
X150990191Y-149526053D01*
X150990191Y-149526053D01*
G37*
D18*
X150750000Y-150000000D03*
D17*
G36*
X152565191Y-149526053D02*
X152586426Y-149529203D01*
X152607250Y-149534419D01*
X152627462Y-149541651D01*
X152646868Y-149550830D01*
X152665281Y-149561866D01*
X152682524Y-149574654D01*
X152698430Y-149589070D01*
X152712846Y-149604976D01*
X152725634Y-149622219D01*
X152736670Y-149640632D01*
X152745849Y-149660038D01*
X152753081Y-149680250D01*
X152758297Y-149701074D01*
X152761447Y-149722309D01*
X152762500Y-149743750D01*
X152762500Y-150256250D01*
X152761447Y-150277691D01*
X152758297Y-150298926D01*
X152753081Y-150319750D01*
X152745849Y-150339962D01*
X152736670Y-150359368D01*
X152725634Y-150377781D01*
X152712846Y-150395024D01*
X152698430Y-150410930D01*
X152682524Y-150425346D01*
X152665281Y-150438134D01*
X152646868Y-150449170D01*
X152627462Y-150458349D01*
X152607250Y-150465581D01*
X152586426Y-150470797D01*
X152565191Y-150473947D01*
X152543750Y-150475000D01*
X152106250Y-150475000D01*
X152084809Y-150473947D01*
X152063574Y-150470797D01*
X152042750Y-150465581D01*
X152022538Y-150458349D01*
X152003132Y-150449170D01*
X151984719Y-150438134D01*
X151967476Y-150425346D01*
X151951570Y-150410930D01*
X151937154Y-150395024D01*
X151924366Y-150377781D01*
X151913330Y-150359368D01*
X151904151Y-150339962D01*
X151896919Y-150319750D01*
X151891703Y-150298926D01*
X151888553Y-150277691D01*
X151887500Y-150256250D01*
X151887500Y-149743750D01*
X151888553Y-149722309D01*
X151891703Y-149701074D01*
X151896919Y-149680250D01*
X151904151Y-149660038D01*
X151913330Y-149640632D01*
X151924366Y-149622219D01*
X151937154Y-149604976D01*
X151951570Y-149589070D01*
X151967476Y-149574654D01*
X151984719Y-149561866D01*
X152003132Y-149550830D01*
X152022538Y-149541651D01*
X152042750Y-149534419D01*
X152063574Y-149529203D01*
X152084809Y-149526053D01*
X152106250Y-149525000D01*
X152543750Y-149525000D01*
X152565191Y-149526053D01*
X152565191Y-149526053D01*
G37*
D18*
X152325000Y-150000000D03*
D17*
G36*
X162240191Y-141276053D02*
X162261426Y-141279203D01*
X162282250Y-141284419D01*
X162302462Y-141291651D01*
X162321868Y-141300830D01*
X162340281Y-141311866D01*
X162357524Y-141324654D01*
X162373430Y-141339070D01*
X162387846Y-141354976D01*
X162400634Y-141372219D01*
X162411670Y-141390632D01*
X162420849Y-141410038D01*
X162428081Y-141430250D01*
X162433297Y-141451074D01*
X162436447Y-141472309D01*
X162437500Y-141493750D01*
X162437500Y-142006250D01*
X162436447Y-142027691D01*
X162433297Y-142048926D01*
X162428081Y-142069750D01*
X162420849Y-142089962D01*
X162411670Y-142109368D01*
X162400634Y-142127781D01*
X162387846Y-142145024D01*
X162373430Y-142160930D01*
X162357524Y-142175346D01*
X162340281Y-142188134D01*
X162321868Y-142199170D01*
X162302462Y-142208349D01*
X162282250Y-142215581D01*
X162261426Y-142220797D01*
X162240191Y-142223947D01*
X162218750Y-142225000D01*
X161781250Y-142225000D01*
X161759809Y-142223947D01*
X161738574Y-142220797D01*
X161717750Y-142215581D01*
X161697538Y-142208349D01*
X161678132Y-142199170D01*
X161659719Y-142188134D01*
X161642476Y-142175346D01*
X161626570Y-142160930D01*
X161612154Y-142145024D01*
X161599366Y-142127781D01*
X161588330Y-142109368D01*
X161579151Y-142089962D01*
X161571919Y-142069750D01*
X161566703Y-142048926D01*
X161563553Y-142027691D01*
X161562500Y-142006250D01*
X161562500Y-141493750D01*
X161563553Y-141472309D01*
X161566703Y-141451074D01*
X161571919Y-141430250D01*
X161579151Y-141410038D01*
X161588330Y-141390632D01*
X161599366Y-141372219D01*
X161612154Y-141354976D01*
X161626570Y-141339070D01*
X161642476Y-141324654D01*
X161659719Y-141311866D01*
X161678132Y-141300830D01*
X161697538Y-141291651D01*
X161717750Y-141284419D01*
X161738574Y-141279203D01*
X161759809Y-141276053D01*
X161781250Y-141275000D01*
X162218750Y-141275000D01*
X162240191Y-141276053D01*
X162240191Y-141276053D01*
G37*
D18*
X162000000Y-141750000D03*
D17*
G36*
X163815191Y-141276053D02*
X163836426Y-141279203D01*
X163857250Y-141284419D01*
X163877462Y-141291651D01*
X163896868Y-141300830D01*
X163915281Y-141311866D01*
X163932524Y-141324654D01*
X163948430Y-141339070D01*
X163962846Y-141354976D01*
X163975634Y-141372219D01*
X163986670Y-141390632D01*
X163995849Y-141410038D01*
X164003081Y-141430250D01*
X164008297Y-141451074D01*
X164011447Y-141472309D01*
X164012500Y-141493750D01*
X164012500Y-142006250D01*
X164011447Y-142027691D01*
X164008297Y-142048926D01*
X164003081Y-142069750D01*
X163995849Y-142089962D01*
X163986670Y-142109368D01*
X163975634Y-142127781D01*
X163962846Y-142145024D01*
X163948430Y-142160930D01*
X163932524Y-142175346D01*
X163915281Y-142188134D01*
X163896868Y-142199170D01*
X163877462Y-142208349D01*
X163857250Y-142215581D01*
X163836426Y-142220797D01*
X163815191Y-142223947D01*
X163793750Y-142225000D01*
X163356250Y-142225000D01*
X163334809Y-142223947D01*
X163313574Y-142220797D01*
X163292750Y-142215581D01*
X163272538Y-142208349D01*
X163253132Y-142199170D01*
X163234719Y-142188134D01*
X163217476Y-142175346D01*
X163201570Y-142160930D01*
X163187154Y-142145024D01*
X163174366Y-142127781D01*
X163163330Y-142109368D01*
X163154151Y-142089962D01*
X163146919Y-142069750D01*
X163141703Y-142048926D01*
X163138553Y-142027691D01*
X163137500Y-142006250D01*
X163137500Y-141493750D01*
X163138553Y-141472309D01*
X163141703Y-141451074D01*
X163146919Y-141430250D01*
X163154151Y-141410038D01*
X163163330Y-141390632D01*
X163174366Y-141372219D01*
X163187154Y-141354976D01*
X163201570Y-141339070D01*
X163217476Y-141324654D01*
X163234719Y-141311866D01*
X163253132Y-141300830D01*
X163272538Y-141291651D01*
X163292750Y-141284419D01*
X163313574Y-141279203D01*
X163334809Y-141276053D01*
X163356250Y-141275000D01*
X163793750Y-141275000D01*
X163815191Y-141276053D01*
X163815191Y-141276053D01*
G37*
D18*
X163575000Y-141750000D03*
D17*
G36*
X152527691Y-147526053D02*
X152548926Y-147529203D01*
X152569750Y-147534419D01*
X152589962Y-147541651D01*
X152609368Y-147550830D01*
X152627781Y-147561866D01*
X152645024Y-147574654D01*
X152660930Y-147589070D01*
X152675346Y-147604976D01*
X152688134Y-147622219D01*
X152699170Y-147640632D01*
X152708349Y-147660038D01*
X152715581Y-147680250D01*
X152720797Y-147701074D01*
X152723947Y-147722309D01*
X152725000Y-147743750D01*
X152725000Y-148256250D01*
X152723947Y-148277691D01*
X152720797Y-148298926D01*
X152715581Y-148319750D01*
X152708349Y-148339962D01*
X152699170Y-148359368D01*
X152688134Y-148377781D01*
X152675346Y-148395024D01*
X152660930Y-148410930D01*
X152645024Y-148425346D01*
X152627781Y-148438134D01*
X152609368Y-148449170D01*
X152589962Y-148458349D01*
X152569750Y-148465581D01*
X152548926Y-148470797D01*
X152527691Y-148473947D01*
X152506250Y-148475000D01*
X152068750Y-148475000D01*
X152047309Y-148473947D01*
X152026074Y-148470797D01*
X152005250Y-148465581D01*
X151985038Y-148458349D01*
X151965632Y-148449170D01*
X151947219Y-148438134D01*
X151929976Y-148425346D01*
X151914070Y-148410930D01*
X151899654Y-148395024D01*
X151886866Y-148377781D01*
X151875830Y-148359368D01*
X151866651Y-148339962D01*
X151859419Y-148319750D01*
X151854203Y-148298926D01*
X151851053Y-148277691D01*
X151850000Y-148256250D01*
X151850000Y-147743750D01*
X151851053Y-147722309D01*
X151854203Y-147701074D01*
X151859419Y-147680250D01*
X151866651Y-147660038D01*
X151875830Y-147640632D01*
X151886866Y-147622219D01*
X151899654Y-147604976D01*
X151914070Y-147589070D01*
X151929976Y-147574654D01*
X151947219Y-147561866D01*
X151965632Y-147550830D01*
X151985038Y-147541651D01*
X152005250Y-147534419D01*
X152026074Y-147529203D01*
X152047309Y-147526053D01*
X152068750Y-147525000D01*
X152506250Y-147525000D01*
X152527691Y-147526053D01*
X152527691Y-147526053D01*
G37*
D18*
X152287500Y-148000000D03*
D17*
G36*
X150952691Y-147526053D02*
X150973926Y-147529203D01*
X150994750Y-147534419D01*
X151014962Y-147541651D01*
X151034368Y-147550830D01*
X151052781Y-147561866D01*
X151070024Y-147574654D01*
X151085930Y-147589070D01*
X151100346Y-147604976D01*
X151113134Y-147622219D01*
X151124170Y-147640632D01*
X151133349Y-147660038D01*
X151140581Y-147680250D01*
X151145797Y-147701074D01*
X151148947Y-147722309D01*
X151150000Y-147743750D01*
X151150000Y-148256250D01*
X151148947Y-148277691D01*
X151145797Y-148298926D01*
X151140581Y-148319750D01*
X151133349Y-148339962D01*
X151124170Y-148359368D01*
X151113134Y-148377781D01*
X151100346Y-148395024D01*
X151085930Y-148410930D01*
X151070024Y-148425346D01*
X151052781Y-148438134D01*
X151034368Y-148449170D01*
X151014962Y-148458349D01*
X150994750Y-148465581D01*
X150973926Y-148470797D01*
X150952691Y-148473947D01*
X150931250Y-148475000D01*
X150493750Y-148475000D01*
X150472309Y-148473947D01*
X150451074Y-148470797D01*
X150430250Y-148465581D01*
X150410038Y-148458349D01*
X150390632Y-148449170D01*
X150372219Y-148438134D01*
X150354976Y-148425346D01*
X150339070Y-148410930D01*
X150324654Y-148395024D01*
X150311866Y-148377781D01*
X150300830Y-148359368D01*
X150291651Y-148339962D01*
X150284419Y-148319750D01*
X150279203Y-148298926D01*
X150276053Y-148277691D01*
X150275000Y-148256250D01*
X150275000Y-147743750D01*
X150276053Y-147722309D01*
X150279203Y-147701074D01*
X150284419Y-147680250D01*
X150291651Y-147660038D01*
X150300830Y-147640632D01*
X150311866Y-147622219D01*
X150324654Y-147604976D01*
X150339070Y-147589070D01*
X150354976Y-147574654D01*
X150372219Y-147561866D01*
X150390632Y-147550830D01*
X150410038Y-147541651D01*
X150430250Y-147534419D01*
X150451074Y-147529203D01*
X150472309Y-147526053D01*
X150493750Y-147525000D01*
X150931250Y-147525000D01*
X150952691Y-147526053D01*
X150952691Y-147526053D01*
G37*
D18*
X150712500Y-148000000D03*
D17*
G36*
X162315191Y-169276053D02*
X162336426Y-169279203D01*
X162357250Y-169284419D01*
X162377462Y-169291651D01*
X162396868Y-169300830D01*
X162415281Y-169311866D01*
X162432524Y-169324654D01*
X162448430Y-169339070D01*
X162462846Y-169354976D01*
X162475634Y-169372219D01*
X162486670Y-169390632D01*
X162495849Y-169410038D01*
X162503081Y-169430250D01*
X162508297Y-169451074D01*
X162511447Y-169472309D01*
X162512500Y-169493750D01*
X162512500Y-170006250D01*
X162511447Y-170027691D01*
X162508297Y-170048926D01*
X162503081Y-170069750D01*
X162495849Y-170089962D01*
X162486670Y-170109368D01*
X162475634Y-170127781D01*
X162462846Y-170145024D01*
X162448430Y-170160930D01*
X162432524Y-170175346D01*
X162415281Y-170188134D01*
X162396868Y-170199170D01*
X162377462Y-170208349D01*
X162357250Y-170215581D01*
X162336426Y-170220797D01*
X162315191Y-170223947D01*
X162293750Y-170225000D01*
X161856250Y-170225000D01*
X161834809Y-170223947D01*
X161813574Y-170220797D01*
X161792750Y-170215581D01*
X161772538Y-170208349D01*
X161753132Y-170199170D01*
X161734719Y-170188134D01*
X161717476Y-170175346D01*
X161701570Y-170160930D01*
X161687154Y-170145024D01*
X161674366Y-170127781D01*
X161663330Y-170109368D01*
X161654151Y-170089962D01*
X161646919Y-170069750D01*
X161641703Y-170048926D01*
X161638553Y-170027691D01*
X161637500Y-170006250D01*
X161637500Y-169493750D01*
X161638553Y-169472309D01*
X161641703Y-169451074D01*
X161646919Y-169430250D01*
X161654151Y-169410038D01*
X161663330Y-169390632D01*
X161674366Y-169372219D01*
X161687154Y-169354976D01*
X161701570Y-169339070D01*
X161717476Y-169324654D01*
X161734719Y-169311866D01*
X161753132Y-169300830D01*
X161772538Y-169291651D01*
X161792750Y-169284419D01*
X161813574Y-169279203D01*
X161834809Y-169276053D01*
X161856250Y-169275000D01*
X162293750Y-169275000D01*
X162315191Y-169276053D01*
X162315191Y-169276053D01*
G37*
D18*
X162075000Y-169750000D03*
D17*
G36*
X160740191Y-169276053D02*
X160761426Y-169279203D01*
X160782250Y-169284419D01*
X160802462Y-169291651D01*
X160821868Y-169300830D01*
X160840281Y-169311866D01*
X160857524Y-169324654D01*
X160873430Y-169339070D01*
X160887846Y-169354976D01*
X160900634Y-169372219D01*
X160911670Y-169390632D01*
X160920849Y-169410038D01*
X160928081Y-169430250D01*
X160933297Y-169451074D01*
X160936447Y-169472309D01*
X160937500Y-169493750D01*
X160937500Y-170006250D01*
X160936447Y-170027691D01*
X160933297Y-170048926D01*
X160928081Y-170069750D01*
X160920849Y-170089962D01*
X160911670Y-170109368D01*
X160900634Y-170127781D01*
X160887846Y-170145024D01*
X160873430Y-170160930D01*
X160857524Y-170175346D01*
X160840281Y-170188134D01*
X160821868Y-170199170D01*
X160802462Y-170208349D01*
X160782250Y-170215581D01*
X160761426Y-170220797D01*
X160740191Y-170223947D01*
X160718750Y-170225000D01*
X160281250Y-170225000D01*
X160259809Y-170223947D01*
X160238574Y-170220797D01*
X160217750Y-170215581D01*
X160197538Y-170208349D01*
X160178132Y-170199170D01*
X160159719Y-170188134D01*
X160142476Y-170175346D01*
X160126570Y-170160930D01*
X160112154Y-170145024D01*
X160099366Y-170127781D01*
X160088330Y-170109368D01*
X160079151Y-170089962D01*
X160071919Y-170069750D01*
X160066703Y-170048926D01*
X160063553Y-170027691D01*
X160062500Y-170006250D01*
X160062500Y-169493750D01*
X160063553Y-169472309D01*
X160066703Y-169451074D01*
X160071919Y-169430250D01*
X160079151Y-169410038D01*
X160088330Y-169390632D01*
X160099366Y-169372219D01*
X160112154Y-169354976D01*
X160126570Y-169339070D01*
X160142476Y-169324654D01*
X160159719Y-169311866D01*
X160178132Y-169300830D01*
X160197538Y-169291651D01*
X160217750Y-169284419D01*
X160238574Y-169279203D01*
X160259809Y-169276053D01*
X160281250Y-169275000D01*
X160718750Y-169275000D01*
X160740191Y-169276053D01*
X160740191Y-169276053D01*
G37*
D18*
X160500000Y-169750000D03*
D17*
G36*
X168027691Y-141276053D02*
X168048926Y-141279203D01*
X168069750Y-141284419D01*
X168089962Y-141291651D01*
X168109368Y-141300830D01*
X168127781Y-141311866D01*
X168145024Y-141324654D01*
X168160930Y-141339070D01*
X168175346Y-141354976D01*
X168188134Y-141372219D01*
X168199170Y-141390632D01*
X168208349Y-141410038D01*
X168215581Y-141430250D01*
X168220797Y-141451074D01*
X168223947Y-141472309D01*
X168225000Y-141493750D01*
X168225000Y-142006250D01*
X168223947Y-142027691D01*
X168220797Y-142048926D01*
X168215581Y-142069750D01*
X168208349Y-142089962D01*
X168199170Y-142109368D01*
X168188134Y-142127781D01*
X168175346Y-142145024D01*
X168160930Y-142160930D01*
X168145024Y-142175346D01*
X168127781Y-142188134D01*
X168109368Y-142199170D01*
X168089962Y-142208349D01*
X168069750Y-142215581D01*
X168048926Y-142220797D01*
X168027691Y-142223947D01*
X168006250Y-142225000D01*
X167568750Y-142225000D01*
X167547309Y-142223947D01*
X167526074Y-142220797D01*
X167505250Y-142215581D01*
X167485038Y-142208349D01*
X167465632Y-142199170D01*
X167447219Y-142188134D01*
X167429976Y-142175346D01*
X167414070Y-142160930D01*
X167399654Y-142145024D01*
X167386866Y-142127781D01*
X167375830Y-142109368D01*
X167366651Y-142089962D01*
X167359419Y-142069750D01*
X167354203Y-142048926D01*
X167351053Y-142027691D01*
X167350000Y-142006250D01*
X167350000Y-141493750D01*
X167351053Y-141472309D01*
X167354203Y-141451074D01*
X167359419Y-141430250D01*
X167366651Y-141410038D01*
X167375830Y-141390632D01*
X167386866Y-141372219D01*
X167399654Y-141354976D01*
X167414070Y-141339070D01*
X167429976Y-141324654D01*
X167447219Y-141311866D01*
X167465632Y-141300830D01*
X167485038Y-141291651D01*
X167505250Y-141284419D01*
X167526074Y-141279203D01*
X167547309Y-141276053D01*
X167568750Y-141275000D01*
X168006250Y-141275000D01*
X168027691Y-141276053D01*
X168027691Y-141276053D01*
G37*
D18*
X167787500Y-141750000D03*
D17*
G36*
X166452691Y-141276053D02*
X166473926Y-141279203D01*
X166494750Y-141284419D01*
X166514962Y-141291651D01*
X166534368Y-141300830D01*
X166552781Y-141311866D01*
X166570024Y-141324654D01*
X166585930Y-141339070D01*
X166600346Y-141354976D01*
X166613134Y-141372219D01*
X166624170Y-141390632D01*
X166633349Y-141410038D01*
X166640581Y-141430250D01*
X166645797Y-141451074D01*
X166648947Y-141472309D01*
X166650000Y-141493750D01*
X166650000Y-142006250D01*
X166648947Y-142027691D01*
X166645797Y-142048926D01*
X166640581Y-142069750D01*
X166633349Y-142089962D01*
X166624170Y-142109368D01*
X166613134Y-142127781D01*
X166600346Y-142145024D01*
X166585930Y-142160930D01*
X166570024Y-142175346D01*
X166552781Y-142188134D01*
X166534368Y-142199170D01*
X166514962Y-142208349D01*
X166494750Y-142215581D01*
X166473926Y-142220797D01*
X166452691Y-142223947D01*
X166431250Y-142225000D01*
X165993750Y-142225000D01*
X165972309Y-142223947D01*
X165951074Y-142220797D01*
X165930250Y-142215581D01*
X165910038Y-142208349D01*
X165890632Y-142199170D01*
X165872219Y-142188134D01*
X165854976Y-142175346D01*
X165839070Y-142160930D01*
X165824654Y-142145024D01*
X165811866Y-142127781D01*
X165800830Y-142109368D01*
X165791651Y-142089962D01*
X165784419Y-142069750D01*
X165779203Y-142048926D01*
X165776053Y-142027691D01*
X165775000Y-142006250D01*
X165775000Y-141493750D01*
X165776053Y-141472309D01*
X165779203Y-141451074D01*
X165784419Y-141430250D01*
X165791651Y-141410038D01*
X165800830Y-141390632D01*
X165811866Y-141372219D01*
X165824654Y-141354976D01*
X165839070Y-141339070D01*
X165854976Y-141324654D01*
X165872219Y-141311866D01*
X165890632Y-141300830D01*
X165910038Y-141291651D01*
X165930250Y-141284419D01*
X165951074Y-141279203D01*
X165972309Y-141276053D01*
X165993750Y-141275000D01*
X166431250Y-141275000D01*
X166452691Y-141276053D01*
X166452691Y-141276053D01*
G37*
D18*
X166212500Y-141750000D03*
D17*
G36*
X164527691Y-163276053D02*
X164548926Y-163279203D01*
X164569750Y-163284419D01*
X164589962Y-163291651D01*
X164609368Y-163300830D01*
X164627781Y-163311866D01*
X164645024Y-163324654D01*
X164660930Y-163339070D01*
X164675346Y-163354976D01*
X164688134Y-163372219D01*
X164699170Y-163390632D01*
X164708349Y-163410038D01*
X164715581Y-163430250D01*
X164720797Y-163451074D01*
X164723947Y-163472309D01*
X164725000Y-163493750D01*
X164725000Y-164006250D01*
X164723947Y-164027691D01*
X164720797Y-164048926D01*
X164715581Y-164069750D01*
X164708349Y-164089962D01*
X164699170Y-164109368D01*
X164688134Y-164127781D01*
X164675346Y-164145024D01*
X164660930Y-164160930D01*
X164645024Y-164175346D01*
X164627781Y-164188134D01*
X164609368Y-164199170D01*
X164589962Y-164208349D01*
X164569750Y-164215581D01*
X164548926Y-164220797D01*
X164527691Y-164223947D01*
X164506250Y-164225000D01*
X164068750Y-164225000D01*
X164047309Y-164223947D01*
X164026074Y-164220797D01*
X164005250Y-164215581D01*
X163985038Y-164208349D01*
X163965632Y-164199170D01*
X163947219Y-164188134D01*
X163929976Y-164175346D01*
X163914070Y-164160930D01*
X163899654Y-164145024D01*
X163886866Y-164127781D01*
X163875830Y-164109368D01*
X163866651Y-164089962D01*
X163859419Y-164069750D01*
X163854203Y-164048926D01*
X163851053Y-164027691D01*
X163850000Y-164006250D01*
X163850000Y-163493750D01*
X163851053Y-163472309D01*
X163854203Y-163451074D01*
X163859419Y-163430250D01*
X163866651Y-163410038D01*
X163875830Y-163390632D01*
X163886866Y-163372219D01*
X163899654Y-163354976D01*
X163914070Y-163339070D01*
X163929976Y-163324654D01*
X163947219Y-163311866D01*
X163965632Y-163300830D01*
X163985038Y-163291651D01*
X164005250Y-163284419D01*
X164026074Y-163279203D01*
X164047309Y-163276053D01*
X164068750Y-163275000D01*
X164506250Y-163275000D01*
X164527691Y-163276053D01*
X164527691Y-163276053D01*
G37*
D18*
X164287500Y-163750000D03*
D17*
G36*
X162952691Y-163276053D02*
X162973926Y-163279203D01*
X162994750Y-163284419D01*
X163014962Y-163291651D01*
X163034368Y-163300830D01*
X163052781Y-163311866D01*
X163070024Y-163324654D01*
X163085930Y-163339070D01*
X163100346Y-163354976D01*
X163113134Y-163372219D01*
X163124170Y-163390632D01*
X163133349Y-163410038D01*
X163140581Y-163430250D01*
X163145797Y-163451074D01*
X163148947Y-163472309D01*
X163150000Y-163493750D01*
X163150000Y-164006250D01*
X163148947Y-164027691D01*
X163145797Y-164048926D01*
X163140581Y-164069750D01*
X163133349Y-164089962D01*
X163124170Y-164109368D01*
X163113134Y-164127781D01*
X163100346Y-164145024D01*
X163085930Y-164160930D01*
X163070024Y-164175346D01*
X163052781Y-164188134D01*
X163034368Y-164199170D01*
X163014962Y-164208349D01*
X162994750Y-164215581D01*
X162973926Y-164220797D01*
X162952691Y-164223947D01*
X162931250Y-164225000D01*
X162493750Y-164225000D01*
X162472309Y-164223947D01*
X162451074Y-164220797D01*
X162430250Y-164215581D01*
X162410038Y-164208349D01*
X162390632Y-164199170D01*
X162372219Y-164188134D01*
X162354976Y-164175346D01*
X162339070Y-164160930D01*
X162324654Y-164145024D01*
X162311866Y-164127781D01*
X162300830Y-164109368D01*
X162291651Y-164089962D01*
X162284419Y-164069750D01*
X162279203Y-164048926D01*
X162276053Y-164027691D01*
X162275000Y-164006250D01*
X162275000Y-163493750D01*
X162276053Y-163472309D01*
X162279203Y-163451074D01*
X162284419Y-163430250D01*
X162291651Y-163410038D01*
X162300830Y-163390632D01*
X162311866Y-163372219D01*
X162324654Y-163354976D01*
X162339070Y-163339070D01*
X162354976Y-163324654D01*
X162372219Y-163311866D01*
X162390632Y-163300830D01*
X162410038Y-163291651D01*
X162430250Y-163284419D01*
X162451074Y-163279203D01*
X162472309Y-163276053D01*
X162493750Y-163275000D01*
X162931250Y-163275000D01*
X162952691Y-163276053D01*
X162952691Y-163276053D01*
G37*
D18*
X162712500Y-163750000D03*
D17*
G36*
X160702691Y-172026053D02*
X160723926Y-172029203D01*
X160744750Y-172034419D01*
X160764962Y-172041651D01*
X160784368Y-172050830D01*
X160802781Y-172061866D01*
X160820024Y-172074654D01*
X160835930Y-172089070D01*
X160850346Y-172104976D01*
X160863134Y-172122219D01*
X160874170Y-172140632D01*
X160883349Y-172160038D01*
X160890581Y-172180250D01*
X160895797Y-172201074D01*
X160898947Y-172222309D01*
X160900000Y-172243750D01*
X160900000Y-172756250D01*
X160898947Y-172777691D01*
X160895797Y-172798926D01*
X160890581Y-172819750D01*
X160883349Y-172839962D01*
X160874170Y-172859368D01*
X160863134Y-172877781D01*
X160850346Y-172895024D01*
X160835930Y-172910930D01*
X160820024Y-172925346D01*
X160802781Y-172938134D01*
X160784368Y-172949170D01*
X160764962Y-172958349D01*
X160744750Y-172965581D01*
X160723926Y-172970797D01*
X160702691Y-172973947D01*
X160681250Y-172975000D01*
X160243750Y-172975000D01*
X160222309Y-172973947D01*
X160201074Y-172970797D01*
X160180250Y-172965581D01*
X160160038Y-172958349D01*
X160140632Y-172949170D01*
X160122219Y-172938134D01*
X160104976Y-172925346D01*
X160089070Y-172910930D01*
X160074654Y-172895024D01*
X160061866Y-172877781D01*
X160050830Y-172859368D01*
X160041651Y-172839962D01*
X160034419Y-172819750D01*
X160029203Y-172798926D01*
X160026053Y-172777691D01*
X160025000Y-172756250D01*
X160025000Y-172243750D01*
X160026053Y-172222309D01*
X160029203Y-172201074D01*
X160034419Y-172180250D01*
X160041651Y-172160038D01*
X160050830Y-172140632D01*
X160061866Y-172122219D01*
X160074654Y-172104976D01*
X160089070Y-172089070D01*
X160104976Y-172074654D01*
X160122219Y-172061866D01*
X160140632Y-172050830D01*
X160160038Y-172041651D01*
X160180250Y-172034419D01*
X160201074Y-172029203D01*
X160222309Y-172026053D01*
X160243750Y-172025000D01*
X160681250Y-172025000D01*
X160702691Y-172026053D01*
X160702691Y-172026053D01*
G37*
D18*
X160462500Y-172500000D03*
D17*
G36*
X162277691Y-172026053D02*
X162298926Y-172029203D01*
X162319750Y-172034419D01*
X162339962Y-172041651D01*
X162359368Y-172050830D01*
X162377781Y-172061866D01*
X162395024Y-172074654D01*
X162410930Y-172089070D01*
X162425346Y-172104976D01*
X162438134Y-172122219D01*
X162449170Y-172140632D01*
X162458349Y-172160038D01*
X162465581Y-172180250D01*
X162470797Y-172201074D01*
X162473947Y-172222309D01*
X162475000Y-172243750D01*
X162475000Y-172756250D01*
X162473947Y-172777691D01*
X162470797Y-172798926D01*
X162465581Y-172819750D01*
X162458349Y-172839962D01*
X162449170Y-172859368D01*
X162438134Y-172877781D01*
X162425346Y-172895024D01*
X162410930Y-172910930D01*
X162395024Y-172925346D01*
X162377781Y-172938134D01*
X162359368Y-172949170D01*
X162339962Y-172958349D01*
X162319750Y-172965581D01*
X162298926Y-172970797D01*
X162277691Y-172973947D01*
X162256250Y-172975000D01*
X161818750Y-172975000D01*
X161797309Y-172973947D01*
X161776074Y-172970797D01*
X161755250Y-172965581D01*
X161735038Y-172958349D01*
X161715632Y-172949170D01*
X161697219Y-172938134D01*
X161679976Y-172925346D01*
X161664070Y-172910930D01*
X161649654Y-172895024D01*
X161636866Y-172877781D01*
X161625830Y-172859368D01*
X161616651Y-172839962D01*
X161609419Y-172819750D01*
X161604203Y-172798926D01*
X161601053Y-172777691D01*
X161600000Y-172756250D01*
X161600000Y-172243750D01*
X161601053Y-172222309D01*
X161604203Y-172201074D01*
X161609419Y-172180250D01*
X161616651Y-172160038D01*
X161625830Y-172140632D01*
X161636866Y-172122219D01*
X161649654Y-172104976D01*
X161664070Y-172089070D01*
X161679976Y-172074654D01*
X161697219Y-172061866D01*
X161715632Y-172050830D01*
X161735038Y-172041651D01*
X161755250Y-172034419D01*
X161776074Y-172029203D01*
X161797309Y-172026053D01*
X161818750Y-172025000D01*
X162256250Y-172025000D01*
X162277691Y-172026053D01*
X162277691Y-172026053D01*
G37*
D18*
X162037500Y-172500000D03*
D19*
X155500000Y-170500000D03*
X153500000Y-170500000D03*
D20*
X157850000Y-176050000D03*
X151150000Y-176050000D03*
D21*
X167000000Y-149000000D03*
X167000000Y-148350000D03*
X167000000Y-147700000D03*
X167000000Y-149650000D03*
X167000000Y-150300000D03*
D17*
G36*
X155240191Y-158026053D02*
X155261426Y-158029203D01*
X155282250Y-158034419D01*
X155302462Y-158041651D01*
X155321868Y-158050830D01*
X155340281Y-158061866D01*
X155357524Y-158074654D01*
X155373430Y-158089070D01*
X155387846Y-158104976D01*
X155400634Y-158122219D01*
X155411670Y-158140632D01*
X155420849Y-158160038D01*
X155428081Y-158180250D01*
X155433297Y-158201074D01*
X155436447Y-158222309D01*
X155437500Y-158243750D01*
X155437500Y-158756250D01*
X155436447Y-158777691D01*
X155433297Y-158798926D01*
X155428081Y-158819750D01*
X155420849Y-158839962D01*
X155411670Y-158859368D01*
X155400634Y-158877781D01*
X155387846Y-158895024D01*
X155373430Y-158910930D01*
X155357524Y-158925346D01*
X155340281Y-158938134D01*
X155321868Y-158949170D01*
X155302462Y-158958349D01*
X155282250Y-158965581D01*
X155261426Y-158970797D01*
X155240191Y-158973947D01*
X155218750Y-158975000D01*
X154781250Y-158975000D01*
X154759809Y-158973947D01*
X154738574Y-158970797D01*
X154717750Y-158965581D01*
X154697538Y-158958349D01*
X154678132Y-158949170D01*
X154659719Y-158938134D01*
X154642476Y-158925346D01*
X154626570Y-158910930D01*
X154612154Y-158895024D01*
X154599366Y-158877781D01*
X154588330Y-158859368D01*
X154579151Y-158839962D01*
X154571919Y-158819750D01*
X154566703Y-158798926D01*
X154563553Y-158777691D01*
X154562500Y-158756250D01*
X154562500Y-158243750D01*
X154563553Y-158222309D01*
X154566703Y-158201074D01*
X154571919Y-158180250D01*
X154579151Y-158160038D01*
X154588330Y-158140632D01*
X154599366Y-158122219D01*
X154612154Y-158104976D01*
X154626570Y-158089070D01*
X154642476Y-158074654D01*
X154659719Y-158061866D01*
X154678132Y-158050830D01*
X154697538Y-158041651D01*
X154717750Y-158034419D01*
X154738574Y-158029203D01*
X154759809Y-158026053D01*
X154781250Y-158025000D01*
X155218750Y-158025000D01*
X155240191Y-158026053D01*
X155240191Y-158026053D01*
G37*
D18*
X155000000Y-158500000D03*
D17*
G36*
X156815191Y-158026053D02*
X156836426Y-158029203D01*
X156857250Y-158034419D01*
X156877462Y-158041651D01*
X156896868Y-158050830D01*
X156915281Y-158061866D01*
X156932524Y-158074654D01*
X156948430Y-158089070D01*
X156962846Y-158104976D01*
X156975634Y-158122219D01*
X156986670Y-158140632D01*
X156995849Y-158160038D01*
X157003081Y-158180250D01*
X157008297Y-158201074D01*
X157011447Y-158222309D01*
X157012500Y-158243750D01*
X157012500Y-158756250D01*
X157011447Y-158777691D01*
X157008297Y-158798926D01*
X157003081Y-158819750D01*
X156995849Y-158839962D01*
X156986670Y-158859368D01*
X156975634Y-158877781D01*
X156962846Y-158895024D01*
X156948430Y-158910930D01*
X156932524Y-158925346D01*
X156915281Y-158938134D01*
X156896868Y-158949170D01*
X156877462Y-158958349D01*
X156857250Y-158965581D01*
X156836426Y-158970797D01*
X156815191Y-158973947D01*
X156793750Y-158975000D01*
X156356250Y-158975000D01*
X156334809Y-158973947D01*
X156313574Y-158970797D01*
X156292750Y-158965581D01*
X156272538Y-158958349D01*
X156253132Y-158949170D01*
X156234719Y-158938134D01*
X156217476Y-158925346D01*
X156201570Y-158910930D01*
X156187154Y-158895024D01*
X156174366Y-158877781D01*
X156163330Y-158859368D01*
X156154151Y-158839962D01*
X156146919Y-158819750D01*
X156141703Y-158798926D01*
X156138553Y-158777691D01*
X156137500Y-158756250D01*
X156137500Y-158243750D01*
X156138553Y-158222309D01*
X156141703Y-158201074D01*
X156146919Y-158180250D01*
X156154151Y-158160038D01*
X156163330Y-158140632D01*
X156174366Y-158122219D01*
X156187154Y-158104976D01*
X156201570Y-158089070D01*
X156217476Y-158074654D01*
X156234719Y-158061866D01*
X156253132Y-158050830D01*
X156272538Y-158041651D01*
X156292750Y-158034419D01*
X156313574Y-158029203D01*
X156334809Y-158026053D01*
X156356250Y-158025000D01*
X156793750Y-158025000D01*
X156815191Y-158026053D01*
X156815191Y-158026053D01*
G37*
D18*
X156575000Y-158500000D03*
D17*
G36*
X171527691Y-141276053D02*
X171548926Y-141279203D01*
X171569750Y-141284419D01*
X171589962Y-141291651D01*
X171609368Y-141300830D01*
X171627781Y-141311866D01*
X171645024Y-141324654D01*
X171660930Y-141339070D01*
X171675346Y-141354976D01*
X171688134Y-141372219D01*
X171699170Y-141390632D01*
X171708349Y-141410038D01*
X171715581Y-141430250D01*
X171720797Y-141451074D01*
X171723947Y-141472309D01*
X171725000Y-141493750D01*
X171725000Y-142006250D01*
X171723947Y-142027691D01*
X171720797Y-142048926D01*
X171715581Y-142069750D01*
X171708349Y-142089962D01*
X171699170Y-142109368D01*
X171688134Y-142127781D01*
X171675346Y-142145024D01*
X171660930Y-142160930D01*
X171645024Y-142175346D01*
X171627781Y-142188134D01*
X171609368Y-142199170D01*
X171589962Y-142208349D01*
X171569750Y-142215581D01*
X171548926Y-142220797D01*
X171527691Y-142223947D01*
X171506250Y-142225000D01*
X171068750Y-142225000D01*
X171047309Y-142223947D01*
X171026074Y-142220797D01*
X171005250Y-142215581D01*
X170985038Y-142208349D01*
X170965632Y-142199170D01*
X170947219Y-142188134D01*
X170929976Y-142175346D01*
X170914070Y-142160930D01*
X170899654Y-142145024D01*
X170886866Y-142127781D01*
X170875830Y-142109368D01*
X170866651Y-142089962D01*
X170859419Y-142069750D01*
X170854203Y-142048926D01*
X170851053Y-142027691D01*
X170850000Y-142006250D01*
X170850000Y-141493750D01*
X170851053Y-141472309D01*
X170854203Y-141451074D01*
X170859419Y-141430250D01*
X170866651Y-141410038D01*
X170875830Y-141390632D01*
X170886866Y-141372219D01*
X170899654Y-141354976D01*
X170914070Y-141339070D01*
X170929976Y-141324654D01*
X170947219Y-141311866D01*
X170965632Y-141300830D01*
X170985038Y-141291651D01*
X171005250Y-141284419D01*
X171026074Y-141279203D01*
X171047309Y-141276053D01*
X171068750Y-141275000D01*
X171506250Y-141275000D01*
X171527691Y-141276053D01*
X171527691Y-141276053D01*
G37*
D18*
X171287500Y-141750000D03*
D17*
G36*
X169952691Y-141276053D02*
X169973926Y-141279203D01*
X169994750Y-141284419D01*
X170014962Y-141291651D01*
X170034368Y-141300830D01*
X170052781Y-141311866D01*
X170070024Y-141324654D01*
X170085930Y-141339070D01*
X170100346Y-141354976D01*
X170113134Y-141372219D01*
X170124170Y-141390632D01*
X170133349Y-141410038D01*
X170140581Y-141430250D01*
X170145797Y-141451074D01*
X170148947Y-141472309D01*
X170150000Y-141493750D01*
X170150000Y-142006250D01*
X170148947Y-142027691D01*
X170145797Y-142048926D01*
X170140581Y-142069750D01*
X170133349Y-142089962D01*
X170124170Y-142109368D01*
X170113134Y-142127781D01*
X170100346Y-142145024D01*
X170085930Y-142160930D01*
X170070024Y-142175346D01*
X170052781Y-142188134D01*
X170034368Y-142199170D01*
X170014962Y-142208349D01*
X169994750Y-142215581D01*
X169973926Y-142220797D01*
X169952691Y-142223947D01*
X169931250Y-142225000D01*
X169493750Y-142225000D01*
X169472309Y-142223947D01*
X169451074Y-142220797D01*
X169430250Y-142215581D01*
X169410038Y-142208349D01*
X169390632Y-142199170D01*
X169372219Y-142188134D01*
X169354976Y-142175346D01*
X169339070Y-142160930D01*
X169324654Y-142145024D01*
X169311866Y-142127781D01*
X169300830Y-142109368D01*
X169291651Y-142089962D01*
X169284419Y-142069750D01*
X169279203Y-142048926D01*
X169276053Y-142027691D01*
X169275000Y-142006250D01*
X169275000Y-141493750D01*
X169276053Y-141472309D01*
X169279203Y-141451074D01*
X169284419Y-141430250D01*
X169291651Y-141410038D01*
X169300830Y-141390632D01*
X169311866Y-141372219D01*
X169324654Y-141354976D01*
X169339070Y-141339070D01*
X169354976Y-141324654D01*
X169372219Y-141311866D01*
X169390632Y-141300830D01*
X169410038Y-141291651D01*
X169430250Y-141284419D01*
X169451074Y-141279203D01*
X169472309Y-141276053D01*
X169493750Y-141275000D01*
X169931250Y-141275000D01*
X169952691Y-141276053D01*
X169952691Y-141276053D01*
G37*
D18*
X169712500Y-141750000D03*
D17*
G36*
X153027691Y-158051054D02*
X153048926Y-158054204D01*
X153069750Y-158059420D01*
X153089962Y-158066652D01*
X153109368Y-158075831D01*
X153127781Y-158086867D01*
X153145024Y-158099655D01*
X153160930Y-158114071D01*
X153175346Y-158129977D01*
X153188134Y-158147220D01*
X153199170Y-158165633D01*
X153208349Y-158185039D01*
X153215581Y-158205251D01*
X153220797Y-158226075D01*
X153223947Y-158247310D01*
X153225000Y-158268751D01*
X153225000Y-158781251D01*
X153223947Y-158802692D01*
X153220797Y-158823927D01*
X153215581Y-158844751D01*
X153208349Y-158864963D01*
X153199170Y-158884369D01*
X153188134Y-158902782D01*
X153175346Y-158920025D01*
X153160930Y-158935931D01*
X153145024Y-158950347D01*
X153127781Y-158963135D01*
X153109368Y-158974171D01*
X153089962Y-158983350D01*
X153069750Y-158990582D01*
X153048926Y-158995798D01*
X153027691Y-158998948D01*
X153006250Y-159000001D01*
X152568750Y-159000001D01*
X152547309Y-158998948D01*
X152526074Y-158995798D01*
X152505250Y-158990582D01*
X152485038Y-158983350D01*
X152465632Y-158974171D01*
X152447219Y-158963135D01*
X152429976Y-158950347D01*
X152414070Y-158935931D01*
X152399654Y-158920025D01*
X152386866Y-158902782D01*
X152375830Y-158884369D01*
X152366651Y-158864963D01*
X152359419Y-158844751D01*
X152354203Y-158823927D01*
X152351053Y-158802692D01*
X152350000Y-158781251D01*
X152350000Y-158268751D01*
X152351053Y-158247310D01*
X152354203Y-158226075D01*
X152359419Y-158205251D01*
X152366651Y-158185039D01*
X152375830Y-158165633D01*
X152386866Y-158147220D01*
X152399654Y-158129977D01*
X152414070Y-158114071D01*
X152429976Y-158099655D01*
X152447219Y-158086867D01*
X152465632Y-158075831D01*
X152485038Y-158066652D01*
X152505250Y-158059420D01*
X152526074Y-158054204D01*
X152547309Y-158051054D01*
X152568750Y-158050001D01*
X153006250Y-158050001D01*
X153027691Y-158051054D01*
X153027691Y-158051054D01*
G37*
D18*
X152787500Y-158525001D03*
D17*
G36*
X151452691Y-158051054D02*
X151473926Y-158054204D01*
X151494750Y-158059420D01*
X151514962Y-158066652D01*
X151534368Y-158075831D01*
X151552781Y-158086867D01*
X151570024Y-158099655D01*
X151585930Y-158114071D01*
X151600346Y-158129977D01*
X151613134Y-158147220D01*
X151624170Y-158165633D01*
X151633349Y-158185039D01*
X151640581Y-158205251D01*
X151645797Y-158226075D01*
X151648947Y-158247310D01*
X151650000Y-158268751D01*
X151650000Y-158781251D01*
X151648947Y-158802692D01*
X151645797Y-158823927D01*
X151640581Y-158844751D01*
X151633349Y-158864963D01*
X151624170Y-158884369D01*
X151613134Y-158902782D01*
X151600346Y-158920025D01*
X151585930Y-158935931D01*
X151570024Y-158950347D01*
X151552781Y-158963135D01*
X151534368Y-158974171D01*
X151514962Y-158983350D01*
X151494750Y-158990582D01*
X151473926Y-158995798D01*
X151452691Y-158998948D01*
X151431250Y-159000001D01*
X150993750Y-159000001D01*
X150972309Y-158998948D01*
X150951074Y-158995798D01*
X150930250Y-158990582D01*
X150910038Y-158983350D01*
X150890632Y-158974171D01*
X150872219Y-158963135D01*
X150854976Y-158950347D01*
X150839070Y-158935931D01*
X150824654Y-158920025D01*
X150811866Y-158902782D01*
X150800830Y-158884369D01*
X150791651Y-158864963D01*
X150784419Y-158844751D01*
X150779203Y-158823927D01*
X150776053Y-158802692D01*
X150775000Y-158781251D01*
X150775000Y-158268751D01*
X150776053Y-158247310D01*
X150779203Y-158226075D01*
X150784419Y-158205251D01*
X150791651Y-158185039D01*
X150800830Y-158165633D01*
X150811866Y-158147220D01*
X150824654Y-158129977D01*
X150839070Y-158114071D01*
X150854976Y-158099655D01*
X150872219Y-158086867D01*
X150890632Y-158075831D01*
X150910038Y-158066652D01*
X150930250Y-158059420D01*
X150951074Y-158054204D01*
X150972309Y-158051054D01*
X150993750Y-158050001D01*
X151431250Y-158050001D01*
X151452691Y-158051054D01*
X151452691Y-158051054D01*
G37*
D18*
X151212500Y-158525001D03*
D17*
G36*
X152990191Y-160776053D02*
X153011426Y-160779203D01*
X153032250Y-160784419D01*
X153052462Y-160791651D01*
X153071868Y-160800830D01*
X153090281Y-160811866D01*
X153107524Y-160824654D01*
X153123430Y-160839070D01*
X153137846Y-160854976D01*
X153150634Y-160872219D01*
X153161670Y-160890632D01*
X153170849Y-160910038D01*
X153178081Y-160930250D01*
X153183297Y-160951074D01*
X153186447Y-160972309D01*
X153187500Y-160993750D01*
X153187500Y-161506250D01*
X153186447Y-161527691D01*
X153183297Y-161548926D01*
X153178081Y-161569750D01*
X153170849Y-161589962D01*
X153161670Y-161609368D01*
X153150634Y-161627781D01*
X153137846Y-161645024D01*
X153123430Y-161660930D01*
X153107524Y-161675346D01*
X153090281Y-161688134D01*
X153071868Y-161699170D01*
X153052462Y-161708349D01*
X153032250Y-161715581D01*
X153011426Y-161720797D01*
X152990191Y-161723947D01*
X152968750Y-161725000D01*
X152531250Y-161725000D01*
X152509809Y-161723947D01*
X152488574Y-161720797D01*
X152467750Y-161715581D01*
X152447538Y-161708349D01*
X152428132Y-161699170D01*
X152409719Y-161688134D01*
X152392476Y-161675346D01*
X152376570Y-161660930D01*
X152362154Y-161645024D01*
X152349366Y-161627781D01*
X152338330Y-161609368D01*
X152329151Y-161589962D01*
X152321919Y-161569750D01*
X152316703Y-161548926D01*
X152313553Y-161527691D01*
X152312500Y-161506250D01*
X152312500Y-160993750D01*
X152313553Y-160972309D01*
X152316703Y-160951074D01*
X152321919Y-160930250D01*
X152329151Y-160910038D01*
X152338330Y-160890632D01*
X152349366Y-160872219D01*
X152362154Y-160854976D01*
X152376570Y-160839070D01*
X152392476Y-160824654D01*
X152409719Y-160811866D01*
X152428132Y-160800830D01*
X152447538Y-160791651D01*
X152467750Y-160784419D01*
X152488574Y-160779203D01*
X152509809Y-160776053D01*
X152531250Y-160775000D01*
X152968750Y-160775000D01*
X152990191Y-160776053D01*
X152990191Y-160776053D01*
G37*
D18*
X152750000Y-161250000D03*
D17*
G36*
X151415191Y-160776053D02*
X151436426Y-160779203D01*
X151457250Y-160784419D01*
X151477462Y-160791651D01*
X151496868Y-160800830D01*
X151515281Y-160811866D01*
X151532524Y-160824654D01*
X151548430Y-160839070D01*
X151562846Y-160854976D01*
X151575634Y-160872219D01*
X151586670Y-160890632D01*
X151595849Y-160910038D01*
X151603081Y-160930250D01*
X151608297Y-160951074D01*
X151611447Y-160972309D01*
X151612500Y-160993750D01*
X151612500Y-161506250D01*
X151611447Y-161527691D01*
X151608297Y-161548926D01*
X151603081Y-161569750D01*
X151595849Y-161589962D01*
X151586670Y-161609368D01*
X151575634Y-161627781D01*
X151562846Y-161645024D01*
X151548430Y-161660930D01*
X151532524Y-161675346D01*
X151515281Y-161688134D01*
X151496868Y-161699170D01*
X151477462Y-161708349D01*
X151457250Y-161715581D01*
X151436426Y-161720797D01*
X151415191Y-161723947D01*
X151393750Y-161725000D01*
X150956250Y-161725000D01*
X150934809Y-161723947D01*
X150913574Y-161720797D01*
X150892750Y-161715581D01*
X150872538Y-161708349D01*
X150853132Y-161699170D01*
X150834719Y-161688134D01*
X150817476Y-161675346D01*
X150801570Y-161660930D01*
X150787154Y-161645024D01*
X150774366Y-161627781D01*
X150763330Y-161609368D01*
X150754151Y-161589962D01*
X150746919Y-161569750D01*
X150741703Y-161548926D01*
X150738553Y-161527691D01*
X150737500Y-161506250D01*
X150737500Y-160993750D01*
X150738553Y-160972309D01*
X150741703Y-160951074D01*
X150746919Y-160930250D01*
X150754151Y-160910038D01*
X150763330Y-160890632D01*
X150774366Y-160872219D01*
X150787154Y-160854976D01*
X150801570Y-160839070D01*
X150817476Y-160824654D01*
X150834719Y-160811866D01*
X150853132Y-160800830D01*
X150872538Y-160791651D01*
X150892750Y-160784419D01*
X150913574Y-160779203D01*
X150934809Y-160776053D01*
X150956250Y-160775000D01*
X151393750Y-160775000D01*
X151415191Y-160776053D01*
X151415191Y-160776053D01*
G37*
D18*
X151175000Y-161250000D03*
D17*
G36*
X160665191Y-174526053D02*
X160686426Y-174529203D01*
X160707250Y-174534419D01*
X160727462Y-174541651D01*
X160746868Y-174550830D01*
X160765281Y-174561866D01*
X160782524Y-174574654D01*
X160798430Y-174589070D01*
X160812846Y-174604976D01*
X160825634Y-174622219D01*
X160836670Y-174640632D01*
X160845849Y-174660038D01*
X160853081Y-174680250D01*
X160858297Y-174701074D01*
X160861447Y-174722309D01*
X160862500Y-174743750D01*
X160862500Y-175256250D01*
X160861447Y-175277691D01*
X160858297Y-175298926D01*
X160853081Y-175319750D01*
X160845849Y-175339962D01*
X160836670Y-175359368D01*
X160825634Y-175377781D01*
X160812846Y-175395024D01*
X160798430Y-175410930D01*
X160782524Y-175425346D01*
X160765281Y-175438134D01*
X160746868Y-175449170D01*
X160727462Y-175458349D01*
X160707250Y-175465581D01*
X160686426Y-175470797D01*
X160665191Y-175473947D01*
X160643750Y-175475000D01*
X160206250Y-175475000D01*
X160184809Y-175473947D01*
X160163574Y-175470797D01*
X160142750Y-175465581D01*
X160122538Y-175458349D01*
X160103132Y-175449170D01*
X160084719Y-175438134D01*
X160067476Y-175425346D01*
X160051570Y-175410930D01*
X160037154Y-175395024D01*
X160024366Y-175377781D01*
X160013330Y-175359368D01*
X160004151Y-175339962D01*
X159996919Y-175319750D01*
X159991703Y-175298926D01*
X159988553Y-175277691D01*
X159987500Y-175256250D01*
X159987500Y-174743750D01*
X159988553Y-174722309D01*
X159991703Y-174701074D01*
X159996919Y-174680250D01*
X160004151Y-174660038D01*
X160013330Y-174640632D01*
X160024366Y-174622219D01*
X160037154Y-174604976D01*
X160051570Y-174589070D01*
X160067476Y-174574654D01*
X160084719Y-174561866D01*
X160103132Y-174550830D01*
X160122538Y-174541651D01*
X160142750Y-174534419D01*
X160163574Y-174529203D01*
X160184809Y-174526053D01*
X160206250Y-174525000D01*
X160643750Y-174525000D01*
X160665191Y-174526053D01*
X160665191Y-174526053D01*
G37*
D18*
X160425000Y-175000000D03*
D17*
G36*
X162240191Y-174526053D02*
X162261426Y-174529203D01*
X162282250Y-174534419D01*
X162302462Y-174541651D01*
X162321868Y-174550830D01*
X162340281Y-174561866D01*
X162357524Y-174574654D01*
X162373430Y-174589070D01*
X162387846Y-174604976D01*
X162400634Y-174622219D01*
X162411670Y-174640632D01*
X162420849Y-174660038D01*
X162428081Y-174680250D01*
X162433297Y-174701074D01*
X162436447Y-174722309D01*
X162437500Y-174743750D01*
X162437500Y-175256250D01*
X162436447Y-175277691D01*
X162433297Y-175298926D01*
X162428081Y-175319750D01*
X162420849Y-175339962D01*
X162411670Y-175359368D01*
X162400634Y-175377781D01*
X162387846Y-175395024D01*
X162373430Y-175410930D01*
X162357524Y-175425346D01*
X162340281Y-175438134D01*
X162321868Y-175449170D01*
X162302462Y-175458349D01*
X162282250Y-175465581D01*
X162261426Y-175470797D01*
X162240191Y-175473947D01*
X162218750Y-175475000D01*
X161781250Y-175475000D01*
X161759809Y-175473947D01*
X161738574Y-175470797D01*
X161717750Y-175465581D01*
X161697538Y-175458349D01*
X161678132Y-175449170D01*
X161659719Y-175438134D01*
X161642476Y-175425346D01*
X161626570Y-175410930D01*
X161612154Y-175395024D01*
X161599366Y-175377781D01*
X161588330Y-175359368D01*
X161579151Y-175339962D01*
X161571919Y-175319750D01*
X161566703Y-175298926D01*
X161563553Y-175277691D01*
X161562500Y-175256250D01*
X161562500Y-174743750D01*
X161563553Y-174722309D01*
X161566703Y-174701074D01*
X161571919Y-174680250D01*
X161579151Y-174660038D01*
X161588330Y-174640632D01*
X161599366Y-174622219D01*
X161612154Y-174604976D01*
X161626570Y-174589070D01*
X161642476Y-174574654D01*
X161659719Y-174561866D01*
X161678132Y-174550830D01*
X161697538Y-174541651D01*
X161717750Y-174534419D01*
X161738574Y-174529203D01*
X161759809Y-174526053D01*
X161781250Y-174525000D01*
X162218750Y-174525000D01*
X162240191Y-174526053D01*
X162240191Y-174526053D01*
G37*
D18*
X162000000Y-175000000D03*
D17*
G36*
X162952691Y-165776053D02*
X162973926Y-165779203D01*
X162994750Y-165784419D01*
X163014962Y-165791651D01*
X163034368Y-165800830D01*
X163052781Y-165811866D01*
X163070024Y-165824654D01*
X163085930Y-165839070D01*
X163100346Y-165854976D01*
X163113134Y-165872219D01*
X163124170Y-165890632D01*
X163133349Y-165910038D01*
X163140581Y-165930250D01*
X163145797Y-165951074D01*
X163148947Y-165972309D01*
X163150000Y-165993750D01*
X163150000Y-166506250D01*
X163148947Y-166527691D01*
X163145797Y-166548926D01*
X163140581Y-166569750D01*
X163133349Y-166589962D01*
X163124170Y-166609368D01*
X163113134Y-166627781D01*
X163100346Y-166645024D01*
X163085930Y-166660930D01*
X163070024Y-166675346D01*
X163052781Y-166688134D01*
X163034368Y-166699170D01*
X163014962Y-166708349D01*
X162994750Y-166715581D01*
X162973926Y-166720797D01*
X162952691Y-166723947D01*
X162931250Y-166725000D01*
X162493750Y-166725000D01*
X162472309Y-166723947D01*
X162451074Y-166720797D01*
X162430250Y-166715581D01*
X162410038Y-166708349D01*
X162390632Y-166699170D01*
X162372219Y-166688134D01*
X162354976Y-166675346D01*
X162339070Y-166660930D01*
X162324654Y-166645024D01*
X162311866Y-166627781D01*
X162300830Y-166609368D01*
X162291651Y-166589962D01*
X162284419Y-166569750D01*
X162279203Y-166548926D01*
X162276053Y-166527691D01*
X162275000Y-166506250D01*
X162275000Y-165993750D01*
X162276053Y-165972309D01*
X162279203Y-165951074D01*
X162284419Y-165930250D01*
X162291651Y-165910038D01*
X162300830Y-165890632D01*
X162311866Y-165872219D01*
X162324654Y-165854976D01*
X162339070Y-165839070D01*
X162354976Y-165824654D01*
X162372219Y-165811866D01*
X162390632Y-165800830D01*
X162410038Y-165791651D01*
X162430250Y-165784419D01*
X162451074Y-165779203D01*
X162472309Y-165776053D01*
X162493750Y-165775000D01*
X162931250Y-165775000D01*
X162952691Y-165776053D01*
X162952691Y-165776053D01*
G37*
D18*
X162712500Y-166250000D03*
D17*
G36*
X164527691Y-165776053D02*
X164548926Y-165779203D01*
X164569750Y-165784419D01*
X164589962Y-165791651D01*
X164609368Y-165800830D01*
X164627781Y-165811866D01*
X164645024Y-165824654D01*
X164660930Y-165839070D01*
X164675346Y-165854976D01*
X164688134Y-165872219D01*
X164699170Y-165890632D01*
X164708349Y-165910038D01*
X164715581Y-165930250D01*
X164720797Y-165951074D01*
X164723947Y-165972309D01*
X164725000Y-165993750D01*
X164725000Y-166506250D01*
X164723947Y-166527691D01*
X164720797Y-166548926D01*
X164715581Y-166569750D01*
X164708349Y-166589962D01*
X164699170Y-166609368D01*
X164688134Y-166627781D01*
X164675346Y-166645024D01*
X164660930Y-166660930D01*
X164645024Y-166675346D01*
X164627781Y-166688134D01*
X164609368Y-166699170D01*
X164589962Y-166708349D01*
X164569750Y-166715581D01*
X164548926Y-166720797D01*
X164527691Y-166723947D01*
X164506250Y-166725000D01*
X164068750Y-166725000D01*
X164047309Y-166723947D01*
X164026074Y-166720797D01*
X164005250Y-166715581D01*
X163985038Y-166708349D01*
X163965632Y-166699170D01*
X163947219Y-166688134D01*
X163929976Y-166675346D01*
X163914070Y-166660930D01*
X163899654Y-166645024D01*
X163886866Y-166627781D01*
X163875830Y-166609368D01*
X163866651Y-166589962D01*
X163859419Y-166569750D01*
X163854203Y-166548926D01*
X163851053Y-166527691D01*
X163850000Y-166506250D01*
X163850000Y-165993750D01*
X163851053Y-165972309D01*
X163854203Y-165951074D01*
X163859419Y-165930250D01*
X163866651Y-165910038D01*
X163875830Y-165890632D01*
X163886866Y-165872219D01*
X163899654Y-165854976D01*
X163914070Y-165839070D01*
X163929976Y-165824654D01*
X163947219Y-165811866D01*
X163965632Y-165800830D01*
X163985038Y-165791651D01*
X164005250Y-165784419D01*
X164026074Y-165779203D01*
X164047309Y-165776053D01*
X164068750Y-165775000D01*
X164506250Y-165775000D01*
X164527691Y-165776053D01*
X164527691Y-165776053D01*
G37*
D18*
X164287500Y-166250000D03*
D17*
G36*
X170565191Y-155026053D02*
X170586426Y-155029203D01*
X170607250Y-155034419D01*
X170627462Y-155041651D01*
X170646868Y-155050830D01*
X170665281Y-155061866D01*
X170682524Y-155074654D01*
X170698430Y-155089070D01*
X170712846Y-155104976D01*
X170725634Y-155122219D01*
X170736670Y-155140632D01*
X170745849Y-155160038D01*
X170753081Y-155180250D01*
X170758297Y-155201074D01*
X170761447Y-155222309D01*
X170762500Y-155243750D01*
X170762500Y-155756250D01*
X170761447Y-155777691D01*
X170758297Y-155798926D01*
X170753081Y-155819750D01*
X170745849Y-155839962D01*
X170736670Y-155859368D01*
X170725634Y-155877781D01*
X170712846Y-155895024D01*
X170698430Y-155910930D01*
X170682524Y-155925346D01*
X170665281Y-155938134D01*
X170646868Y-155949170D01*
X170627462Y-155958349D01*
X170607250Y-155965581D01*
X170586426Y-155970797D01*
X170565191Y-155973947D01*
X170543750Y-155975000D01*
X170106250Y-155975000D01*
X170084809Y-155973947D01*
X170063574Y-155970797D01*
X170042750Y-155965581D01*
X170022538Y-155958349D01*
X170003132Y-155949170D01*
X169984719Y-155938134D01*
X169967476Y-155925346D01*
X169951570Y-155910930D01*
X169937154Y-155895024D01*
X169924366Y-155877781D01*
X169913330Y-155859368D01*
X169904151Y-155839962D01*
X169896919Y-155819750D01*
X169891703Y-155798926D01*
X169888553Y-155777691D01*
X169887500Y-155756250D01*
X169887500Y-155243750D01*
X169888553Y-155222309D01*
X169891703Y-155201074D01*
X169896919Y-155180250D01*
X169904151Y-155160038D01*
X169913330Y-155140632D01*
X169924366Y-155122219D01*
X169937154Y-155104976D01*
X169951570Y-155089070D01*
X169967476Y-155074654D01*
X169984719Y-155061866D01*
X170003132Y-155050830D01*
X170022538Y-155041651D01*
X170042750Y-155034419D01*
X170063574Y-155029203D01*
X170084809Y-155026053D01*
X170106250Y-155025000D01*
X170543750Y-155025000D01*
X170565191Y-155026053D01*
X170565191Y-155026053D01*
G37*
D18*
X170325000Y-155500000D03*
D17*
G36*
X168990191Y-155026053D02*
X169011426Y-155029203D01*
X169032250Y-155034419D01*
X169052462Y-155041651D01*
X169071868Y-155050830D01*
X169090281Y-155061866D01*
X169107524Y-155074654D01*
X169123430Y-155089070D01*
X169137846Y-155104976D01*
X169150634Y-155122219D01*
X169161670Y-155140632D01*
X169170849Y-155160038D01*
X169178081Y-155180250D01*
X169183297Y-155201074D01*
X169186447Y-155222309D01*
X169187500Y-155243750D01*
X169187500Y-155756250D01*
X169186447Y-155777691D01*
X169183297Y-155798926D01*
X169178081Y-155819750D01*
X169170849Y-155839962D01*
X169161670Y-155859368D01*
X169150634Y-155877781D01*
X169137846Y-155895024D01*
X169123430Y-155910930D01*
X169107524Y-155925346D01*
X169090281Y-155938134D01*
X169071868Y-155949170D01*
X169052462Y-155958349D01*
X169032250Y-155965581D01*
X169011426Y-155970797D01*
X168990191Y-155973947D01*
X168968750Y-155975000D01*
X168531250Y-155975000D01*
X168509809Y-155973947D01*
X168488574Y-155970797D01*
X168467750Y-155965581D01*
X168447538Y-155958349D01*
X168428132Y-155949170D01*
X168409719Y-155938134D01*
X168392476Y-155925346D01*
X168376570Y-155910930D01*
X168362154Y-155895024D01*
X168349366Y-155877781D01*
X168338330Y-155859368D01*
X168329151Y-155839962D01*
X168321919Y-155819750D01*
X168316703Y-155798926D01*
X168313553Y-155777691D01*
X168312500Y-155756250D01*
X168312500Y-155243750D01*
X168313553Y-155222309D01*
X168316703Y-155201074D01*
X168321919Y-155180250D01*
X168329151Y-155160038D01*
X168338330Y-155140632D01*
X168349366Y-155122219D01*
X168362154Y-155104976D01*
X168376570Y-155089070D01*
X168392476Y-155074654D01*
X168409719Y-155061866D01*
X168428132Y-155050830D01*
X168447538Y-155041651D01*
X168467750Y-155034419D01*
X168488574Y-155029203D01*
X168509809Y-155026053D01*
X168531250Y-155025000D01*
X168968750Y-155025000D01*
X168990191Y-155026053D01*
X168990191Y-155026053D01*
G37*
D18*
X168750000Y-155500000D03*
D17*
G36*
X149277691Y-154026053D02*
X149298926Y-154029203D01*
X149319750Y-154034419D01*
X149339962Y-154041651D01*
X149359368Y-154050830D01*
X149377781Y-154061866D01*
X149395024Y-154074654D01*
X149410930Y-154089070D01*
X149425346Y-154104976D01*
X149438134Y-154122219D01*
X149449170Y-154140632D01*
X149458349Y-154160038D01*
X149465581Y-154180250D01*
X149470797Y-154201074D01*
X149473947Y-154222309D01*
X149475000Y-154243750D01*
X149475000Y-154756250D01*
X149473947Y-154777691D01*
X149470797Y-154798926D01*
X149465581Y-154819750D01*
X149458349Y-154839962D01*
X149449170Y-154859368D01*
X149438134Y-154877781D01*
X149425346Y-154895024D01*
X149410930Y-154910930D01*
X149395024Y-154925346D01*
X149377781Y-154938134D01*
X149359368Y-154949170D01*
X149339962Y-154958349D01*
X149319750Y-154965581D01*
X149298926Y-154970797D01*
X149277691Y-154973947D01*
X149256250Y-154975000D01*
X148818750Y-154975000D01*
X148797309Y-154973947D01*
X148776074Y-154970797D01*
X148755250Y-154965581D01*
X148735038Y-154958349D01*
X148715632Y-154949170D01*
X148697219Y-154938134D01*
X148679976Y-154925346D01*
X148664070Y-154910930D01*
X148649654Y-154895024D01*
X148636866Y-154877781D01*
X148625830Y-154859368D01*
X148616651Y-154839962D01*
X148609419Y-154819750D01*
X148604203Y-154798926D01*
X148601053Y-154777691D01*
X148600000Y-154756250D01*
X148600000Y-154243750D01*
X148601053Y-154222309D01*
X148604203Y-154201074D01*
X148609419Y-154180250D01*
X148616651Y-154160038D01*
X148625830Y-154140632D01*
X148636866Y-154122219D01*
X148649654Y-154104976D01*
X148664070Y-154089070D01*
X148679976Y-154074654D01*
X148697219Y-154061866D01*
X148715632Y-154050830D01*
X148735038Y-154041651D01*
X148755250Y-154034419D01*
X148776074Y-154029203D01*
X148797309Y-154026053D01*
X148818750Y-154025000D01*
X149256250Y-154025000D01*
X149277691Y-154026053D01*
X149277691Y-154026053D01*
G37*
D18*
X149037500Y-154500000D03*
D17*
G36*
X147702691Y-154026053D02*
X147723926Y-154029203D01*
X147744750Y-154034419D01*
X147764962Y-154041651D01*
X147784368Y-154050830D01*
X147802781Y-154061866D01*
X147820024Y-154074654D01*
X147835930Y-154089070D01*
X147850346Y-154104976D01*
X147863134Y-154122219D01*
X147874170Y-154140632D01*
X147883349Y-154160038D01*
X147890581Y-154180250D01*
X147895797Y-154201074D01*
X147898947Y-154222309D01*
X147900000Y-154243750D01*
X147900000Y-154756250D01*
X147898947Y-154777691D01*
X147895797Y-154798926D01*
X147890581Y-154819750D01*
X147883349Y-154839962D01*
X147874170Y-154859368D01*
X147863134Y-154877781D01*
X147850346Y-154895024D01*
X147835930Y-154910930D01*
X147820024Y-154925346D01*
X147802781Y-154938134D01*
X147784368Y-154949170D01*
X147764962Y-154958349D01*
X147744750Y-154965581D01*
X147723926Y-154970797D01*
X147702691Y-154973947D01*
X147681250Y-154975000D01*
X147243750Y-154975000D01*
X147222309Y-154973947D01*
X147201074Y-154970797D01*
X147180250Y-154965581D01*
X147160038Y-154958349D01*
X147140632Y-154949170D01*
X147122219Y-154938134D01*
X147104976Y-154925346D01*
X147089070Y-154910930D01*
X147074654Y-154895024D01*
X147061866Y-154877781D01*
X147050830Y-154859368D01*
X147041651Y-154839962D01*
X147034419Y-154819750D01*
X147029203Y-154798926D01*
X147026053Y-154777691D01*
X147025000Y-154756250D01*
X147025000Y-154243750D01*
X147026053Y-154222309D01*
X147029203Y-154201074D01*
X147034419Y-154180250D01*
X147041651Y-154160038D01*
X147050830Y-154140632D01*
X147061866Y-154122219D01*
X147074654Y-154104976D01*
X147089070Y-154089070D01*
X147104976Y-154074654D01*
X147122219Y-154061866D01*
X147140632Y-154050830D01*
X147160038Y-154041651D01*
X147180250Y-154034419D01*
X147201074Y-154029203D01*
X147222309Y-154026053D01*
X147243750Y-154025000D01*
X147681250Y-154025000D01*
X147702691Y-154026053D01*
X147702691Y-154026053D01*
G37*
D18*
X147462500Y-154500000D03*
D17*
G36*
X158915191Y-158026053D02*
X158936426Y-158029203D01*
X158957250Y-158034419D01*
X158977462Y-158041651D01*
X158996868Y-158050830D01*
X159015281Y-158061866D01*
X159032524Y-158074654D01*
X159048430Y-158089070D01*
X159062846Y-158104976D01*
X159075634Y-158122219D01*
X159086670Y-158140632D01*
X159095849Y-158160038D01*
X159103081Y-158180250D01*
X159108297Y-158201074D01*
X159111447Y-158222309D01*
X159112500Y-158243750D01*
X159112500Y-158756250D01*
X159111447Y-158777691D01*
X159108297Y-158798926D01*
X159103081Y-158819750D01*
X159095849Y-158839962D01*
X159086670Y-158859368D01*
X159075634Y-158877781D01*
X159062846Y-158895024D01*
X159048430Y-158910930D01*
X159032524Y-158925346D01*
X159015281Y-158938134D01*
X158996868Y-158949170D01*
X158977462Y-158958349D01*
X158957250Y-158965581D01*
X158936426Y-158970797D01*
X158915191Y-158973947D01*
X158893750Y-158975000D01*
X158456250Y-158975000D01*
X158434809Y-158973947D01*
X158413574Y-158970797D01*
X158392750Y-158965581D01*
X158372538Y-158958349D01*
X158353132Y-158949170D01*
X158334719Y-158938134D01*
X158317476Y-158925346D01*
X158301570Y-158910930D01*
X158287154Y-158895024D01*
X158274366Y-158877781D01*
X158263330Y-158859368D01*
X158254151Y-158839962D01*
X158246919Y-158819750D01*
X158241703Y-158798926D01*
X158238553Y-158777691D01*
X158237500Y-158756250D01*
X158237500Y-158243750D01*
X158238553Y-158222309D01*
X158241703Y-158201074D01*
X158246919Y-158180250D01*
X158254151Y-158160038D01*
X158263330Y-158140632D01*
X158274366Y-158122219D01*
X158287154Y-158104976D01*
X158301570Y-158089070D01*
X158317476Y-158074654D01*
X158334719Y-158061866D01*
X158353132Y-158050830D01*
X158372538Y-158041651D01*
X158392750Y-158034419D01*
X158413574Y-158029203D01*
X158434809Y-158026053D01*
X158456250Y-158025000D01*
X158893750Y-158025000D01*
X158915191Y-158026053D01*
X158915191Y-158026053D01*
G37*
D18*
X158675000Y-158500000D03*
D17*
G36*
X160490191Y-158026053D02*
X160511426Y-158029203D01*
X160532250Y-158034419D01*
X160552462Y-158041651D01*
X160571868Y-158050830D01*
X160590281Y-158061866D01*
X160607524Y-158074654D01*
X160623430Y-158089070D01*
X160637846Y-158104976D01*
X160650634Y-158122219D01*
X160661670Y-158140632D01*
X160670849Y-158160038D01*
X160678081Y-158180250D01*
X160683297Y-158201074D01*
X160686447Y-158222309D01*
X160687500Y-158243750D01*
X160687500Y-158756250D01*
X160686447Y-158777691D01*
X160683297Y-158798926D01*
X160678081Y-158819750D01*
X160670849Y-158839962D01*
X160661670Y-158859368D01*
X160650634Y-158877781D01*
X160637846Y-158895024D01*
X160623430Y-158910930D01*
X160607524Y-158925346D01*
X160590281Y-158938134D01*
X160571868Y-158949170D01*
X160552462Y-158958349D01*
X160532250Y-158965581D01*
X160511426Y-158970797D01*
X160490191Y-158973947D01*
X160468750Y-158975000D01*
X160031250Y-158975000D01*
X160009809Y-158973947D01*
X159988574Y-158970797D01*
X159967750Y-158965581D01*
X159947538Y-158958349D01*
X159928132Y-158949170D01*
X159909719Y-158938134D01*
X159892476Y-158925346D01*
X159876570Y-158910930D01*
X159862154Y-158895024D01*
X159849366Y-158877781D01*
X159838330Y-158859368D01*
X159829151Y-158839962D01*
X159821919Y-158819750D01*
X159816703Y-158798926D01*
X159813553Y-158777691D01*
X159812500Y-158756250D01*
X159812500Y-158243750D01*
X159813553Y-158222309D01*
X159816703Y-158201074D01*
X159821919Y-158180250D01*
X159829151Y-158160038D01*
X159838330Y-158140632D01*
X159849366Y-158122219D01*
X159862154Y-158104976D01*
X159876570Y-158089070D01*
X159892476Y-158074654D01*
X159909719Y-158061866D01*
X159928132Y-158050830D01*
X159947538Y-158041651D01*
X159967750Y-158034419D01*
X159988574Y-158029203D01*
X160009809Y-158026053D01*
X160031250Y-158025000D01*
X160468750Y-158025000D01*
X160490191Y-158026053D01*
X160490191Y-158026053D01*
G37*
D18*
X160250000Y-158500000D03*
D22*
X171000000Y-175000000D03*
X171000000Y-172500000D03*
X171000000Y-170000000D03*
X165500000Y-170000000D03*
X165500000Y-172500000D03*
X165500000Y-175000000D03*
D23*
X151800000Y-164400000D03*
X153700000Y-164400000D03*
X153700000Y-166600000D03*
X152750000Y-166600000D03*
X151800000Y-166600000D03*
X157800000Y-166600000D03*
X158750000Y-166600000D03*
X159700000Y-166600000D03*
X159700000Y-164400000D03*
X157800000Y-164400000D03*
D17*
G36*
X171569703Y-157350722D02*
X171584264Y-157352882D01*
X171598543Y-157356459D01*
X171612403Y-157361418D01*
X171625710Y-157367712D01*
X171638336Y-157375280D01*
X171650159Y-157384048D01*
X171661066Y-157393934D01*
X171670952Y-157404841D01*
X171679720Y-157416664D01*
X171687288Y-157429290D01*
X171693582Y-157442597D01*
X171698541Y-157456457D01*
X171702118Y-157470736D01*
X171704278Y-157485297D01*
X171705000Y-157500000D01*
X171705000Y-158800000D01*
X171704278Y-158814703D01*
X171702118Y-158829264D01*
X171698541Y-158843543D01*
X171693582Y-158857403D01*
X171687288Y-158870710D01*
X171679720Y-158883336D01*
X171670952Y-158895159D01*
X171661066Y-158906066D01*
X171650159Y-158915952D01*
X171638336Y-158924720D01*
X171625710Y-158932288D01*
X171612403Y-158938582D01*
X171598543Y-158943541D01*
X171584264Y-158947118D01*
X171569703Y-158949278D01*
X171555000Y-158950000D01*
X171255000Y-158950000D01*
X171240297Y-158949278D01*
X171225736Y-158947118D01*
X171211457Y-158943541D01*
X171197597Y-158938582D01*
X171184290Y-158932288D01*
X171171664Y-158924720D01*
X171159841Y-158915952D01*
X171148934Y-158906066D01*
X171139048Y-158895159D01*
X171130280Y-158883336D01*
X171122712Y-158870710D01*
X171116418Y-158857403D01*
X171111459Y-158843543D01*
X171107882Y-158829264D01*
X171105722Y-158814703D01*
X171105000Y-158800000D01*
X171105000Y-157500000D01*
X171105722Y-157485297D01*
X171107882Y-157470736D01*
X171111459Y-157456457D01*
X171116418Y-157442597D01*
X171122712Y-157429290D01*
X171130280Y-157416664D01*
X171139048Y-157404841D01*
X171148934Y-157393934D01*
X171159841Y-157384048D01*
X171171664Y-157375280D01*
X171184290Y-157367712D01*
X171197597Y-157361418D01*
X171211457Y-157356459D01*
X171225736Y-157352882D01*
X171240297Y-157350722D01*
X171255000Y-157350000D01*
X171555000Y-157350000D01*
X171569703Y-157350722D01*
X171569703Y-157350722D01*
G37*
D24*
X171405000Y-158150000D03*
D17*
G36*
X170299703Y-157350722D02*
X170314264Y-157352882D01*
X170328543Y-157356459D01*
X170342403Y-157361418D01*
X170355710Y-157367712D01*
X170368336Y-157375280D01*
X170380159Y-157384048D01*
X170391066Y-157393934D01*
X170400952Y-157404841D01*
X170409720Y-157416664D01*
X170417288Y-157429290D01*
X170423582Y-157442597D01*
X170428541Y-157456457D01*
X170432118Y-157470736D01*
X170434278Y-157485297D01*
X170435000Y-157500000D01*
X170435000Y-158800000D01*
X170434278Y-158814703D01*
X170432118Y-158829264D01*
X170428541Y-158843543D01*
X170423582Y-158857403D01*
X170417288Y-158870710D01*
X170409720Y-158883336D01*
X170400952Y-158895159D01*
X170391066Y-158906066D01*
X170380159Y-158915952D01*
X170368336Y-158924720D01*
X170355710Y-158932288D01*
X170342403Y-158938582D01*
X170328543Y-158943541D01*
X170314264Y-158947118D01*
X170299703Y-158949278D01*
X170285000Y-158950000D01*
X169985000Y-158950000D01*
X169970297Y-158949278D01*
X169955736Y-158947118D01*
X169941457Y-158943541D01*
X169927597Y-158938582D01*
X169914290Y-158932288D01*
X169901664Y-158924720D01*
X169889841Y-158915952D01*
X169878934Y-158906066D01*
X169869048Y-158895159D01*
X169860280Y-158883336D01*
X169852712Y-158870710D01*
X169846418Y-158857403D01*
X169841459Y-158843543D01*
X169837882Y-158829264D01*
X169835722Y-158814703D01*
X169835000Y-158800000D01*
X169835000Y-157500000D01*
X169835722Y-157485297D01*
X169837882Y-157470736D01*
X169841459Y-157456457D01*
X169846418Y-157442597D01*
X169852712Y-157429290D01*
X169860280Y-157416664D01*
X169869048Y-157404841D01*
X169878934Y-157393934D01*
X169889841Y-157384048D01*
X169901664Y-157375280D01*
X169914290Y-157367712D01*
X169927597Y-157361418D01*
X169941457Y-157356459D01*
X169955736Y-157352882D01*
X169970297Y-157350722D01*
X169985000Y-157350000D01*
X170285000Y-157350000D01*
X170299703Y-157350722D01*
X170299703Y-157350722D01*
G37*
D24*
X170135000Y-158150000D03*
D17*
G36*
X169029703Y-157350722D02*
X169044264Y-157352882D01*
X169058543Y-157356459D01*
X169072403Y-157361418D01*
X169085710Y-157367712D01*
X169098336Y-157375280D01*
X169110159Y-157384048D01*
X169121066Y-157393934D01*
X169130952Y-157404841D01*
X169139720Y-157416664D01*
X169147288Y-157429290D01*
X169153582Y-157442597D01*
X169158541Y-157456457D01*
X169162118Y-157470736D01*
X169164278Y-157485297D01*
X169165000Y-157500000D01*
X169165000Y-158800000D01*
X169164278Y-158814703D01*
X169162118Y-158829264D01*
X169158541Y-158843543D01*
X169153582Y-158857403D01*
X169147288Y-158870710D01*
X169139720Y-158883336D01*
X169130952Y-158895159D01*
X169121066Y-158906066D01*
X169110159Y-158915952D01*
X169098336Y-158924720D01*
X169085710Y-158932288D01*
X169072403Y-158938582D01*
X169058543Y-158943541D01*
X169044264Y-158947118D01*
X169029703Y-158949278D01*
X169015000Y-158950000D01*
X168715000Y-158950000D01*
X168700297Y-158949278D01*
X168685736Y-158947118D01*
X168671457Y-158943541D01*
X168657597Y-158938582D01*
X168644290Y-158932288D01*
X168631664Y-158924720D01*
X168619841Y-158915952D01*
X168608934Y-158906066D01*
X168599048Y-158895159D01*
X168590280Y-158883336D01*
X168582712Y-158870710D01*
X168576418Y-158857403D01*
X168571459Y-158843543D01*
X168567882Y-158829264D01*
X168565722Y-158814703D01*
X168565000Y-158800000D01*
X168565000Y-157500000D01*
X168565722Y-157485297D01*
X168567882Y-157470736D01*
X168571459Y-157456457D01*
X168576418Y-157442597D01*
X168582712Y-157429290D01*
X168590280Y-157416664D01*
X168599048Y-157404841D01*
X168608934Y-157393934D01*
X168619841Y-157384048D01*
X168631664Y-157375280D01*
X168644290Y-157367712D01*
X168657597Y-157361418D01*
X168671457Y-157356459D01*
X168685736Y-157352882D01*
X168700297Y-157350722D01*
X168715000Y-157350000D01*
X169015000Y-157350000D01*
X169029703Y-157350722D01*
X169029703Y-157350722D01*
G37*
D24*
X168865000Y-158150000D03*
D17*
G36*
X167759703Y-157350722D02*
X167774264Y-157352882D01*
X167788543Y-157356459D01*
X167802403Y-157361418D01*
X167815710Y-157367712D01*
X167828336Y-157375280D01*
X167840159Y-157384048D01*
X167851066Y-157393934D01*
X167860952Y-157404841D01*
X167869720Y-157416664D01*
X167877288Y-157429290D01*
X167883582Y-157442597D01*
X167888541Y-157456457D01*
X167892118Y-157470736D01*
X167894278Y-157485297D01*
X167895000Y-157500000D01*
X167895000Y-158800000D01*
X167894278Y-158814703D01*
X167892118Y-158829264D01*
X167888541Y-158843543D01*
X167883582Y-158857403D01*
X167877288Y-158870710D01*
X167869720Y-158883336D01*
X167860952Y-158895159D01*
X167851066Y-158906066D01*
X167840159Y-158915952D01*
X167828336Y-158924720D01*
X167815710Y-158932288D01*
X167802403Y-158938582D01*
X167788543Y-158943541D01*
X167774264Y-158947118D01*
X167759703Y-158949278D01*
X167745000Y-158950000D01*
X167445000Y-158950000D01*
X167430297Y-158949278D01*
X167415736Y-158947118D01*
X167401457Y-158943541D01*
X167387597Y-158938582D01*
X167374290Y-158932288D01*
X167361664Y-158924720D01*
X167349841Y-158915952D01*
X167338934Y-158906066D01*
X167329048Y-158895159D01*
X167320280Y-158883336D01*
X167312712Y-158870710D01*
X167306418Y-158857403D01*
X167301459Y-158843543D01*
X167297882Y-158829264D01*
X167295722Y-158814703D01*
X167295000Y-158800000D01*
X167295000Y-157500000D01*
X167295722Y-157485297D01*
X167297882Y-157470736D01*
X167301459Y-157456457D01*
X167306418Y-157442597D01*
X167312712Y-157429290D01*
X167320280Y-157416664D01*
X167329048Y-157404841D01*
X167338934Y-157393934D01*
X167349841Y-157384048D01*
X167361664Y-157375280D01*
X167374290Y-157367712D01*
X167387597Y-157361418D01*
X167401457Y-157356459D01*
X167415736Y-157352882D01*
X167430297Y-157350722D01*
X167445000Y-157350000D01*
X167745000Y-157350000D01*
X167759703Y-157350722D01*
X167759703Y-157350722D01*
G37*
D24*
X167595000Y-158150000D03*
D17*
G36*
X167759703Y-164550722D02*
X167774264Y-164552882D01*
X167788543Y-164556459D01*
X167802403Y-164561418D01*
X167815710Y-164567712D01*
X167828336Y-164575280D01*
X167840159Y-164584048D01*
X167851066Y-164593934D01*
X167860952Y-164604841D01*
X167869720Y-164616664D01*
X167877288Y-164629290D01*
X167883582Y-164642597D01*
X167888541Y-164656457D01*
X167892118Y-164670736D01*
X167894278Y-164685297D01*
X167895000Y-164700000D01*
X167895000Y-166000000D01*
X167894278Y-166014703D01*
X167892118Y-166029264D01*
X167888541Y-166043543D01*
X167883582Y-166057403D01*
X167877288Y-166070710D01*
X167869720Y-166083336D01*
X167860952Y-166095159D01*
X167851066Y-166106066D01*
X167840159Y-166115952D01*
X167828336Y-166124720D01*
X167815710Y-166132288D01*
X167802403Y-166138582D01*
X167788543Y-166143541D01*
X167774264Y-166147118D01*
X167759703Y-166149278D01*
X167745000Y-166150000D01*
X167445000Y-166150000D01*
X167430297Y-166149278D01*
X167415736Y-166147118D01*
X167401457Y-166143541D01*
X167387597Y-166138582D01*
X167374290Y-166132288D01*
X167361664Y-166124720D01*
X167349841Y-166115952D01*
X167338934Y-166106066D01*
X167329048Y-166095159D01*
X167320280Y-166083336D01*
X167312712Y-166070710D01*
X167306418Y-166057403D01*
X167301459Y-166043543D01*
X167297882Y-166029264D01*
X167295722Y-166014703D01*
X167295000Y-166000000D01*
X167295000Y-164700000D01*
X167295722Y-164685297D01*
X167297882Y-164670736D01*
X167301459Y-164656457D01*
X167306418Y-164642597D01*
X167312712Y-164629290D01*
X167320280Y-164616664D01*
X167329048Y-164604841D01*
X167338934Y-164593934D01*
X167349841Y-164584048D01*
X167361664Y-164575280D01*
X167374290Y-164567712D01*
X167387597Y-164561418D01*
X167401457Y-164556459D01*
X167415736Y-164552882D01*
X167430297Y-164550722D01*
X167445000Y-164550000D01*
X167745000Y-164550000D01*
X167759703Y-164550722D01*
X167759703Y-164550722D01*
G37*
D24*
X167595000Y-165350000D03*
D17*
G36*
X169029703Y-164550722D02*
X169044264Y-164552882D01*
X169058543Y-164556459D01*
X169072403Y-164561418D01*
X169085710Y-164567712D01*
X169098336Y-164575280D01*
X169110159Y-164584048D01*
X169121066Y-164593934D01*
X169130952Y-164604841D01*
X169139720Y-164616664D01*
X169147288Y-164629290D01*
X169153582Y-164642597D01*
X169158541Y-164656457D01*
X169162118Y-164670736D01*
X169164278Y-164685297D01*
X169165000Y-164700000D01*
X169165000Y-166000000D01*
X169164278Y-166014703D01*
X169162118Y-166029264D01*
X169158541Y-166043543D01*
X169153582Y-166057403D01*
X169147288Y-166070710D01*
X169139720Y-166083336D01*
X169130952Y-166095159D01*
X169121066Y-166106066D01*
X169110159Y-166115952D01*
X169098336Y-166124720D01*
X169085710Y-166132288D01*
X169072403Y-166138582D01*
X169058543Y-166143541D01*
X169044264Y-166147118D01*
X169029703Y-166149278D01*
X169015000Y-166150000D01*
X168715000Y-166150000D01*
X168700297Y-166149278D01*
X168685736Y-166147118D01*
X168671457Y-166143541D01*
X168657597Y-166138582D01*
X168644290Y-166132288D01*
X168631664Y-166124720D01*
X168619841Y-166115952D01*
X168608934Y-166106066D01*
X168599048Y-166095159D01*
X168590280Y-166083336D01*
X168582712Y-166070710D01*
X168576418Y-166057403D01*
X168571459Y-166043543D01*
X168567882Y-166029264D01*
X168565722Y-166014703D01*
X168565000Y-166000000D01*
X168565000Y-164700000D01*
X168565722Y-164685297D01*
X168567882Y-164670736D01*
X168571459Y-164656457D01*
X168576418Y-164642597D01*
X168582712Y-164629290D01*
X168590280Y-164616664D01*
X168599048Y-164604841D01*
X168608934Y-164593934D01*
X168619841Y-164584048D01*
X168631664Y-164575280D01*
X168644290Y-164567712D01*
X168657597Y-164561418D01*
X168671457Y-164556459D01*
X168685736Y-164552882D01*
X168700297Y-164550722D01*
X168715000Y-164550000D01*
X169015000Y-164550000D01*
X169029703Y-164550722D01*
X169029703Y-164550722D01*
G37*
D24*
X168865000Y-165350000D03*
D17*
G36*
X170299703Y-164550722D02*
X170314264Y-164552882D01*
X170328543Y-164556459D01*
X170342403Y-164561418D01*
X170355710Y-164567712D01*
X170368336Y-164575280D01*
X170380159Y-164584048D01*
X170391066Y-164593934D01*
X170400952Y-164604841D01*
X170409720Y-164616664D01*
X170417288Y-164629290D01*
X170423582Y-164642597D01*
X170428541Y-164656457D01*
X170432118Y-164670736D01*
X170434278Y-164685297D01*
X170435000Y-164700000D01*
X170435000Y-166000000D01*
X170434278Y-166014703D01*
X170432118Y-166029264D01*
X170428541Y-166043543D01*
X170423582Y-166057403D01*
X170417288Y-166070710D01*
X170409720Y-166083336D01*
X170400952Y-166095159D01*
X170391066Y-166106066D01*
X170380159Y-166115952D01*
X170368336Y-166124720D01*
X170355710Y-166132288D01*
X170342403Y-166138582D01*
X170328543Y-166143541D01*
X170314264Y-166147118D01*
X170299703Y-166149278D01*
X170285000Y-166150000D01*
X169985000Y-166150000D01*
X169970297Y-166149278D01*
X169955736Y-166147118D01*
X169941457Y-166143541D01*
X169927597Y-166138582D01*
X169914290Y-166132288D01*
X169901664Y-166124720D01*
X169889841Y-166115952D01*
X169878934Y-166106066D01*
X169869048Y-166095159D01*
X169860280Y-166083336D01*
X169852712Y-166070710D01*
X169846418Y-166057403D01*
X169841459Y-166043543D01*
X169837882Y-166029264D01*
X169835722Y-166014703D01*
X169835000Y-166000000D01*
X169835000Y-164700000D01*
X169835722Y-164685297D01*
X169837882Y-164670736D01*
X169841459Y-164656457D01*
X169846418Y-164642597D01*
X169852712Y-164629290D01*
X169860280Y-164616664D01*
X169869048Y-164604841D01*
X169878934Y-164593934D01*
X169889841Y-164584048D01*
X169901664Y-164575280D01*
X169914290Y-164567712D01*
X169927597Y-164561418D01*
X169941457Y-164556459D01*
X169955736Y-164552882D01*
X169970297Y-164550722D01*
X169985000Y-164550000D01*
X170285000Y-164550000D01*
X170299703Y-164550722D01*
X170299703Y-164550722D01*
G37*
D24*
X170135000Y-165350000D03*
D17*
G36*
X171569703Y-164550722D02*
X171584264Y-164552882D01*
X171598543Y-164556459D01*
X171612403Y-164561418D01*
X171625710Y-164567712D01*
X171638336Y-164575280D01*
X171650159Y-164584048D01*
X171661066Y-164593934D01*
X171670952Y-164604841D01*
X171679720Y-164616664D01*
X171687288Y-164629290D01*
X171693582Y-164642597D01*
X171698541Y-164656457D01*
X171702118Y-164670736D01*
X171704278Y-164685297D01*
X171705000Y-164700000D01*
X171705000Y-166000000D01*
X171704278Y-166014703D01*
X171702118Y-166029264D01*
X171698541Y-166043543D01*
X171693582Y-166057403D01*
X171687288Y-166070710D01*
X171679720Y-166083336D01*
X171670952Y-166095159D01*
X171661066Y-166106066D01*
X171650159Y-166115952D01*
X171638336Y-166124720D01*
X171625710Y-166132288D01*
X171612403Y-166138582D01*
X171598543Y-166143541D01*
X171584264Y-166147118D01*
X171569703Y-166149278D01*
X171555000Y-166150000D01*
X171255000Y-166150000D01*
X171240297Y-166149278D01*
X171225736Y-166147118D01*
X171211457Y-166143541D01*
X171197597Y-166138582D01*
X171184290Y-166132288D01*
X171171664Y-166124720D01*
X171159841Y-166115952D01*
X171148934Y-166106066D01*
X171139048Y-166095159D01*
X171130280Y-166083336D01*
X171122712Y-166070710D01*
X171116418Y-166057403D01*
X171111459Y-166043543D01*
X171107882Y-166029264D01*
X171105722Y-166014703D01*
X171105000Y-166000000D01*
X171105000Y-164700000D01*
X171105722Y-164685297D01*
X171107882Y-164670736D01*
X171111459Y-164656457D01*
X171116418Y-164642597D01*
X171122712Y-164629290D01*
X171130280Y-164616664D01*
X171139048Y-164604841D01*
X171148934Y-164593934D01*
X171159841Y-164584048D01*
X171171664Y-164575280D01*
X171184290Y-164567712D01*
X171197597Y-164561418D01*
X171211457Y-164556459D01*
X171225736Y-164552882D01*
X171240297Y-164550722D01*
X171255000Y-164550000D01*
X171555000Y-164550000D01*
X171569703Y-164550722D01*
X171569703Y-164550722D01*
G37*
D24*
X171405000Y-165350000D03*
D25*
X155150000Y-146250000D03*
X155150000Y-146750000D03*
X155150000Y-147250000D03*
X155150000Y-147750000D03*
X155150000Y-148250000D03*
X155150000Y-148750000D03*
X155150000Y-149250000D03*
X155150000Y-149750000D03*
X155150000Y-150250000D03*
X155150000Y-150750000D03*
X155150000Y-151250000D03*
X155150000Y-151750000D03*
D26*
X156750000Y-153350000D03*
X157250000Y-153350000D03*
X157750000Y-153350000D03*
X158250000Y-153350000D03*
X158750000Y-153350000D03*
X159250000Y-153350000D03*
X159750000Y-153350000D03*
X160250000Y-153350000D03*
X160750000Y-153350000D03*
X161250000Y-153350000D03*
X161750000Y-153350000D03*
X162250000Y-153350000D03*
D25*
X163850000Y-151750000D03*
X163850000Y-151250000D03*
X163850000Y-150750000D03*
X163850000Y-150250000D03*
X163850000Y-149750000D03*
X163850000Y-149250000D03*
X163850000Y-148750000D03*
X163850000Y-148250000D03*
X163850000Y-147750000D03*
X163850000Y-147250000D03*
X163850000Y-146750000D03*
X163850000Y-146250000D03*
D26*
X162250000Y-144650000D03*
X161750000Y-144650000D03*
X161250000Y-144650000D03*
X160750000Y-144650000D03*
X160250000Y-144650000D03*
X159750000Y-144650000D03*
X159250000Y-144650000D03*
X158750000Y-144650000D03*
X158250000Y-144650000D03*
X157750000Y-144650000D03*
X157250000Y-144650000D03*
X156750000Y-144650000D03*
D27*
X163250000Y-155985000D03*
X162750000Y-155985000D03*
X162235000Y-156250000D03*
X162235000Y-156750000D03*
X162235000Y-157250000D03*
X162750000Y-157515000D03*
X163250000Y-157515000D03*
X163765000Y-157250000D03*
X163765000Y-156750000D03*
X163765000Y-156250000D03*
D28*
X148000000Y-147750000D03*
X148000000Y-145250000D03*
M02*
