%TF.GenerationSoftware,KiCad,Pcbnew,(6.0.0-rc1-dev-1248-ged6c68a1e)*%
%TF.CreationDate,2019-07-02T22:08:16-04:00*%
%TF.ProjectId,hummingbird,68756d6d-696e-4676-9269-72642e6b6963,rev?*%
%TF.SameCoordinates,Original*%
%TF.FileFunction,Copper,L2,Bot*%
%TF.FilePolarity,Positive*%
%FSLAX46Y46*%
G04 Gerber Fmt 4.6, Leading zero omitted, Abs format (unit mm)*
G04 Created by KiCad (PCBNEW (6.0.0-rc1-dev-1248-ged6c68a1e)) date 07/02/19 22:08:16*
%MOMM*%
%LPD*%
G01*
G04 APERTURE LIST*
%ADD10C,0.500000*%
%ADD11R,1.700000X1.700000*%
%ADD12O,1.700000X1.700000*%
%ADD13O,0.950000X1.250000*%
%ADD14O,1.550000X1.000000*%
%ADD15C,1.000000*%
%ADD16C,0.800000*%
%ADD17C,1.000000*%
%ADD18C,0.250000*%
%ADD19C,0.200000*%
%ADD20C,0.254000*%
G04 APERTURE END LIST*
D10*
X129462351Y-175345238D02*
X130605208Y-175345238D01*
X129783779Y-173345238D02*
X130033779Y-175345238D01*
X130998065Y-173916666D02*
X131950446Y-173916666D01*
X130736160Y-173345238D02*
X131652827Y-175345238D01*
X132069494Y-173345238D01*
X132736160Y-173345238D02*
X132986160Y-175345238D01*
X132867113Y-174392857D02*
X134009970Y-174392857D01*
X133879017Y-173345238D02*
X134129017Y-175345238D01*
X134831398Y-173345238D02*
X135081398Y-175345238D01*
X135974255Y-173345238D01*
X136224255Y-175345238D01*
X137557589Y-175345238D02*
X137938541Y-175345238D01*
X138117113Y-175250000D01*
X138283779Y-175059523D01*
X138331398Y-174678571D01*
X138248065Y-174011904D01*
X138105208Y-173630952D01*
X137890922Y-173440476D01*
X137688541Y-173345238D01*
X137307589Y-173345238D01*
X137129017Y-173440476D01*
X136962351Y-173630952D01*
X136914732Y-174011904D01*
X136998065Y-174678571D01*
X137140922Y-175059523D01*
X137355208Y-175250000D01*
X137557589Y-175345238D01*
X139021875Y-173345238D02*
X139271875Y-175345238D01*
X140164732Y-173345238D02*
X139450446Y-174488095D01*
X140414732Y-175345238D02*
X139129017Y-174202380D01*
D11*
X137250000Y-138500000D03*
D12*
X134710000Y-138500000D03*
X132170000Y-138500000D03*
D13*
X167000000Y-146500000D03*
X167000000Y-151500000D03*
D14*
X169700000Y-152500000D03*
X169700000Y-145500000D03*
D11*
X155250000Y-138500000D03*
D12*
X152710000Y-138500000D03*
X150170000Y-138500000D03*
X147630000Y-138500000D03*
X145090000Y-138500000D03*
X142550000Y-138500000D03*
D11*
X170750000Y-138500000D03*
D12*
X168210000Y-138500000D03*
X165670000Y-138500000D03*
X163130000Y-138500000D03*
X160590000Y-138500000D03*
D11*
X130250000Y-165000000D03*
D15*
X148000000Y-147750000D03*
X148000000Y-145250000D03*
D16*
X164600000Y-141800000D03*
X165382121Y-146873970D03*
X149824990Y-150925010D03*
X143750000Y-141750000D03*
X161250000Y-155750000D03*
X131750000Y-161500000D03*
X159849999Y-154775814D03*
X153000000Y-168000000D03*
X160000000Y-167974990D03*
X165250000Y-166500000D03*
X166500000Y-140250000D03*
X149750000Y-164250000D03*
X143500000Y-163250000D03*
X170250000Y-162250000D03*
X134250000Y-141000000D03*
X158500000Y-138750000D03*
X158500000Y-142500000D03*
X148333260Y-141750000D03*
X129750000Y-141750000D03*
X153750000Y-162750000D03*
X168500000Y-143750000D03*
X158675000Y-162750000D03*
X151750000Y-150750000D03*
X164250000Y-155000000D03*
X141737347Y-162737347D03*
X156500000Y-164250000D03*
X165500000Y-164962500D03*
X157962500Y-157787500D03*
X165500000Y-145000000D03*
X160500000Y-140750000D03*
X168250000Y-154500000D03*
X138250000Y-161500000D03*
X146250000Y-154500000D03*
X146000000Y-147750000D03*
X146000000Y-145250000D03*
X156512653Y-150762653D03*
X157442654Y-146157346D03*
X155200000Y-144875000D03*
X156545514Y-156579822D03*
X139700010Y-162676377D03*
X156500000Y-149750000D03*
X153750000Y-158500000D03*
X151000000Y-154500000D03*
X135750000Y-141500000D03*
X162750000Y-158500000D03*
X163750000Y-153750000D03*
X163000000Y-154750000D03*
X161264270Y-157450000D03*
X159250000Y-152000000D03*
X141750000Y-141750000D03*
D10*
X154315685Y-162750000D02*
X153750000Y-162750000D01*
D17*
X168224990Y-144025010D02*
X168465466Y-143784534D01*
X168224990Y-152086725D02*
X168224990Y-144025010D01*
X166924990Y-153386725D02*
X168224990Y-152086725D01*
X166924990Y-157083012D02*
X166924990Y-153386725D01*
X161258002Y-162750000D02*
X166924990Y-157083012D01*
X154315685Y-162750000D02*
X161258002Y-162750000D01*
X155271997Y-159600001D02*
X152000000Y-162871998D01*
X157962500Y-157787500D02*
X156149999Y-159600001D01*
X156149999Y-159600001D02*
X155271997Y-159600001D01*
X153378002Y-164250000D02*
X156500000Y-164250000D01*
X152000000Y-162871998D02*
X153378002Y-164250000D01*
X157212500Y-164962500D02*
X156500000Y-164250000D01*
X165500000Y-164962500D02*
X157212500Y-164962500D01*
X165500000Y-164962500D02*
X168292757Y-162169743D01*
X168210000Y-142290000D02*
X165500000Y-145000000D01*
X168210000Y-138500000D02*
X168210000Y-142290000D01*
X161250000Y-140750000D02*
X165500000Y-145000000D01*
X160500000Y-140750000D02*
X161250000Y-140750000D01*
X168668002Y-142290000D02*
X168210000Y-142290000D01*
X171175010Y-144797008D02*
X168668002Y-142290000D01*
X171175010Y-152997060D02*
X171175010Y-144797008D01*
X168922070Y-155250000D02*
X171175010Y-152997060D01*
X168292757Y-155250000D02*
X168922070Y-155250000D01*
X168292757Y-162169743D02*
X168292757Y-155250000D01*
X168292757Y-155250000D02*
X168292757Y-154542757D01*
X150778001Y-161649999D02*
X152000000Y-162871998D01*
X142824695Y-161649999D02*
X150778001Y-161649999D01*
X141737347Y-162737347D02*
X142824695Y-161649999D01*
X141337348Y-163137346D02*
X141737347Y-162737347D01*
X140698316Y-163776378D02*
X141337348Y-163137346D01*
X139172009Y-163776378D02*
X140698316Y-163776378D01*
X137850001Y-162454370D02*
X139172009Y-163776378D01*
X137850001Y-161899999D02*
X137850001Y-162454370D01*
X138250000Y-161500000D02*
X137850001Y-161899999D01*
X160100001Y-140350001D02*
X160500000Y-140750000D01*
X153357920Y-140350001D02*
X160100001Y-140350001D01*
X152710000Y-139702081D02*
X153357920Y-140350001D01*
X152710000Y-138500000D02*
X152710000Y-139702081D01*
D10*
X151860001Y-137650001D02*
X152710000Y-138500000D01*
X151409999Y-137199999D02*
X151860001Y-137650001D01*
X136010001Y-137199999D02*
X151409999Y-137199999D01*
X134710000Y-138500000D02*
X136010001Y-137199999D01*
X146649999Y-154899999D02*
X146250000Y-154500000D01*
X147100001Y-155350001D02*
X146649999Y-154899999D01*
X151408001Y-155350001D02*
X147100001Y-155350001D01*
X152149999Y-154608003D02*
X151408001Y-155350001D01*
X152149999Y-151149999D02*
X152149999Y-154608003D01*
X151750000Y-150750000D02*
X152149999Y-151149999D01*
X133860001Y-137650001D02*
X134710000Y-138500000D01*
X133409999Y-137199999D02*
X133860001Y-137650001D01*
X131545999Y-137199999D02*
X133409999Y-137199999D01*
X130869999Y-140119999D02*
X130869999Y-137875999D01*
X130869999Y-137875999D02*
X131545999Y-137199999D01*
D17*
X145250000Y-154500000D02*
X130869999Y-140119999D01*
D10*
X146250000Y-154500000D02*
X145250000Y-154500000D01*
D17*
X145250000Y-154500000D02*
X138250000Y-161500000D01*
D10*
X158362499Y-158187499D02*
X157962500Y-157787500D01*
X158475001Y-158300001D02*
X158362499Y-158187499D01*
X161672271Y-158300001D02*
X158475001Y-158300001D01*
X163850001Y-156122271D02*
X161672271Y-158300001D01*
X163850001Y-155399999D02*
X163850001Y-156122271D01*
X164250000Y-155000000D02*
X163850001Y-155399999D01*
D18*
X146000000Y-147750000D02*
X148000000Y-147750000D01*
X146000000Y-145250000D02*
X148000000Y-145250000D01*
X133019999Y-139349999D02*
X132170000Y-138500000D01*
X133345001Y-139675001D02*
X133019999Y-139349999D01*
X144525999Y-139675001D02*
X133345001Y-139675001D01*
X155613651Y-150762653D02*
X144525999Y-139675001D01*
X156512653Y-150762653D02*
X155613651Y-150762653D01*
X157442654Y-146157346D02*
X156160308Y-144875000D01*
X156160308Y-144875000D02*
X155200000Y-144875000D01*
X145796565Y-156579822D02*
X156545514Y-156579822D01*
X139700010Y-162676377D02*
X145796565Y-156579822D01*
X157065685Y-149750000D02*
X156500000Y-149750000D01*
X158073002Y-149750000D02*
X157065685Y-149750000D01*
X159975001Y-151651999D02*
X158073002Y-149750000D01*
X157500000Y-154823002D02*
X159975001Y-152348001D01*
X157500000Y-156698338D02*
X157500000Y-154823002D01*
X159975001Y-152348001D02*
X159975001Y-151651999D01*
X156893515Y-157304823D02*
X157500000Y-156698338D01*
X154945177Y-157304823D02*
X156893515Y-157304823D01*
X153750000Y-158500000D02*
X154945177Y-157304823D01*
X151000000Y-154500000D02*
X148750000Y-154500000D01*
X148750000Y-154500000D02*
X135750000Y-141500000D01*
D19*
X164950001Y-154384316D02*
X164950001Y-156299999D01*
X163750000Y-153750000D02*
X164315685Y-153750000D01*
X164950001Y-156299999D02*
X162750000Y-158500000D01*
X164315685Y-153750000D02*
X164950001Y-154384316D01*
X163000000Y-154750000D02*
X163000000Y-155714270D01*
X163000000Y-155714270D02*
X161264270Y-157450000D01*
D18*
X158684315Y-152000000D02*
X159250000Y-152000000D01*
X156214588Y-152000000D02*
X158684315Y-152000000D01*
X148189589Y-143975001D02*
X156214588Y-152000000D01*
X143975001Y-143975001D02*
X148189589Y-143975001D01*
X141750000Y-141750000D02*
X143975001Y-143975001D01*
D20*
G36*
X130305844Y-137188576D02*
X130231951Y-137237950D01*
X130182577Y-137311843D01*
X130182575Y-137311845D01*
X130036347Y-137530690D01*
X129967662Y-137875999D01*
X129985000Y-137963164D01*
X129984999Y-139401552D01*
X129800853Y-139677145D01*
X129712764Y-140119999D01*
X129800853Y-140562853D01*
X129988391Y-140843522D01*
X143644868Y-154500000D01*
X137526477Y-160618392D01*
X137126483Y-161018386D01*
X137031712Y-161081710D01*
X136851475Y-161351455D01*
X136780855Y-161457145D01*
X136692766Y-161899999D01*
X136715001Y-162011782D01*
X136715001Y-162342587D01*
X136692766Y-162454370D01*
X136715001Y-162566152D01*
X136715001Y-162566153D01*
X136780855Y-162897225D01*
X137031713Y-163272659D01*
X137126481Y-163335981D01*
X138290398Y-164499899D01*
X138353720Y-164594667D01*
X138596109Y-164756626D01*
X138729154Y-164845524D01*
X139172009Y-164933613D01*
X139283792Y-164911378D01*
X140586533Y-164911378D01*
X140698316Y-164933613D01*
X140810099Y-164911378D01*
X141141171Y-164845524D01*
X141516605Y-164594667D01*
X141579929Y-164499896D01*
X142618955Y-163460870D01*
X143294827Y-162784999D01*
X150307869Y-162784999D01*
X151118395Y-163595526D01*
X151181712Y-163690286D01*
X151276472Y-163753603D01*
X151276476Y-163753607D01*
X151276482Y-163753611D01*
X152496391Y-164973521D01*
X152559713Y-165068289D01*
X152884044Y-165285000D01*
X152935147Y-165319146D01*
X153378001Y-165407235D01*
X153489784Y-165385000D01*
X156029869Y-165385000D01*
X156330887Y-165686018D01*
X156394211Y-165780789D01*
X156718542Y-165997500D01*
X156769645Y-166031646D01*
X157212499Y-166119735D01*
X157324282Y-166097500D01*
X165388217Y-166097500D01*
X165500000Y-166119735D01*
X165611783Y-166097500D01*
X165942855Y-166031646D01*
X166318289Y-165780789D01*
X166381613Y-165686018D01*
X169016278Y-163051353D01*
X169111046Y-162988032D01*
X169361903Y-162612598D01*
X169415558Y-162342853D01*
X169449992Y-162169743D01*
X169427757Y-162057960D01*
X169427757Y-156277163D01*
X169740359Y-156068289D01*
X169803683Y-155973518D01*
X171898531Y-153878670D01*
X171993299Y-153815349D01*
X172115000Y-153633210D01*
X172115001Y-177865000D01*
X128885000Y-177865000D01*
X128885000Y-176450000D01*
X141646905Y-176450000D01*
X141646905Y-171680000D01*
X128885000Y-171680000D01*
X128885000Y-166222217D01*
X128942191Y-166307809D01*
X129152235Y-166448157D01*
X129400000Y-166497440D01*
X131100000Y-166497440D01*
X131347765Y-166448157D01*
X131557809Y-166307809D01*
X131698157Y-166097765D01*
X131747440Y-165850000D01*
X131747440Y-164150000D01*
X131698157Y-163902235D01*
X131557809Y-163692191D01*
X131347765Y-163551843D01*
X131100000Y-163502560D01*
X129400000Y-163502560D01*
X129152235Y-163551843D01*
X128942191Y-163692191D01*
X128885000Y-163777783D01*
X128885000Y-136885000D01*
X130609419Y-136885000D01*
X130305844Y-137188576D01*
X130305844Y-137188576D01*
G37*
X130305844Y-137188576D02*
X130231951Y-137237950D01*
X130182577Y-137311843D01*
X130182575Y-137311845D01*
X130036347Y-137530690D01*
X129967662Y-137875999D01*
X129985000Y-137963164D01*
X129984999Y-139401552D01*
X129800853Y-139677145D01*
X129712764Y-140119999D01*
X129800853Y-140562853D01*
X129988391Y-140843522D01*
X143644868Y-154500000D01*
X137526477Y-160618392D01*
X137126483Y-161018386D01*
X137031712Y-161081710D01*
X136851475Y-161351455D01*
X136780855Y-161457145D01*
X136692766Y-161899999D01*
X136715001Y-162011782D01*
X136715001Y-162342587D01*
X136692766Y-162454370D01*
X136715001Y-162566152D01*
X136715001Y-162566153D01*
X136780855Y-162897225D01*
X137031713Y-163272659D01*
X137126481Y-163335981D01*
X138290398Y-164499899D01*
X138353720Y-164594667D01*
X138596109Y-164756626D01*
X138729154Y-164845524D01*
X139172009Y-164933613D01*
X139283792Y-164911378D01*
X140586533Y-164911378D01*
X140698316Y-164933613D01*
X140810099Y-164911378D01*
X141141171Y-164845524D01*
X141516605Y-164594667D01*
X141579929Y-164499896D01*
X142618955Y-163460870D01*
X143294827Y-162784999D01*
X150307869Y-162784999D01*
X151118395Y-163595526D01*
X151181712Y-163690286D01*
X151276472Y-163753603D01*
X151276476Y-163753607D01*
X151276482Y-163753611D01*
X152496391Y-164973521D01*
X152559713Y-165068289D01*
X152884044Y-165285000D01*
X152935147Y-165319146D01*
X153378001Y-165407235D01*
X153489784Y-165385000D01*
X156029869Y-165385000D01*
X156330887Y-165686018D01*
X156394211Y-165780789D01*
X156718542Y-165997500D01*
X156769645Y-166031646D01*
X157212499Y-166119735D01*
X157324282Y-166097500D01*
X165388217Y-166097500D01*
X165500000Y-166119735D01*
X165611783Y-166097500D01*
X165942855Y-166031646D01*
X166318289Y-165780789D01*
X166381613Y-165686018D01*
X169016278Y-163051353D01*
X169111046Y-162988032D01*
X169361903Y-162612598D01*
X169415558Y-162342853D01*
X169449992Y-162169743D01*
X169427757Y-162057960D01*
X169427757Y-156277163D01*
X169740359Y-156068289D01*
X169803683Y-155973518D01*
X171898531Y-153878670D01*
X171993299Y-153815349D01*
X172115000Y-153633210D01*
X172115001Y-177865000D01*
X128885000Y-177865000D01*
X128885000Y-176450000D01*
X141646905Y-176450000D01*
X141646905Y-171680000D01*
X128885000Y-171680000D01*
X128885000Y-166222217D01*
X128942191Y-166307809D01*
X129152235Y-166448157D01*
X129400000Y-166497440D01*
X131100000Y-166497440D01*
X131347765Y-166448157D01*
X131557809Y-166307809D01*
X131698157Y-166097765D01*
X131747440Y-165850000D01*
X131747440Y-164150000D01*
X131698157Y-163902235D01*
X131557809Y-163692191D01*
X131347765Y-163551843D01*
X131100000Y-163502560D01*
X129400000Y-163502560D01*
X129152235Y-163551843D01*
X128942191Y-163692191D01*
X128885000Y-163777783D01*
X128885000Y-136885000D01*
X130609419Y-136885000D01*
X130305844Y-137188576D01*
G36*
X151575000Y-139474281D02*
X151575000Y-139590298D01*
X151552765Y-139702081D01*
X151575000Y-139813864D01*
X151640854Y-140144936D01*
X151891712Y-140520370D01*
X151986480Y-140583692D01*
X152476307Y-141073519D01*
X152539631Y-141168290D01*
X152915065Y-141419147D01*
X153246137Y-141485001D01*
X153357919Y-141507236D01*
X153469701Y-141485001D01*
X159626060Y-141485001D01*
X159681711Y-141568289D01*
X160057145Y-141819146D01*
X160197906Y-141847145D01*
X160499999Y-141907235D01*
X160611782Y-141885000D01*
X160779869Y-141885000D01*
X164618393Y-145723525D01*
X164681712Y-145818288D01*
X164776475Y-145881607D01*
X164776476Y-145881608D01*
X165057145Y-146069146D01*
X165500000Y-146157235D01*
X165942854Y-146069146D01*
X165943825Y-146068497D01*
X165898771Y-146198869D01*
X166047437Y-146373000D01*
X166873000Y-146373000D01*
X166873000Y-145407266D01*
X166772361Y-145332770D01*
X167089991Y-145015140D01*
X167089990Y-151616593D01*
X167059583Y-151647000D01*
X166873000Y-151647000D01*
X166873000Y-151627000D01*
X166047437Y-151627000D01*
X165898771Y-151801131D01*
X166040432Y-152211049D01*
X166254323Y-152452261D01*
X166201470Y-152505114D01*
X166106702Y-152568436D01*
X165978703Y-152760000D01*
X165855844Y-152943871D01*
X165767755Y-153386725D01*
X165789991Y-153498513D01*
X165789990Y-156612880D01*
X163785000Y-158617870D01*
X163785000Y-158504446D01*
X165418538Y-156870909D01*
X165479906Y-156829904D01*
X165642355Y-156586782D01*
X165685001Y-156372387D01*
X165685001Y-156372384D01*
X165699399Y-156300000D01*
X165685001Y-156227616D01*
X165685001Y-154456699D01*
X165699399Y-154384315D01*
X165685001Y-154311929D01*
X165685001Y-154311928D01*
X165642355Y-154097533D01*
X165479906Y-153854411D01*
X165418539Y-153813407D01*
X164886596Y-153281465D01*
X164845590Y-153220095D01*
X164602468Y-153057646D01*
X164501217Y-153037506D01*
X164336280Y-152872569D01*
X163955874Y-152715000D01*
X163544126Y-152715000D01*
X163163720Y-152872569D01*
X162872569Y-153163720D01*
X162715000Y-153544126D01*
X162715000Y-153747775D01*
X162413720Y-153872569D01*
X162122569Y-154163720D01*
X161965000Y-154544126D01*
X161965000Y-154955874D01*
X162122569Y-155336280D01*
X162230556Y-155444267D01*
X161259824Y-156415000D01*
X161058396Y-156415000D01*
X160677990Y-156572569D01*
X160386839Y-156863720D01*
X160229270Y-157244126D01*
X160229270Y-157415001D01*
X159045640Y-157415001D01*
X159031645Y-157344646D01*
X158780788Y-156969212D01*
X158405354Y-156718355D01*
X158273659Y-156692159D01*
X158260000Y-156623492D01*
X158260000Y-155137803D01*
X160459474Y-152938330D01*
X160522930Y-152895930D01*
X160690905Y-152644538D01*
X160735001Y-152422853D01*
X160735001Y-152422848D01*
X160749889Y-152348001D01*
X160735001Y-152273154D01*
X160735001Y-151726847D01*
X160749889Y-151651999D01*
X160735001Y-151577151D01*
X160735001Y-151577147D01*
X160690905Y-151355462D01*
X160690905Y-151355461D01*
X160586273Y-151198869D01*
X165898771Y-151198869D01*
X166047437Y-151373000D01*
X166873000Y-151373000D01*
X166873000Y-150407266D01*
X166702062Y-150280732D01*
X166328179Y-150464448D01*
X166040432Y-150788951D01*
X165898771Y-151198869D01*
X160586273Y-151198869D01*
X160565330Y-151167526D01*
X160522930Y-151104070D01*
X160459474Y-151061670D01*
X158663333Y-149265530D01*
X158620931Y-149202071D01*
X158369539Y-149034096D01*
X158147854Y-148990000D01*
X158147849Y-148990000D01*
X158073002Y-148975112D01*
X157998155Y-148990000D01*
X157203711Y-148990000D01*
X157086280Y-148872569D01*
X156705874Y-148715000D01*
X156294126Y-148715000D01*
X155913720Y-148872569D01*
X155622569Y-149163720D01*
X155466443Y-149540643D01*
X150594926Y-144669126D01*
X154165000Y-144669126D01*
X154165000Y-145080874D01*
X154322569Y-145461280D01*
X154613720Y-145752431D01*
X154994126Y-145910000D01*
X155405874Y-145910000D01*
X155786280Y-145752431D01*
X155874609Y-145664102D01*
X156407654Y-146197148D01*
X156407654Y-146363220D01*
X156565223Y-146743626D01*
X156856374Y-147034777D01*
X157236780Y-147192346D01*
X157648528Y-147192346D01*
X158028934Y-147034777D01*
X158262580Y-146801131D01*
X165898771Y-146801131D01*
X166040432Y-147211049D01*
X166328179Y-147535552D01*
X166702062Y-147719268D01*
X166873000Y-147592734D01*
X166873000Y-146627000D01*
X166047437Y-146627000D01*
X165898771Y-146801131D01*
X158262580Y-146801131D01*
X158320085Y-146743626D01*
X158477654Y-146363220D01*
X158477654Y-145951472D01*
X158320085Y-145571066D01*
X158028934Y-145279915D01*
X157648528Y-145122346D01*
X157482456Y-145122346D01*
X156750639Y-144390530D01*
X156708237Y-144327071D01*
X156456845Y-144159096D01*
X156235160Y-144115000D01*
X156235155Y-144115000D01*
X156160308Y-144100112D01*
X156085461Y-144115000D01*
X155903711Y-144115000D01*
X155786280Y-143997569D01*
X155405874Y-143840000D01*
X154994126Y-143840000D01*
X154613720Y-143997569D01*
X154322569Y-144288720D01*
X154165000Y-144669126D01*
X150594926Y-144669126D01*
X145762466Y-139836667D01*
X146160625Y-139570625D01*
X146360000Y-139272239D01*
X146559375Y-139570625D01*
X147050582Y-139898839D01*
X147483744Y-139985000D01*
X147776256Y-139985000D01*
X148209418Y-139898839D01*
X148700625Y-139570625D01*
X148900000Y-139272239D01*
X149099375Y-139570625D01*
X149590582Y-139898839D01*
X150023744Y-139985000D01*
X150316256Y-139985000D01*
X150749418Y-139898839D01*
X151240625Y-139570625D01*
X151440000Y-139272239D01*
X151575000Y-139474281D01*
X151575000Y-139474281D01*
G37*
X151575000Y-139474281D02*
X151575000Y-139590298D01*
X151552765Y-139702081D01*
X151575000Y-139813864D01*
X151640854Y-140144936D01*
X151891712Y-140520370D01*
X151986480Y-140583692D01*
X152476307Y-141073519D01*
X152539631Y-141168290D01*
X152915065Y-141419147D01*
X153246137Y-141485001D01*
X153357919Y-141507236D01*
X153469701Y-141485001D01*
X159626060Y-141485001D01*
X159681711Y-141568289D01*
X160057145Y-141819146D01*
X160197906Y-141847145D01*
X160499999Y-141907235D01*
X160611782Y-141885000D01*
X160779869Y-141885000D01*
X164618393Y-145723525D01*
X164681712Y-145818288D01*
X164776475Y-145881607D01*
X164776476Y-145881608D01*
X165057145Y-146069146D01*
X165500000Y-146157235D01*
X165942854Y-146069146D01*
X165943825Y-146068497D01*
X165898771Y-146198869D01*
X166047437Y-146373000D01*
X166873000Y-146373000D01*
X166873000Y-145407266D01*
X166772361Y-145332770D01*
X167089991Y-145015140D01*
X167089990Y-151616593D01*
X167059583Y-151647000D01*
X166873000Y-151647000D01*
X166873000Y-151627000D01*
X166047437Y-151627000D01*
X165898771Y-151801131D01*
X166040432Y-152211049D01*
X166254323Y-152452261D01*
X166201470Y-152505114D01*
X166106702Y-152568436D01*
X165978703Y-152760000D01*
X165855844Y-152943871D01*
X165767755Y-153386725D01*
X165789991Y-153498513D01*
X165789990Y-156612880D01*
X163785000Y-158617870D01*
X163785000Y-158504446D01*
X165418538Y-156870909D01*
X165479906Y-156829904D01*
X165642355Y-156586782D01*
X165685001Y-156372387D01*
X165685001Y-156372384D01*
X165699399Y-156300000D01*
X165685001Y-156227616D01*
X165685001Y-154456699D01*
X165699399Y-154384315D01*
X165685001Y-154311929D01*
X165685001Y-154311928D01*
X165642355Y-154097533D01*
X165479906Y-153854411D01*
X165418539Y-153813407D01*
X164886596Y-153281465D01*
X164845590Y-153220095D01*
X164602468Y-153057646D01*
X164501217Y-153037506D01*
X164336280Y-152872569D01*
X163955874Y-152715000D01*
X163544126Y-152715000D01*
X163163720Y-152872569D01*
X162872569Y-153163720D01*
X162715000Y-153544126D01*
X162715000Y-153747775D01*
X162413720Y-153872569D01*
X162122569Y-154163720D01*
X161965000Y-154544126D01*
X161965000Y-154955874D01*
X162122569Y-155336280D01*
X162230556Y-155444267D01*
X161259824Y-156415000D01*
X161058396Y-156415000D01*
X160677990Y-156572569D01*
X160386839Y-156863720D01*
X160229270Y-157244126D01*
X160229270Y-157415001D01*
X159045640Y-157415001D01*
X159031645Y-157344646D01*
X158780788Y-156969212D01*
X158405354Y-156718355D01*
X158273659Y-156692159D01*
X158260000Y-156623492D01*
X158260000Y-155137803D01*
X160459474Y-152938330D01*
X160522930Y-152895930D01*
X160690905Y-152644538D01*
X160735001Y-152422853D01*
X160735001Y-152422848D01*
X160749889Y-152348001D01*
X160735001Y-152273154D01*
X160735001Y-151726847D01*
X160749889Y-151651999D01*
X160735001Y-151577151D01*
X160735001Y-151577147D01*
X160690905Y-151355462D01*
X160690905Y-151355461D01*
X160586273Y-151198869D01*
X165898771Y-151198869D01*
X166047437Y-151373000D01*
X166873000Y-151373000D01*
X166873000Y-150407266D01*
X166702062Y-150280732D01*
X166328179Y-150464448D01*
X166040432Y-150788951D01*
X165898771Y-151198869D01*
X160586273Y-151198869D01*
X160565330Y-151167526D01*
X160522930Y-151104070D01*
X160459474Y-151061670D01*
X158663333Y-149265530D01*
X158620931Y-149202071D01*
X158369539Y-149034096D01*
X158147854Y-148990000D01*
X158147849Y-148990000D01*
X158073002Y-148975112D01*
X157998155Y-148990000D01*
X157203711Y-148990000D01*
X157086280Y-148872569D01*
X156705874Y-148715000D01*
X156294126Y-148715000D01*
X155913720Y-148872569D01*
X155622569Y-149163720D01*
X155466443Y-149540643D01*
X150594926Y-144669126D01*
X154165000Y-144669126D01*
X154165000Y-145080874D01*
X154322569Y-145461280D01*
X154613720Y-145752431D01*
X154994126Y-145910000D01*
X155405874Y-145910000D01*
X155786280Y-145752431D01*
X155874609Y-145664102D01*
X156407654Y-146197148D01*
X156407654Y-146363220D01*
X156565223Y-146743626D01*
X156856374Y-147034777D01*
X157236780Y-147192346D01*
X157648528Y-147192346D01*
X158028934Y-147034777D01*
X158262580Y-146801131D01*
X165898771Y-146801131D01*
X166040432Y-147211049D01*
X166328179Y-147535552D01*
X166702062Y-147719268D01*
X166873000Y-147592734D01*
X166873000Y-146627000D01*
X166047437Y-146627000D01*
X165898771Y-146801131D01*
X158262580Y-146801131D01*
X158320085Y-146743626D01*
X158477654Y-146363220D01*
X158477654Y-145951472D01*
X158320085Y-145571066D01*
X158028934Y-145279915D01*
X157648528Y-145122346D01*
X157482456Y-145122346D01*
X156750639Y-144390530D01*
X156708237Y-144327071D01*
X156456845Y-144159096D01*
X156235160Y-144115000D01*
X156235155Y-144115000D01*
X156160308Y-144100112D01*
X156085461Y-144115000D01*
X155903711Y-144115000D01*
X155786280Y-143997569D01*
X155405874Y-143840000D01*
X154994126Y-143840000D01*
X154613720Y-143997569D01*
X154322569Y-144288720D01*
X154165000Y-144669126D01*
X150594926Y-144669126D01*
X145762466Y-139836667D01*
X146160625Y-139570625D01*
X146360000Y-139272239D01*
X146559375Y-139570625D01*
X147050582Y-139898839D01*
X147483744Y-139985000D01*
X147776256Y-139985000D01*
X148209418Y-139898839D01*
X148700625Y-139570625D01*
X148900000Y-139272239D01*
X149099375Y-139570625D01*
X149590582Y-139898839D01*
X150023744Y-139985000D01*
X150316256Y-139985000D01*
X150749418Y-139898839D01*
X151240625Y-139570625D01*
X151440000Y-139272239D01*
X151575000Y-139474281D01*
G36*
X132754670Y-140159471D02*
X132797072Y-140222930D01*
X133048464Y-140390905D01*
X133270149Y-140435001D01*
X133270153Y-140435001D01*
X133345000Y-140449889D01*
X133419847Y-140435001D01*
X144211198Y-140435001D01*
X146991198Y-143215001D01*
X144289803Y-143215001D01*
X142785000Y-141710199D01*
X142785000Y-141544126D01*
X142627431Y-141163720D01*
X142336280Y-140872569D01*
X141955874Y-140715000D01*
X141544126Y-140715000D01*
X141163720Y-140872569D01*
X140872569Y-141163720D01*
X140715000Y-141544126D01*
X140715000Y-141955874D01*
X140872569Y-142336280D01*
X141163720Y-142627431D01*
X141544126Y-142785000D01*
X141710199Y-142785000D01*
X143384671Y-144459473D01*
X143427072Y-144522930D01*
X143678464Y-144690905D01*
X143900149Y-144735001D01*
X143900153Y-144735001D01*
X143975001Y-144749889D01*
X144049849Y-144735001D01*
X145093044Y-144735001D01*
X144965000Y-145044126D01*
X144965000Y-145455874D01*
X145122569Y-145836280D01*
X145413720Y-146127431D01*
X145794126Y-146285000D01*
X146205874Y-146285000D01*
X146586280Y-146127431D01*
X146703711Y-146010000D01*
X147154867Y-146010000D01*
X147357074Y-146212207D01*
X147774234Y-146385000D01*
X148225766Y-146385000D01*
X148642926Y-146212207D01*
X148962207Y-145892926D01*
X148982858Y-145843071D01*
X155624261Y-152484476D01*
X155666659Y-152547929D01*
X155730112Y-152590327D01*
X155730114Y-152590329D01*
X155811243Y-152644537D01*
X155918051Y-152715904D01*
X156139736Y-152760000D01*
X156139740Y-152760000D01*
X156214587Y-152774888D01*
X156289434Y-152760000D01*
X158488200Y-152760000D01*
X157015528Y-154232673D01*
X156952072Y-154275073D01*
X156909672Y-154338529D01*
X156909671Y-154338530D01*
X156784097Y-154526465D01*
X156725112Y-154823002D01*
X156740001Y-154897854D01*
X156740001Y-155544822D01*
X156339640Y-155544822D01*
X155959234Y-155702391D01*
X155841803Y-155819822D01*
X152189758Y-155819822D01*
X152714155Y-155295426D01*
X152788048Y-155246052D01*
X152856665Y-155143361D01*
X152983651Y-154953313D01*
X153005134Y-154845309D01*
X153034999Y-154695168D01*
X153034999Y-154695164D01*
X153052336Y-154608003D01*
X153034999Y-154520842D01*
X153034999Y-151237159D01*
X153052336Y-151149998D01*
X153034999Y-151062835D01*
X153034999Y-151062834D01*
X152983651Y-150804689D01*
X152788048Y-150511950D01*
X152765406Y-150496821D01*
X152627431Y-150163720D01*
X152336280Y-149872569D01*
X151955874Y-149715000D01*
X151544126Y-149715000D01*
X151163720Y-149872569D01*
X150872569Y-150163720D01*
X150715000Y-150544126D01*
X150715000Y-150955874D01*
X150872569Y-151336280D01*
X151163720Y-151627431D01*
X151264999Y-151669382D01*
X151265000Y-153489491D01*
X151205874Y-153465000D01*
X150794126Y-153465000D01*
X150413720Y-153622569D01*
X150296289Y-153740000D01*
X149064803Y-153740000D01*
X142868928Y-147544126D01*
X144965000Y-147544126D01*
X144965000Y-147955874D01*
X145122569Y-148336280D01*
X145413720Y-148627431D01*
X145794126Y-148785000D01*
X146205874Y-148785000D01*
X146586280Y-148627431D01*
X146703711Y-148510000D01*
X147154867Y-148510000D01*
X147357074Y-148712207D01*
X147774234Y-148885000D01*
X148225766Y-148885000D01*
X148642926Y-148712207D01*
X148962207Y-148392926D01*
X149135000Y-147975766D01*
X149135000Y-147524234D01*
X148962207Y-147107074D01*
X148642926Y-146787793D01*
X148225766Y-146615000D01*
X147774234Y-146615000D01*
X147357074Y-146787793D01*
X147154867Y-146990000D01*
X146703711Y-146990000D01*
X146586280Y-146872569D01*
X146205874Y-146715000D01*
X145794126Y-146715000D01*
X145413720Y-146872569D01*
X145122569Y-147163720D01*
X144965000Y-147544126D01*
X142868928Y-147544126D01*
X136785000Y-141460199D01*
X136785000Y-141294126D01*
X136627431Y-140913720D01*
X136336280Y-140622569D01*
X135955874Y-140465000D01*
X135544126Y-140465000D01*
X135163720Y-140622569D01*
X134872569Y-140913720D01*
X134715000Y-141294126D01*
X134715000Y-141705874D01*
X134872569Y-142086280D01*
X135163720Y-142377431D01*
X135544126Y-142535000D01*
X135710199Y-142535000D01*
X146770533Y-153595336D01*
X146455874Y-153465000D01*
X146044126Y-153465000D01*
X145885738Y-153530606D01*
X132336170Y-139981039D01*
X132536408Y-139941209D01*
X132754670Y-140159471D01*
X132754670Y-140159471D01*
G37*
X132754670Y-140159471D02*
X132797072Y-140222930D01*
X133048464Y-140390905D01*
X133270149Y-140435001D01*
X133270153Y-140435001D01*
X133345000Y-140449889D01*
X133419847Y-140435001D01*
X144211198Y-140435001D01*
X146991198Y-143215001D01*
X144289803Y-143215001D01*
X142785000Y-141710199D01*
X142785000Y-141544126D01*
X142627431Y-141163720D01*
X142336280Y-140872569D01*
X141955874Y-140715000D01*
X141544126Y-140715000D01*
X141163720Y-140872569D01*
X140872569Y-141163720D01*
X140715000Y-141544126D01*
X140715000Y-141955874D01*
X140872569Y-142336280D01*
X141163720Y-142627431D01*
X141544126Y-142785000D01*
X141710199Y-142785000D01*
X143384671Y-144459473D01*
X143427072Y-144522930D01*
X143678464Y-144690905D01*
X143900149Y-144735001D01*
X143900153Y-144735001D01*
X143975001Y-144749889D01*
X144049849Y-144735001D01*
X145093044Y-144735001D01*
X144965000Y-145044126D01*
X144965000Y-145455874D01*
X145122569Y-145836280D01*
X145413720Y-146127431D01*
X145794126Y-146285000D01*
X146205874Y-146285000D01*
X146586280Y-146127431D01*
X146703711Y-146010000D01*
X147154867Y-146010000D01*
X147357074Y-146212207D01*
X147774234Y-146385000D01*
X148225766Y-146385000D01*
X148642926Y-146212207D01*
X148962207Y-145892926D01*
X148982858Y-145843071D01*
X155624261Y-152484476D01*
X155666659Y-152547929D01*
X155730112Y-152590327D01*
X155730114Y-152590329D01*
X155811243Y-152644537D01*
X155918051Y-152715904D01*
X156139736Y-152760000D01*
X156139740Y-152760000D01*
X156214587Y-152774888D01*
X156289434Y-152760000D01*
X158488200Y-152760000D01*
X157015528Y-154232673D01*
X156952072Y-154275073D01*
X156909672Y-154338529D01*
X156909671Y-154338530D01*
X156784097Y-154526465D01*
X156725112Y-154823002D01*
X156740001Y-154897854D01*
X156740001Y-155544822D01*
X156339640Y-155544822D01*
X155959234Y-155702391D01*
X155841803Y-155819822D01*
X152189758Y-155819822D01*
X152714155Y-155295426D01*
X152788048Y-155246052D01*
X152856665Y-155143361D01*
X152983651Y-154953313D01*
X153005134Y-154845309D01*
X153034999Y-154695168D01*
X153034999Y-154695164D01*
X153052336Y-154608003D01*
X153034999Y-154520842D01*
X153034999Y-151237159D01*
X153052336Y-151149998D01*
X153034999Y-151062835D01*
X153034999Y-151062834D01*
X152983651Y-150804689D01*
X152788048Y-150511950D01*
X152765406Y-150496821D01*
X152627431Y-150163720D01*
X152336280Y-149872569D01*
X151955874Y-149715000D01*
X151544126Y-149715000D01*
X151163720Y-149872569D01*
X150872569Y-150163720D01*
X150715000Y-150544126D01*
X150715000Y-150955874D01*
X150872569Y-151336280D01*
X151163720Y-151627431D01*
X151264999Y-151669382D01*
X151265000Y-153489491D01*
X151205874Y-153465000D01*
X150794126Y-153465000D01*
X150413720Y-153622569D01*
X150296289Y-153740000D01*
X149064803Y-153740000D01*
X142868928Y-147544126D01*
X144965000Y-147544126D01*
X144965000Y-147955874D01*
X145122569Y-148336280D01*
X145413720Y-148627431D01*
X145794126Y-148785000D01*
X146205874Y-148785000D01*
X146586280Y-148627431D01*
X146703711Y-148510000D01*
X147154867Y-148510000D01*
X147357074Y-148712207D01*
X147774234Y-148885000D01*
X148225766Y-148885000D01*
X148642926Y-148712207D01*
X148962207Y-148392926D01*
X149135000Y-147975766D01*
X149135000Y-147524234D01*
X148962207Y-147107074D01*
X148642926Y-146787793D01*
X148225766Y-146615000D01*
X147774234Y-146615000D01*
X147357074Y-146787793D01*
X147154867Y-146990000D01*
X146703711Y-146990000D01*
X146586280Y-146872569D01*
X146205874Y-146715000D01*
X145794126Y-146715000D01*
X145413720Y-146872569D01*
X145122569Y-147163720D01*
X144965000Y-147544126D01*
X142868928Y-147544126D01*
X136785000Y-141460199D01*
X136785000Y-141294126D01*
X136627431Y-140913720D01*
X136336280Y-140622569D01*
X135955874Y-140465000D01*
X135544126Y-140465000D01*
X135163720Y-140622569D01*
X134872569Y-140913720D01*
X134715000Y-141294126D01*
X134715000Y-141705874D01*
X134872569Y-142086280D01*
X135163720Y-142377431D01*
X135544126Y-142535000D01*
X135710199Y-142535000D01*
X146770533Y-153595336D01*
X146455874Y-153465000D01*
X146044126Y-153465000D01*
X145885738Y-153530606D01*
X132336170Y-139981039D01*
X132536408Y-139941209D01*
X132754670Y-140159471D01*
G36*
X169827000Y-145373000D02*
X169847000Y-145373000D01*
X169847000Y-145627000D01*
X169827000Y-145627000D01*
X169827000Y-146635000D01*
X170040011Y-146635000D01*
X170040010Y-151365000D01*
X169827000Y-151365000D01*
X169827000Y-152373000D01*
X169847000Y-152373000D01*
X169847000Y-152627000D01*
X169827000Y-152627000D01*
X169827000Y-152647000D01*
X169573000Y-152647000D01*
X169573000Y-152627000D01*
X169553000Y-152627000D01*
X169553000Y-152373000D01*
X169573000Y-152373000D01*
X169573000Y-151365000D01*
X169359990Y-151365000D01*
X169359990Y-146635000D01*
X169573000Y-146635000D01*
X169573000Y-145627000D01*
X169553000Y-145627000D01*
X169553000Y-145373000D01*
X169573000Y-145373000D01*
X169573000Y-145353000D01*
X169827000Y-145353000D01*
X169827000Y-145373000D01*
X169827000Y-145373000D01*
G37*
X169827000Y-145373000D02*
X169847000Y-145373000D01*
X169847000Y-145627000D01*
X169827000Y-145627000D01*
X169827000Y-146635000D01*
X170040011Y-146635000D01*
X170040010Y-151365000D01*
X169827000Y-151365000D01*
X169827000Y-152373000D01*
X169847000Y-152373000D01*
X169847000Y-152627000D01*
X169827000Y-152627000D01*
X169827000Y-152647000D01*
X169573000Y-152647000D01*
X169573000Y-152627000D01*
X169553000Y-152627000D01*
X169553000Y-152373000D01*
X169573000Y-152373000D01*
X169573000Y-151365000D01*
X169359990Y-151365000D01*
X169359990Y-146635000D01*
X169573000Y-146635000D01*
X169573000Y-145627000D01*
X169553000Y-145627000D01*
X169553000Y-145373000D01*
X169573000Y-145373000D01*
X169573000Y-145353000D01*
X169827000Y-145353000D01*
X169827000Y-145373000D01*
G36*
X172115000Y-137266975D02*
X171959699Y-137111673D01*
X171726310Y-137015000D01*
X171035750Y-137015000D01*
X170877000Y-137173750D01*
X170877000Y-138373000D01*
X170897000Y-138373000D01*
X170897000Y-138627000D01*
X170877000Y-138627000D01*
X170877000Y-139826250D01*
X171035750Y-139985000D01*
X171726310Y-139985000D01*
X171959699Y-139888327D01*
X172115000Y-139733025D01*
X172115000Y-144160858D01*
X171993299Y-143978719D01*
X171898531Y-143915397D01*
X169549615Y-141566482D01*
X169486291Y-141471711D01*
X169345000Y-141377303D01*
X169345000Y-139669446D01*
X169361673Y-139709698D01*
X169540301Y-139888327D01*
X169773690Y-139985000D01*
X170464250Y-139985000D01*
X170623000Y-139826250D01*
X170623000Y-138627000D01*
X170603000Y-138627000D01*
X170603000Y-138373000D01*
X170623000Y-138373000D01*
X170623000Y-137173750D01*
X170464250Y-137015000D01*
X169773690Y-137015000D01*
X169540301Y-137111673D01*
X169361673Y-137290302D01*
X169295096Y-137451033D01*
X169280625Y-137429375D01*
X168789418Y-137101161D01*
X168356256Y-137015000D01*
X168063744Y-137015000D01*
X167630582Y-137101161D01*
X167139375Y-137429375D01*
X166940000Y-137727761D01*
X166740625Y-137429375D01*
X166249418Y-137101161D01*
X165816256Y-137015000D01*
X165523744Y-137015000D01*
X165090582Y-137101161D01*
X164599375Y-137429375D01*
X164400000Y-137727761D01*
X164200625Y-137429375D01*
X163709418Y-137101161D01*
X163276256Y-137015000D01*
X162983744Y-137015000D01*
X162550582Y-137101161D01*
X162059375Y-137429375D01*
X161860000Y-137727761D01*
X161660625Y-137429375D01*
X161169418Y-137101161D01*
X160736256Y-137015000D01*
X160443744Y-137015000D01*
X160010582Y-137101161D01*
X159519375Y-137429375D01*
X159191161Y-137920582D01*
X159075908Y-138500000D01*
X159191161Y-139079418D01*
X159281755Y-139215001D01*
X156735000Y-139215001D01*
X156735000Y-138785750D01*
X156576250Y-138627000D01*
X155377000Y-138627000D01*
X155377000Y-138647000D01*
X155123000Y-138647000D01*
X155123000Y-138627000D01*
X155103000Y-138627000D01*
X155103000Y-138373000D01*
X155123000Y-138373000D01*
X155123000Y-137173750D01*
X155377000Y-137173750D01*
X155377000Y-138373000D01*
X156576250Y-138373000D01*
X156735000Y-138214250D01*
X156735000Y-137523691D01*
X156638327Y-137290302D01*
X156459699Y-137111673D01*
X156226310Y-137015000D01*
X155535750Y-137015000D01*
X155377000Y-137173750D01*
X155123000Y-137173750D01*
X154964250Y-137015000D01*
X154273690Y-137015000D01*
X154040301Y-137111673D01*
X153861673Y-137290302D01*
X153795096Y-137451033D01*
X153780625Y-137429375D01*
X153289418Y-137101161D01*
X152856256Y-137015000D01*
X152563744Y-137015000D01*
X152491040Y-137029462D01*
X152346578Y-136885000D01*
X172115000Y-136885000D01*
X172115000Y-137266975D01*
X172115000Y-137266975D01*
G37*
X172115000Y-137266975D02*
X171959699Y-137111673D01*
X171726310Y-137015000D01*
X171035750Y-137015000D01*
X170877000Y-137173750D01*
X170877000Y-138373000D01*
X170897000Y-138373000D01*
X170897000Y-138627000D01*
X170877000Y-138627000D01*
X170877000Y-139826250D01*
X171035750Y-139985000D01*
X171726310Y-139985000D01*
X171959699Y-139888327D01*
X172115000Y-139733025D01*
X172115000Y-144160858D01*
X171993299Y-143978719D01*
X171898531Y-143915397D01*
X169549615Y-141566482D01*
X169486291Y-141471711D01*
X169345000Y-141377303D01*
X169345000Y-139669446D01*
X169361673Y-139709698D01*
X169540301Y-139888327D01*
X169773690Y-139985000D01*
X170464250Y-139985000D01*
X170623000Y-139826250D01*
X170623000Y-138627000D01*
X170603000Y-138627000D01*
X170603000Y-138373000D01*
X170623000Y-138373000D01*
X170623000Y-137173750D01*
X170464250Y-137015000D01*
X169773690Y-137015000D01*
X169540301Y-137111673D01*
X169361673Y-137290302D01*
X169295096Y-137451033D01*
X169280625Y-137429375D01*
X168789418Y-137101161D01*
X168356256Y-137015000D01*
X168063744Y-137015000D01*
X167630582Y-137101161D01*
X167139375Y-137429375D01*
X166940000Y-137727761D01*
X166740625Y-137429375D01*
X166249418Y-137101161D01*
X165816256Y-137015000D01*
X165523744Y-137015000D01*
X165090582Y-137101161D01*
X164599375Y-137429375D01*
X164400000Y-137727761D01*
X164200625Y-137429375D01*
X163709418Y-137101161D01*
X163276256Y-137015000D01*
X162983744Y-137015000D01*
X162550582Y-137101161D01*
X162059375Y-137429375D01*
X161860000Y-137727761D01*
X161660625Y-137429375D01*
X161169418Y-137101161D01*
X160736256Y-137015000D01*
X160443744Y-137015000D01*
X160010582Y-137101161D01*
X159519375Y-137429375D01*
X159191161Y-137920582D01*
X159075908Y-138500000D01*
X159191161Y-139079418D01*
X159281755Y-139215001D01*
X156735000Y-139215001D01*
X156735000Y-138785750D01*
X156576250Y-138627000D01*
X155377000Y-138627000D01*
X155377000Y-138647000D01*
X155123000Y-138647000D01*
X155123000Y-138627000D01*
X155103000Y-138627000D01*
X155103000Y-138373000D01*
X155123000Y-138373000D01*
X155123000Y-137173750D01*
X155377000Y-137173750D01*
X155377000Y-138373000D01*
X156576250Y-138373000D01*
X156735000Y-138214250D01*
X156735000Y-137523691D01*
X156638327Y-137290302D01*
X156459699Y-137111673D01*
X156226310Y-137015000D01*
X155535750Y-137015000D01*
X155377000Y-137173750D01*
X155123000Y-137173750D01*
X154964250Y-137015000D01*
X154273690Y-137015000D01*
X154040301Y-137111673D01*
X153861673Y-137290302D01*
X153795096Y-137451033D01*
X153780625Y-137429375D01*
X153289418Y-137101161D01*
X152856256Y-137015000D01*
X152563744Y-137015000D01*
X152491040Y-137029462D01*
X152346578Y-136885000D01*
X172115000Y-136885000D01*
X172115000Y-137266975D01*
G36*
X167075000Y-139474281D02*
X167075001Y-141819867D01*
X165500000Y-143394868D01*
X162131613Y-140026482D01*
X162068289Y-139931711D01*
X161692855Y-139680854D01*
X161540893Y-139650627D01*
X161660625Y-139570625D01*
X161860000Y-139272239D01*
X162059375Y-139570625D01*
X162550582Y-139898839D01*
X162983744Y-139985000D01*
X163276256Y-139985000D01*
X163709418Y-139898839D01*
X164200625Y-139570625D01*
X164400000Y-139272239D01*
X164599375Y-139570625D01*
X165090582Y-139898839D01*
X165523744Y-139985000D01*
X165816256Y-139985000D01*
X166249418Y-139898839D01*
X166740625Y-139570625D01*
X166940000Y-139272239D01*
X167075000Y-139474281D01*
X167075000Y-139474281D01*
G37*
X167075000Y-139474281D02*
X167075001Y-141819867D01*
X165500000Y-143394868D01*
X162131613Y-140026482D01*
X162068289Y-139931711D01*
X161692855Y-139680854D01*
X161540893Y-139650627D01*
X161660625Y-139570625D01*
X161860000Y-139272239D01*
X162059375Y-139570625D01*
X162550582Y-139898839D01*
X162983744Y-139985000D01*
X163276256Y-139985000D01*
X163709418Y-139898839D01*
X164200625Y-139570625D01*
X164400000Y-139272239D01*
X164599375Y-139570625D01*
X165090582Y-139898839D01*
X165523744Y-139985000D01*
X165816256Y-139985000D01*
X166249418Y-139898839D01*
X166740625Y-139570625D01*
X166940000Y-139272239D01*
X167075000Y-139474281D01*
G36*
X141035908Y-138500000D02*
X141118457Y-138915001D01*
X138735000Y-138915001D01*
X138735000Y-138785750D01*
X138576250Y-138627000D01*
X137377000Y-138627000D01*
X137377000Y-138647000D01*
X137123000Y-138647000D01*
X137123000Y-138627000D01*
X137103000Y-138627000D01*
X137103000Y-138373000D01*
X137123000Y-138373000D01*
X137123000Y-138353000D01*
X137377000Y-138353000D01*
X137377000Y-138373000D01*
X138576250Y-138373000D01*
X138735000Y-138214250D01*
X138735000Y-138084999D01*
X141118457Y-138084999D01*
X141035908Y-138500000D01*
X141035908Y-138500000D01*
G37*
X141035908Y-138500000D02*
X141118457Y-138915001D01*
X138735000Y-138915001D01*
X138735000Y-138785750D01*
X138576250Y-138627000D01*
X137377000Y-138627000D01*
X137377000Y-138647000D01*
X137123000Y-138647000D01*
X137123000Y-138627000D01*
X137103000Y-138627000D01*
X137103000Y-138373000D01*
X137123000Y-138373000D01*
X137123000Y-138353000D01*
X137377000Y-138353000D01*
X137377000Y-138373000D01*
X138576250Y-138373000D01*
X138735000Y-138214250D01*
X138735000Y-138084999D01*
X141118457Y-138084999D01*
X141035908Y-138500000D01*
M02*
