M48
INCH,TZ
T1C0.0157
T2C0.0197
T3C0.0217
T4C0.0394
%
G90
G05
T1
X51083Y-55807
X51870Y-63583
X52854Y-55512
X53445Y-55709
X54429Y-63583
X55000Y-64046
X55802Y-64070
X55807Y-55807
X56496Y-64272
X56594Y-55807
X57480Y-57185
X57480Y-58169
X57579Y-60827
X58399Y-55807
X58957Y-64665
X58986Y-59419
X59449Y-60827
X59744Y-59350
X60236Y-66142
X60531Y-62402
X60531Y-64075
X61102Y-57037
X61614Y-58957
X61614Y-64665
X61619Y-59355
X61632Y-61646
X61985Y-57542
X62190Y-62121
X62402Y-54626
X62402Y-56102
X62470Y-64075
X62697Y-59843
X62933Y-60935
X62992Y-66132
X63189Y-55413
X63484Y-61319
X63490Y-61988
X64075Y-62402
X64173Y-60925
X64469Y-60531
X64665Y-61024
X64803Y-55827
X65059Y-65551
X65111Y-57824
X65157Y-57087
X65157Y-64946
X65551Y-55217
X66240Y-60827
X66339Y-56594
X67028Y-63878
T4
X52035Y-54528
X53035Y-54528
X54035Y-54528
X56122Y-54528
X57122Y-54528
X58122Y-54528
X59122Y-54528
X60122Y-54528
X61122Y-54528
X51280Y-64961
X63224Y-54528
X64224Y-54528
X65224Y-54528
X66224Y-54528
X67224Y-54528
T2
G00X66683Y-57283
M15
G01X66939Y-57283
M16
G05
G00X66683Y-60039
M15
G01X66939Y-60039
M16
G05
T3
G00X65748Y-57736
M15
G01X65748Y-57618
M16
G05
G00X65748Y-59705
M15
G01X65748Y-59587
M16
G05
T0
M30
